<svg width="81" height="69" viewBox="0 0 81 69" fill="none" xmlns="http://www.w3.org/2000/svg">
<g filter="url(#filter0_f_450_1000)">
<path d="M25.722 16.3314C20.4739 16.3311 20.0773 41.6197 20.0773 41.6197H60.1829C60.1829 41.6197 57.944 17.0773 54.5522 16.3314C51.1605 15.5856 30.9701 16.3318 25.722 16.3314Z" fill="#E83333"/>
<path d="M16.6381 44.1485C14.3534 44.1485 18.9384 52.9994 18.9384 52.9994H61.3358C61.3358 52.9994 66.4376 44.1485 63.0458 44.1485H16.6381Z" fill="#E83333"/>
<path d="M25.722 16.3314C20.4739 16.3311 20.0773 41.6197 20.0773 41.6197H60.1829C60.1829 41.6197 57.944 17.0773 54.5522 16.3314C51.1605 15.5856 30.9701 16.3318 25.722 16.3314Z" stroke="black" stroke-width="2" stroke-linecap="round"/>
<path d="M16.6381 44.1485C14.3534 44.1485 18.9384 52.9994 18.9384 52.9994H61.3358C61.3358 52.9994 66.4376 44.1485 63.0458 44.1485H16.6381Z" stroke="black" stroke-width="2" stroke-linecap="round"/>
<path d="M41.209 39.8224V18.0508H53.2407C55.7387 18.0508 57.8242 39.8224 57.8242 39.8224H41.209Z" fill="#A91414" stroke="#A91414" stroke-linecap="round"/>
<path d="M41.209 51.2812V46.1248H62.4077C62.5808 46.1248 60.6889 51.2812 60.6889 51.2812H41.209Z" fill="#A91414" stroke="#A91414" stroke-linecap="round"/>
<path d="M33.188 18.0508C33.188 18.0508 32.9078 18.0546 32.4538 18.0656C30.9879 18.1139 27.7634 18.3198 26.8857 19.1966C24.323 21.7568 26.8846 34.0931 26.8846 34.0931H22.874C22.874 34.0931 24.266 19.1149 25.7398 18.6237C26.8945 18.2389 30.8115 18.1054 32.4538 18.0656C32.9037 18.0508 33.188 18.0508 33.188 18.0508Z" fill="white"/>
<path d="M33.188 18.0508C33.188 18.0508 27.2136 18.1325 25.7398 18.6237C24.266 19.1149 22.874 34.0931 22.874 34.0931H26.8846C26.8846 34.0931 24.323 21.7568 26.8857 19.1966C28.0327 18.0507 33.188 18.0508 33.188 18.0508Z" stroke="white" stroke-width="0.8" stroke-linecap="round"/>
<path d="M18.4059 47.0415C18.9672 47.9582 20.0724 50.7083 20.0724 50.7083L21.1938 50.2499C21.1938 50.2499 18.4043 48.443 18.9509 47.4998C19.2889 46.9165 20.6331 46.583 20.6331 46.583C22.3153 46.1247 24.0214 46.1248 24.0214 46.1248H19.5355C19.5355 46.1248 17.8446 46.1248 18.4059 47.0415Z" fill="white" stroke="white" stroke-width="0.5" stroke-linecap="round"/>
</g>
<g filter="url(#filter1_i_450_1000)">
<path d="M19.5 48C17 48.0003 17 55.5 17 55.5H62.5C62.5 55.5 63.5 47.9984 60 48C56.5 48.0016 22 47.9998 19.5 48Z" fill="#8B7E7E"/>
</g>
<path d="M19.5 48C17 48.0003 17 55.5 17 55.5H62.5C62.5 55.5 63.5 47.9984 60 48C56.5 48.0016 22 47.9998 19.5 48Z" stroke="black" stroke-width="2" stroke-linecap="round"/>
<path d="M41 54.0004V49.5001C48.7247 49.5001 60.0055 49.0213 60.5 49.5C60.9945 49.9787 61 54.0004 61 54.0004H41Z" fill="#322E2E" stroke="#322E2E" stroke-linecap="round"/>
<g filter="url(#filter2_b_450_1000)">
<path d="M28.4844 13.2892C23.9044 13.2889 23.5582 35.3582 23.5582 35.3582H58.5582C58.5582 35.3582 56.6044 13.9401 53.6444 13.2892C50.6844 12.6383 33.0644 13.2895 28.4844 13.2892Z" fill="#E83333"/>
<path d="M20.5569 37.5651C18.563 37.5651 22.5644 45.2892 22.5644 45.2892H59.5644C59.5644 45.2892 64.0166 37.5651 61.0566 37.5651H20.5569Z" fill="#E83333"/>
<path d="M28.4844 13.2892C23.9044 13.2889 23.5582 35.3582 23.5582 35.3582H58.5582C58.5582 35.3582 56.6044 13.9401 53.6444 13.2892C50.6844 12.6383 33.0644 13.2895 28.4844 13.2892Z" stroke="black" stroke-width="2" stroke-linecap="round"/>
<path d="M20.5569 37.5651C18.563 37.5651 22.5644 45.2892 22.5644 45.2892H59.5644C59.5644 45.2892 64.0166 37.5651 61.0566 37.5651H20.5569Z" stroke="black" stroke-width="2" stroke-linecap="round"/>
<path d="M42 33.7898V14.7898H52.5C54.6801 14.7898 56.5 33.7898 56.5 33.7898H42Z" fill="#A91414" stroke="#A91414" stroke-linecap="round"/>
<path d="M42 43.7898V39.2898H60.5C60.6511 39.2898 59 43.7898 59 43.7898H42Z" fill="#A91414" stroke="#A91414" stroke-linecap="round"/>
<path d="M35 14.7898C35 14.7898 34.7555 14.7931 34.3593 14.8027C33.0799 14.8449 30.2659 15.0245 29.5 15.7897C27.2635 18.024 29.499 28.7898 29.499 28.7898H25.999C25.999 28.7898 27.2138 15.7184 28.5 15.2898C29.5076 14.9539 32.926 14.8374 34.3593 14.8027C34.7519 14.7898 35 14.7898 35 14.7898Z" fill="white"/>
<path d="M35 14.7898C35 14.7898 29.7862 14.8611 28.5 15.2898C27.2138 15.7184 25.999 28.7898 25.999 28.7898H29.499C29.499 28.7898 27.2635 18.024 29.5 15.7897C30.501 14.7897 35 14.7898 35 14.7898Z" stroke="white" stroke-width="0.8" stroke-linecap="round"/>
<path d="M22.0994 40.0898C22.5892 40.8898 23.5537 43.2898 23.5537 43.2898L24.5324 42.8898C24.5324 42.8898 22.098 41.3129 22.575 40.4898C22.87 39.9807 24.0431 39.6897 24.0431 39.6897C25.5111 39.2897 27 39.2898 27 39.2898H23.0852C23.0852 39.2898 21.6096 39.2898 22.0994 40.0898Z" fill="white" stroke="white" stroke-width="0.5" stroke-linecap="round"/>
</g>
<defs>
<filter id="filter0_f_450_1000" x="0" y="0" width="80.21" height="68.9995" filterUnits="userSpaceOnUse" color-interpolation-filters="sRGB">
<feFlood flood-opacity="0" result="BackgroundImageFix"/>
<feBlend mode="normal" in="SourceGraphic" in2="BackgroundImageFix" result="shape"/>
<feGaussianBlur stdDeviation="7.5" result="effect1_foregroundBlur_450_1000"/>
</filter>
<filter id="filter1_i_450_1000" x="16" y="47" width="47.6318" height="13.5" filterUnits="userSpaceOnUse" color-interpolation-filters="sRGB">
<feFlood flood-opacity="0" result="BackgroundImageFix"/>
<feBlend mode="normal" in="SourceGraphic" in2="BackgroundImageFix" result="shape"/>
<feColorMatrix in="SourceAlpha" type="matrix" values="0 0 0 0 0 0 0 0 0 0 0 0 0 0 0 0 0 0 127 0" result="hardAlpha"/>
<feOffset dy="4"/>
<feGaussianBlur stdDeviation="10"/>
<feComposite in2="hardAlpha" operator="arithmetic" k2="-1" k3="1"/>
<feColorMatrix type="matrix" values="0 0 0 0 0 0 0 0 0 0 0 0 0 0 0 0 0 0 0.4 0"/>
<feBlend mode="normal" in2="shape" result="effect1_innerShadow_450_1000"/>
</filter>
<filter id="filter2_b_450_1000" x="-1" y="-8" width="84.0723" height="74.2893" filterUnits="userSpaceOnUse" color-interpolation-filters="sRGB">
<feFlood flood-opacity="0" result="BackgroundImageFix"/>
<feGaussianBlur in="BackgroundImageFix" stdDeviation="10"/>
<feComposite in2="SourceAlpha" operator="in" result="effect1_backgroundBlur_450_1000"/>
<feBlend mode="normal" in="SourceGraphic" in2="effect1_backgroundBlur_450_1000" result="shape"/>
</filter>
</defs>
</svg>
