<svg width="81" height="69" viewBox="0 0 81 69" fill="none" xmlns="http://www.w3.org/2000/svg">
<g filter="url(#filter0_i_450_990)">
<path d="M19.5 55C17 55.0003 17 62.5 17 62.5H62.5C62.5 62.5 63.5 54.9984 60 55C56.5 55.0016 22 54.9998 19.5 55Z" fill="#8B7E7E"/>
</g>
<path d="M19.5 55C17 55.0003 17 62.5 17 62.5H62.5C62.5 62.5 63.5 54.9984 60 55C56.5 55.0016 22 54.9998 19.5 55Z" stroke="black" stroke-width="2" stroke-linecap="round"/>
<path d="M41 61.0004V56.5001C48.7247 56.5001 60.0055 56.0213 60.5 56.5C60.9945 56.9787 61 61.0004 61 61.0004H41Z" fill="#322E2E" stroke="#322E2E" stroke-linecap="round"/>
<g filter="url(#filter1_b_450_990)">
<path d="M28.4844 20.2892C23.9044 20.2889 23.5582 42.3582 23.5582 42.3582H58.5582C58.5582 42.3582 56.6044 20.9401 53.6444 20.2892C50.6844 19.6383 33.0644 20.2895 28.4844 20.2892Z" fill="#E83333"/>
<path d="M20.5569 44.5651C18.563 44.5651 22.5644 52.2892 22.5644 52.2892H59.5644C59.5644 52.2892 64.0166 44.5651 61.0566 44.5651H20.5569Z" fill="#E83333"/>
<path d="M28.4844 20.2892C23.9044 20.2889 23.5582 42.3582 23.5582 42.3582H58.5582C58.5582 42.3582 56.6044 20.9401 53.6444 20.2892C50.6844 19.6383 33.0644 20.2895 28.4844 20.2892Z" stroke="black" stroke-width="2" stroke-linecap="round"/>
<path d="M20.5569 44.5651C18.563 44.5651 22.5644 52.2892 22.5644 52.2892H59.5644C59.5644 52.2892 64.0166 44.5651 61.0566 44.5651H20.5569Z" stroke="black" stroke-width="2" stroke-linecap="round"/>
<path d="M42 40.7898V21.7898H52.5C54.6801 21.7898 56.5 40.7898 56.5 40.7898H42Z" fill="#A91414" stroke="#A91414" stroke-linecap="round"/>
<path d="M42 50.7898V46.2898H60.5C60.6511 46.2898 59 50.7898 59 50.7898H42Z" fill="#A91414" stroke="#A91414" stroke-linecap="round"/>
<path d="M35 21.7898C35 21.7898 34.7555 21.7931 34.3593 21.8027C33.0799 21.8449 30.2659 22.0245 29.5 22.7897C27.2635 25.024 29.499 35.7898 29.499 35.7898H25.999C25.999 35.7898 27.2138 22.7184 28.5 22.2898C29.5076 21.9539 32.926 21.8374 34.3593 21.8027C34.7519 21.7898 35 21.7898 35 21.7898Z" fill="white"/>
<path d="M35 21.7898C35 21.7898 29.7862 21.8611 28.5 22.2898C27.2138 22.7184 25.999 35.7898 25.999 35.7898H29.499C29.499 35.7898 27.2635 25.024 29.5 22.7897C30.501 21.7897 35 21.7898 35 21.7898Z" stroke="white" stroke-width="0.8" stroke-linecap="round"/>
<path d="M22.0994 47.0898C22.5892 47.8898 23.5537 50.2898 23.5537 50.2898L24.5324 49.8898C24.5324 49.8898 22.098 48.3129 22.575 47.4898C22.87 46.9807 24.0431 46.6897 24.0431 46.6897C25.5111 46.2897 27 46.2898 27 46.2898H23.0852C23.0852 46.2898 21.6096 46.2898 22.0994 47.0898Z" fill="white" stroke="white" stroke-width="0.5" stroke-linecap="round"/>
</g>
<g filter="url(#filter2_f_450_990)">
<path d="M25.722 16.3314C20.4739 16.3311 20.0773 41.6197 20.0773 41.6197H60.1829C60.1829 41.6197 57.944 17.0773 54.5522 16.3314C51.1605 15.5856 30.9701 16.3318 25.722 16.3314Z" fill="#E83333"/>
<path d="M16.6381 44.1485C14.3534 44.1485 18.9384 52.9994 18.9384 52.9994H61.3358C61.3358 52.9994 66.4376 44.1485 63.0458 44.1485H16.6381Z" fill="#E83333"/>
<path d="M25.722 16.3314C20.4739 16.3311 20.0773 41.6197 20.0773 41.6197H60.1829C60.1829 41.6197 57.944 17.0773 54.5522 16.3314C51.1605 15.5856 30.9701 16.3318 25.722 16.3314Z" stroke="black" stroke-width="2" stroke-linecap="round"/>
<path d="M16.6381 44.1485C14.3534 44.1485 18.9384 52.9994 18.9384 52.9994H61.3358C61.3358 52.9994 66.4376 44.1485 63.0458 44.1485H16.6381Z" stroke="black" stroke-width="2" stroke-linecap="round"/>
<path d="M41.209 39.8224V18.0508H53.2407C55.7387 18.0508 57.8242 39.8224 57.8242 39.8224H41.209Z" fill="#A91414" stroke="#A91414" stroke-linecap="round"/>
<path d="M41.209 51.2812V46.1248H62.4077C62.5808 46.1248 60.6889 51.2812 60.6889 51.2812H41.209Z" fill="#A91414" stroke="#A91414" stroke-linecap="round"/>
<path d="M33.188 18.0508C33.188 18.0508 32.9078 18.0546 32.4538 18.0656C30.9879 18.1139 27.7634 18.3198 26.8857 19.1966C24.323 21.7568 26.8846 34.0931 26.8846 34.0931H22.874C22.874 34.0931 24.266 19.1149 25.7398 18.6237C26.8945 18.2389 30.8115 18.1054 32.4538 18.0656C32.9037 18.0508 33.188 18.0508 33.188 18.0508Z" fill="white"/>
<path d="M33.188 18.0508C33.188 18.0508 27.2136 18.1325 25.7398 18.6237C24.266 19.1149 22.874 34.0931 22.874 34.0931H26.8846C26.8846 34.0931 24.323 21.7568 26.8857 19.1966C28.0327 18.0507 33.188 18.0508 33.188 18.0508Z" stroke="white" stroke-width="0.8" stroke-linecap="round"/>
<path d="M18.4059 47.0415C18.9672 47.9582 20.0724 50.7083 20.0724 50.7083L21.1938 50.2499C21.1938 50.2499 18.4043 48.443 18.9509 47.4998C19.2889 46.9165 20.6331 46.583 20.6331 46.583C22.3153 46.1247 24.0214 46.1248 24.0214 46.1248H19.5355C19.5355 46.1248 17.8446 46.1248 18.4059 47.0415Z" fill="white" stroke="white" stroke-width="0.5" stroke-linecap="round"/>
</g>
<defs>
<filter id="filter0_i_450_990" x="16" y="54" width="47.6318" height="13.5" filterUnits="userSpaceOnUse" color-interpolation-filters="sRGB">
<feFlood flood-opacity="0" result="BackgroundImageFix"/>
<feBlend mode="normal" in="SourceGraphic" in2="BackgroundImageFix" result="shape"/>
<feColorMatrix in="SourceAlpha" type="matrix" values="0 0 0 0 0 0 0 0 0 0 0 0 0 0 0 0 0 0 127 0" result="hardAlpha"/>
<feOffset dy="4"/>
<feGaussianBlur stdDeviation="10"/>
<feComposite in2="hardAlpha" operator="arithmetic" k2="-1" k3="1"/>
<feColorMatrix type="matrix" values="0 0 0 0 0 0 0 0 0 0 0 0 0 0 0 0 0 0 0.4 0"/>
<feBlend mode="normal" in2="shape" result="effect1_innerShadow_450_990"/>
</filter>
<filter id="filter1_b_450_990" x="-1" y="-1" width="84.0723" height="74.2893" filterUnits="userSpaceOnUse" color-interpolation-filters="sRGB">
<feFlood flood-opacity="0" result="BackgroundImageFix"/>
<feGaussianBlur in="BackgroundImageFix" stdDeviation="10"/>
<feComposite in2="SourceAlpha" operator="in" result="effect1_backgroundBlur_450_990"/>
<feBlend mode="normal" in="SourceGraphic" in2="effect1_backgroundBlur_450_990" result="shape"/>
</filter>
<filter id="filter2_f_450_990" x="0" y="0" width="80.21" height="68.9995" filterUnits="userSpaceOnUse" color-interpolation-filters="sRGB">
<feFlood flood-opacity="0" result="BackgroundImageFix"/>
<feBlend mode="normal" in="SourceGraphic" in2="BackgroundImageFix" result="shape"/>
<feGaussianBlur stdDeviation="7.5" result="effect1_foregroundBlur_450_990"/>
</filter>
</defs>
</svg>
