<svg width="151" height="282" viewBox="0 0 151 282" fill="none" xmlns="http://www.w3.org/2000/svg">
<path d="M89.0223 3.33799C110.423 -1.32541 108 12.9265 108 12.9265C108 12.9265 91.7149 11.6013 77.5008 14.9264C77.5008 14.9264 70.5098 7.37198 89.0223 3.33799Z" fill="#F4A45A" stroke="black" stroke-width="3"/>
<path d="M119 43.4264C121.006 61.4673 114.726 71.543 109.5 88.9264C106.335 99.4547 97.5521 104.709 99.9999 115.426C102.367 125.792 109.5 122.926 119 134.926C128.5 146.926 137.186 153.42 143 168.426C147.79 180.789 151.239 188.955 148.5 201.926C145.814 214.645 139.985 221.038 130.5 229.926C120.618 239.186 112.838 242.116 99.9999 246.426C76.1211 254.444 57.9842 257.781 35.4999 246.426C20.7082 238.956 10.7006 232.486 4.9999 216.926C0.499239 204.642 1.11361 195.918 4.9999 183.426C8.52339 172.101 15.0267 167.866 21.4999 157.926C30.4258 144.221 44.4999 122.926 44.4999 122.926C44.4999 122.926 61.9694 103.941 62.4999 88.9264C62.811 80.1213 57.4999 66.9264 57.4999 66.9264C57.4999 66.9264 48.9495 40.7936 57.4999 28.4264C63.1979 20.1849 72.5 15.9265 78.9999 14.4264C85.4998 12.9264 99.8539 7.43881 109.5 14.4264C119.151 21.4178 117.683 31.582 119 43.4264Z" fill="white" stroke="black" stroke-width="3"/>
<path d="M96.4998 216.926L112.5 203.926C112.5 203.926 126.18 199.009 128.5 191.426C132.457 178.494 92 191.426 93.9998 188.426C95.9995 185.426 86.4373 170.312 76.4998 169.926C67.948 169.595 58.4998 182.426 58.4998 182.426C58.4998 182.426 45.4018 164.17 37.9998 169.926C33.2139 173.648 33.9998 184.926 33.9998 184.926C33.9998 184.926 27.2456 185.861 23.9998 188.426C14.2719 196.116 37.9998 216.926 37.9998 216.926" stroke="black" stroke-width="3"/>
<path d="M94.4574 49.5863C94.4574 49.5863 98.5368 56.1855 102.243 55.386C105.061 54.7781 106.548 52.7692 107.267 49.9773C108.096 46.7629 107.673 42.9898 104.527 41.9312C102.121 41.1216 98.3742 44.0267 98.3742 44.0267C98.3742 44.0267 102.279 40.016 102.754 36.7249C103.311 32.8596 103.316 28.2179 99.53 27.2588C97.0694 26.6354 95.3898 27.8076 93.3771 29.3543C91.1766 31.0454 89.6215 35.3872 89.6215 35.3872" stroke="black" stroke-width="3"/>
<path d="M89.9457 34.3612C89.9457 34.3612 88.9964 26.6613 85.2952 25.8393C82.4808 25.2142 80.2905 26.4181 78.4705 28.6541C76.3751 31.2286 75.1826 34.8331 77.5987 37.1093C79.4463 38.8499 84.0644 37.776 84.0644 37.776C84.0644 37.776 78.8407 39.7884 77.0346 42.5803C74.9134 45.8592 72.9701 50.0746 76.0089 52.5275C77.9841 54.1219 79.9997 53.7586 82.4746 53.1942C85.1803 52.5772 88.4072 49.2821 88.4072 49.2821" stroke="black" stroke-width="3"/>
<path d="M31.5 273.926V246.426L42.5 251.926V278.926L21 273.926H31.5Z" fill="#F4A45A" stroke="black" stroke-width="3"/>
<path d="M101 274.426V246.926L90 252.426V279.426L111.5 274.426H101Z" fill="#F4A45A" stroke="black" stroke-width="3"/>
<circle cx="97" cy="6.92645" r="1" fill="black"/>
<circle cx="87" cy="7.92645" r="1" fill="black"/>
<path d="M64.375 231L72.25 238.125" stroke="black" stroke-width="3" stroke-linecap="round"/>
<path d="M73 231L63.625 238.5" stroke="black" stroke-width="3" stroke-linecap="round"/>
</svg>
