<svg width="152" height="283" viewBox="0 0 152 283" fill="none" xmlns="http://www.w3.org/2000/svg">
<path d="M97.999 275.455V247.955L86.999 253.455V280.455L108.499 275.455H97.999Z" fill="#F4A45A" stroke="black" stroke-width="3"/>
<path d="M38.499 270.455V242.955L49.499 248.455V275.455L27.999 270.455H38.499Z" fill="#F4A45A" stroke="black" stroke-width="3"/>
<path d="M95.4561 3.74042C116.044 -3.73412 115.5 11.9547 115.5 11.9547C115.5 11.9547 99.2262 11.571 85.5821 16.7613C85.5821 16.7613 77.6465 10.2061 95.4561 3.74042Z" fill="#F4A45A" stroke="black" stroke-width="3"/>
<path d="M128.649 43.9547C130.655 61.9956 124.375 72.0713 119.149 89.4547C115.984 99.983 107.202 105.237 109.649 115.955C112.017 126.32 109.649 123.881 119.149 135.881C128.649 147.881 137.335 154.375 143.149 169.381C147.939 181.743 151.388 189.909 148.649 202.881C145.964 215.6 140.135 221.992 130.649 230.881C120.768 240.141 112.987 243.071 100.149 247.381C76.2705 255.398 58.1336 258.736 35.6493 247.381C20.8577 239.911 10.85 233.441 5.14931 217.881C0.648653 205.597 1.26303 196.873 5.14931 184.381C8.6728 173.055 15.1761 168.82 21.6493 158.881C30.5752 145.176 48 128.455 48 128.455C48 128.455 71.6188 104.469 72.1493 89.4547C72.4604 80.6496 67.1493 67.4547 67.1493 67.4547C67.1493 67.4547 58.5989 41.3219 67.1493 28.9547C72.8473 20.7132 82.1494 16.4548 88.6493 14.9547C95.1492 13.4547 109.503 7.96713 119.149 14.9547C128.8 21.9461 127.332 32.1103 128.649 43.9547Z" fill="white" stroke="black" stroke-width="3"/>
<path d="M93.8266 220.109L111.179 208.979C111.179 208.979 125.323 205.621 128.476 198.345C133.854 185.936 92.2049 194.266 94.5274 191.508C96.8499 188.751 89.0368 172.662 79.2046 171.168C70.7434 169.883 59.9203 181.578 59.9203 181.578C59.9203 181.578 48.9447 161.973 40.9458 166.866C35.774 170.029 35.2944 181.325 35.2944 181.325C35.2944 181.325 28.4782 181.498 24.9659 183.685C14.4395 190.24 35.6931 213.571 35.6931 213.571" stroke="black" stroke-width="3"/>
<path d="M92.4574 51.6146C92.4574 51.6146 96.5368 58.2137 100.243 57.4143C103.061 56.8063 104.548 54.7974 105.267 52.0056C106.096 48.7911 105.673 45.0181 102.527 43.9594C100.121 43.1499 96.3742 46.055 96.3742 46.055C96.3742 46.055 100.279 42.0443 100.754 38.7531C101.311 34.8878 101.316 30.2461 97.53 29.2871C95.0694 28.6637 93.3898 29.8359 91.3771 31.3826C89.1766 33.0736 87.6215 37.4155 87.6215 37.4155" stroke="black" stroke-width="3"/>
<path d="M87.9457 36.3895C87.9457 36.3895 86.9964 28.6895 83.2952 27.8675C80.4808 27.2425 78.2905 28.4464 76.4705 30.6824C74.3751 33.2568 73.1826 36.8613 75.5987 39.1375C77.4463 40.8782 82.0644 39.8042 82.0644 39.8042C82.0644 39.8042 76.8407 41.8166 75.0346 44.6085C72.9134 47.8875 70.9701 52.1029 74.0089 54.5558C75.9841 56.1502 77.9997 55.7869 80.4746 55.2225C83.1803 54.6055 86.4072 51.3103 86.4072 51.3103" stroke="black" stroke-width="3"/>
<circle cx="105" cy="6.95471" r="1" fill="black"/>
<circle cx="92" cy="9.95471" r="1" fill="black"/>
<path d="M58.749 234.955L66.624 242.08" stroke="black" stroke-width="3" stroke-linecap="round"/>
<path d="M67.374 234.955L57.999 242.455" stroke="black" stroke-width="3" stroke-linecap="round"/>
</svg>
