<svg width="152" height="285" viewBox="0 0 152 285" fill="none" xmlns="http://www.w3.org/2000/svg">
<path d="M98 277.555V250.055L87 255.555V282.555L108.5 277.555H98Z" fill="#F4A45A" stroke="black" stroke-width="3"/>
<path d="M33.5 264.555V237.055L44.5 242.555V269.555L23 264.555H33.5Z" fill="#F4A45A" stroke="black" stroke-width="3"/>
<path d="M98.2363 5.02099C118.446 -3.4249 120.999 12.5552 120.999 12.5552C120.999 12.5552 100.882 13.7215 87.5 19.5551C87.5 19.5551 80.7547 12.3269 98.2363 5.02099Z" fill="#F4A45A" stroke="black" stroke-width="3"/>
<path d="M138.149 45.5552C140.155 63.596 133.875 73.6717 128.649 91.0551C125.484 101.583 124 103.055 119.149 117.555C115.776 127.638 109.649 125.981 119.149 137.981C128.649 149.982 137.335 156.475 143.149 171.482C147.939 183.844 151.388 192.01 148.649 204.982C145.964 217.7 140.135 224.093 130.649 232.982C120.768 242.242 112.987 245.171 100.149 249.482C76.2705 257.499 58.1336 260.836 35.6493 249.482C20.8577 242.012 10.85 235.541 5.14931 219.982C0.648653 207.697 1.26303 198.974 5.14931 186.482C8.6728 175.156 15.1761 170.921 21.6493 160.982C30.5752 147.276 49 130.555 49 130.555C49 130.555 81.1188 106.07 81.6493 91.0551C81.9604 82.25 76.6493 69.0552 76.6493 69.0552C76.6493 69.0552 68.0989 42.9224 76.6493 30.5552C82.3473 22.3137 91.6494 18.0552 98.1493 16.5552C104.649 15.0551 119.003 9.56754 128.649 16.5552C138.3 23.5465 136.832 33.7108 138.149 45.5552Z" fill="white" stroke="black" stroke-width="3"/>
<path d="M89.0565 224.981L108.057 216.983C108.057 216.983 122.567 216.094 126.918 209.465C134.34 198.16 91.88 199.241 94.6401 196.921C97.4001 194.602 92.4547 177.413 83.0229 174.26C74.9064 171.546 62.2421 181.217 62.2421 181.217C62.2421 181.217 54.7824 160.023 46.0643 163.475C40.4275 165.707 38.0226 176.754 38.0226 176.754C38.0226 176.754 31.2772 175.759 27.4426 177.313C15.95 181.97 32.8986 208.593 32.8986 208.593" stroke="black" stroke-width="3"/>
<path d="M94.6068 52.6415C94.6068 52.6415 98.6862 59.2406 102.392 58.4412C105.21 57.8333 106.698 55.8243 107.417 53.0325C108.245 49.8181 107.823 46.045 104.677 44.9864C102.271 44.1768 98.5236 47.0819 98.5236 47.0819C98.5236 47.0819 102.429 43.0712 102.903 39.78C103.461 35.9148 103.465 31.273 99.6794 30.314C97.2188 29.6906 95.5392 30.8628 93.5265 32.4095C91.326 34.1005 89.7709 38.4424 89.7709 38.4424" stroke="black" stroke-width="3"/>
<path d="M90.0951 37.4164C90.0951 37.4164 89.1458 29.7164 85.4447 28.8944C82.6302 28.2694 80.4399 29.4733 78.6199 31.7093C76.5245 34.2837 75.332 37.8882 77.7481 40.1645C79.5957 41.9051 84.2138 40.8311 84.2138 40.8311C84.2138 40.8311 78.9901 42.8435 77.184 45.6354C75.0628 48.9144 73.1195 53.1298 76.1583 55.5827C78.1335 57.1771 80.1491 56.8138 82.624 56.2494C85.3298 55.6324 88.5566 52.3373 88.5566 52.3373" stroke="black" stroke-width="3"/>
<circle cx="106" cy="9.05518" r="1" fill="black"/>
<circle cx="94" cy="12.0552" r="1" fill="black"/>
<path d="M57.75 237.055L65.625 244.18" stroke="black" stroke-width="3" stroke-linecap="round"/>
<path d="M66.375 237.055L57 244.555" stroke="black" stroke-width="3" stroke-linecap="round"/>
</svg>
