<svg width="153" height="283" viewBox="0 0 153 283" fill="none" xmlns="http://www.w3.org/2000/svg">
<path d="M102.039 263.555V236.055L91.0391 241.555V268.555L112.539 263.555H102.039Z" fill="#F4A45A" stroke="black" stroke-width="3"/>
<path d="M69.1394 2.85729C91.0656 1.3121 86.1775 16.4592 86.1775 16.4592C86.1775 16.4592 65.6404 13.2801 51.0375 14.5549C51.0375 14.5549 50.1726 4.19393 69.1394 2.85729Z" fill="#F4A45A" stroke="black" stroke-width="3"/>
<path d="M95.5393 44.0548C97.5452 62.0957 91.2655 72.1714 86.0393 89.5548C82.874 100.083 86.0393 101.555 95.5393 117.555C100.968 126.697 110.689 124.981 120.189 136.981C129.689 148.981 138.374 155.475 144.189 170.481C148.978 182.844 152.428 191.01 149.689 203.981C147.003 216.7 141.174 223.093 131.689 231.981C121.807 241.241 114.027 244.171 101.189 248.481C77.3098 256.499 59.1729 259.836 36.6886 248.481C21.8969 241.011 11.8893 234.541 6.18859 218.981C1.68793 206.697 -0.384593 196.793 6.18859 185.481C12.5381 174.555 15.8501 170.481 22.6886 159.981C32.7356 144.555 40.1005 140.565 43.0393 125.055C45.6365 111.347 43.0393 105.055 39.0393 89.5548C36.8377 81.0237 34.0393 67.5548 34.0393 67.5548C34.0393 67.5548 25.4889 41.422 34.0393 29.0548C39.7373 20.8133 49.0394 16.5549 55.5393 15.0548C62.0392 13.5548 76.3933 8.06723 86.0393 15.0548C95.6904 22.0462 94.2223 32.2104 95.5393 44.0548Z" fill="white" stroke="black" stroke-width="3"/>
<path d="M105.498 208.54L115.013 190.251C115.013 190.251 125.611 180.302 124.727 172.422C123.218 158.982 91.2339 186.929 91.8765 183.381C92.5192 179.833 77.7373 169.764 68.4653 173.36C60.4862 176.455 56.9162 191.985 56.9162 191.985C56.9162 191.985 37.6414 180.439 33.1368 188.662C30.2243 193.98 35.4281 204.017 35.4281 204.017C35.4281 204.017 29.6016 207.558 27.6429 211.203C21.7728 222.126 51.8171 231.791 51.8171 231.791" stroke="black" stroke-width="3"/>
<path d="M82.4955 50.7147C82.4955 50.7147 86.5749 57.3138 90.281 56.5144C93.0991 55.9064 94.5862 53.8975 95.3055 51.1057C96.1338 47.8912 95.7113 44.1182 92.5652 43.0595C90.1593 42.25 86.4123 45.1551 86.4123 45.1551C86.4123 45.1551 90.3175 41.1444 90.792 37.8532C91.3494 33.9879 91.3538 29.3462 87.5681 28.3872C85.1074 27.7638 83.4279 28.936 81.4152 30.4827C79.2147 32.1737 77.6596 36.5156 77.6596 36.5156" stroke="black" stroke-width="3"/>
<path d="M77.9838 35.4896C77.9838 35.4896 77.0345 27.7896 73.3333 26.9676C70.5189 26.3425 68.3286 27.5465 66.5086 29.7825C64.4132 32.3569 63.2207 35.9614 65.6368 38.2376C67.4844 39.9783 72.1025 38.9043 72.1025 38.9043C72.1025 38.9043 66.8788 40.9167 65.0727 43.7086C62.9514 46.9876 61.0082 51.203 64.047 53.6559C66.0222 55.2503 68.0378 54.887 70.5127 54.3226C73.2184 53.7056 76.4452 50.4104 76.4452 50.4104" stroke="black" stroke-width="3"/>
<path d="M32.6885 275.981V248.481L43.6885 253.981V280.981L22.1885 275.981H32.6885Z" fill="#F4A45A" stroke="black" stroke-width="3"/>
<circle cx="77.2921" cy="7.30895" r="1" transform="rotate(-17.4669 77.2921 7.30895)" fill="black"/>
<circle cx="68.2921" cy="7.30895" r="1" transform="rotate(-17.4669 68.2921 7.30895)" fill="black"/>
<path d="M84.7891 229.055L92.6641 236.18" stroke="black" stroke-width="3" stroke-linecap="round"/>
<path d="M93.4141 229.055L84.0391 236.555" stroke="black" stroke-width="3" stroke-linecap="round"/>
</svg>
