<svg width="152" height="283" viewBox="0 0 152 283" fill="none" xmlns="http://www.w3.org/2000/svg">
<path d="M101 270.773V243.273L90 248.773V275.773L111.5 270.773H101Z" fill="#F4A45A" stroke="black" stroke-width="3"/>
<path d="M70.3809 4.11885C90.846 -3.68692 90.5773 10.767 90.5773 10.767C90.5773 10.767 74.2769 11.8876 60.7184 17.2973C60.7184 17.2973 52.678 10.8711 70.3809 4.11885Z" fill="#F4A45A" stroke="black" stroke-width="3"/>
<path d="M106.149 44.2732C108.155 62.3141 101.875 72.3898 96.6493 89.7732C93.4841 100.301 97.7015 105.982 100.149 116.7C102.517 127.065 109.649 124.2 119.149 136.2C128.649 148.2 137.335 154.693 143.149 169.7C147.939 182.062 151.388 190.228 148.649 203.2C145.964 215.918 140.135 222.311 130.649 231.2C120.768 240.46 112.987 243.389 100.149 247.7C76.2705 255.717 58.1336 259.054 35.6493 247.7C20.8577 240.23 10.85 233.759 5.14931 218.2C0.648653 205.916 1.26303 197.192 5.14931 184.7C8.6728 173.374 15.1761 169.139 21.6493 159.2C30.5752 145.495 44.6493 124.2 44.6493 124.2C44.6493 124.2 49.1188 104.788 49.6493 89.7732C49.9604 80.9681 44.6493 67.7732 44.6493 67.7732C44.6493 67.7732 36.0989 41.6404 44.6493 29.2732C50.3473 21.0317 59.6494 16.7733 66.1493 15.2732C72.6492 13.7732 87.0033 8.28561 96.6493 15.2732C106.3 22.2646 104.832 32.4288 106.149 44.2732Z" fill="white" stroke="black" stroke-width="3"/>
<path d="M99.5834 215.244L113.767 200.284C113.767 200.284 126.696 193.637 128.016 185.819C130.267 172.483 91.8227 190.54 93.4176 187.307C95.0125 184.074 83.5753 170.323 73.6714 171.226C65.1486 172.004 57.4397 185.95 57.4397 185.95C57.4397 185.95 42.0902 169.542 35.4949 176.207C31.2307 180.516 33.469 191.598 33.469 191.598C33.469 191.598 26.8924 193.398 24.0058 196.362C15.3544 205.246 41.575 222.812 41.575 222.812" stroke="black" stroke-width="3"/>
<path d="M84.4574 50.9331C84.4574 50.9331 88.5368 57.5323 92.2429 56.7328C95.0611 56.1249 96.5481 54.116 97.2674 51.3241C98.0957 48.1097 97.6732 44.3366 94.5271 43.278C92.1212 42.4684 88.3742 45.3735 88.3742 45.3735C88.3742 45.3735 92.2794 41.3628 92.7539 38.0717C93.3113 34.2064 93.3157 29.5647 89.53 28.6056C87.0694 27.9822 85.3898 29.1544 83.3771 30.7011C81.1766 32.3922 79.6215 36.734 79.6215 36.734" stroke="black" stroke-width="3"/>
<path d="M79.9457 35.708C79.9457 35.708 78.9964 28.0081 75.2952 27.1861C72.4808 26.561 70.2905 27.7649 68.4705 30.0009C66.3751 32.5754 65.1826 36.1799 67.5987 38.4561C69.4463 40.1967 74.0644 39.1228 74.0644 39.1228C74.0644 39.1228 68.8407 41.1352 67.0346 43.9271C64.9134 47.206 62.9701 51.4214 66.0089 53.8743C67.9841 55.4687 69.9997 55.1054 72.4746 54.541C75.1803 53.924 78.4072 50.6289 78.4072 50.6289" stroke="black" stroke-width="3"/>
<path d="M31.6494 275.2V247.7L42.6494 253.2V280.2L21.1494 275.2H31.6494Z" fill="#F4A45A" stroke="black" stroke-width="3"/>
<circle cx="81" cy="7.27325" r="1" fill="black"/>
<circle cx="69" cy="10.2733" r="1" fill="black"/>
<path d="M70.75 233.273L78.625 240.398" stroke="black" stroke-width="3" stroke-linecap="round"/>
<path d="M79.375 233.273L70 240.773" stroke="black" stroke-width="3" stroke-linecap="round"/>
</svg>
