<svg width="152" height="282" viewBox="0 0 152 282" fill="none" xmlns="http://www.w3.org/2000/svg">
<path d="M89.1717 3.33799C110.573 -1.32541 108.149 12.9265 108.149 12.9265C108.149 12.9265 91.8643 11.6013 77.6502 14.9264C77.6502 14.9264 70.6592 7.37198 89.1717 3.33799Z" fill="#F4A45A" stroke="black" stroke-width="3"/>
<path d="M119.149 43.4264C121.155 61.4673 114.875 71.543 109.649 88.9264C106.484 99.4547 97.7015 104.709 100.149 115.426C102.517 125.792 109.649 122.926 119.149 134.926C128.649 146.926 137.335 153.42 143.149 168.426C147.939 180.789 151.388 188.955 148.649 201.926C145.964 214.645 140.135 221.038 130.649 229.926C120.768 239.186 112.987 242.116 100.149 246.426C76.2705 254.444 58.1336 257.781 35.6493 246.426C20.8577 238.956 10.85 232.486 5.14931 216.926C0.648653 204.642 1.26303 195.918 5.14931 183.426C8.6728 172.101 15.1761 167.866 21.6493 157.926C30.5752 144.221 44.6493 122.926 44.6493 122.926C44.6493 122.926 62.1188 103.941 62.6493 88.9264C62.9604 80.1213 57.6493 66.9264 57.6493 66.9264C57.6493 66.9264 49.0989 40.7936 57.6493 28.4264C63.3473 20.1849 72.6494 15.9265 79.1493 14.4264C85.6492 12.9264 100.003 7.43881 109.649 14.4264C119.3 21.4178 117.832 31.582 119.149 43.4264Z" fill="white" stroke="black" stroke-width="3"/>
<path d="M96.6492 216.926L112.649 203.926C112.649 203.926 126.329 199.009 128.649 191.426C132.606 178.494 92.1494 191.426 94.1492 188.426C96.1489 185.426 86.5867 170.312 76.6492 169.926C68.0974 169.595 58.6492 182.426 58.6492 182.426C58.6492 182.426 45.5512 164.17 38.1492 169.926C33.3633 173.648 34.1492 184.926 34.1492 184.926C34.1492 184.926 27.395 185.861 24.1492 188.426C14.4213 196.116 38.1492 216.926 38.1492 216.926" stroke="black" stroke-width="3"/>
<path d="M94.6068 49.5863C94.6068 49.5863 98.6862 56.1855 102.392 55.386C105.21 54.7781 106.698 52.7692 107.417 49.9773C108.245 46.7629 107.823 42.9898 104.677 41.9312C102.271 41.1216 98.5236 44.0267 98.5236 44.0267C98.5236 44.0267 102.429 40.016 102.903 36.7249C103.461 32.8596 103.465 28.2179 99.6794 27.2588C97.2188 26.6354 95.5392 27.8076 93.5265 29.3543C91.326 31.0454 89.7709 35.3872 89.7709 35.3872" stroke="black" stroke-width="3"/>
<path d="M90.0951 34.3612C90.0951 34.3612 89.1458 26.6613 85.4447 25.8393C82.6302 25.2142 80.4399 26.4181 78.6199 28.6541C76.5245 31.2286 75.332 34.8331 77.7481 37.1093C79.5957 38.8499 84.2138 37.776 84.2138 37.776C84.2138 37.776 78.9901 39.7884 77.184 42.5803C75.0628 45.8592 73.1195 50.0746 76.1583 52.5275C78.1335 54.1219 80.1491 53.7586 82.624 53.1942C85.3298 52.5772 88.5566 49.2821 88.5566 49.2821" stroke="black" stroke-width="3"/>
<path d="M31.6494 273.926V246.426L42.6494 251.926V278.926L21.1494 273.926H31.6494Z" fill="#F4A45A" stroke="black" stroke-width="3"/>
<path d="M101.149 274.426V246.926L90.1494 252.426V279.426L111.649 274.426H101.149Z" fill="#F4A45A" stroke="black" stroke-width="3"/>
<circle cx="97.1494" cy="6.92645" r="1" fill="black"/>
<circle cx="87.1494" cy="7.92645" r="1" fill="black"/>
<path d="M64.5244 231L72.3994 238.125" stroke="black" stroke-width="3" stroke-linecap="round"/>
<path d="M73.1494 231L63.7744 238.5" stroke="black" stroke-width="3" stroke-linecap="round"/>
</svg>
