<svg width="188" height="254" viewBox="0 0 188 254" fill="none" xmlns="http://www.w3.org/2000/svg">
<path d="M80.6822 102.155C80.6822 102.155 76.597 120.054 67.4018 123.283C62.5084 125.001 59.2742 123.872 54.1215 123.283C45.5286 122.3 38.0169 123.683 32.9936 116.643C29.637 111.938 29.9753 102.155 29.9753 102.155C29.9753 102.155 21.8424 114.606 22.7315 123.283C23.4196 129.998 33.8443 133.446 29.9753 138.978C28.0983 141.662 26.0023 143.037 22.7315 143.203C18.4871 143.419 13.6767 137.167 13.6767 137.167C13.6767 137.167 16.2526 148.677 18.5059 155.88C19.9973 160.648 22.8004 162.958 22.7315 167.953C22.5791 178.999 1 186.063 1 186.063C1 186.063 11.9868 184.004 18.5059 186.063C25.1174 188.151 28.4885 191.055 32.9936 196.325C38.3439 202.584 37.041 208.684 41.4447 215.642C48.8492 227.34 55.0713 233.492 67.4018 239.788C81.8326 247.156 92.2985 247.111 108.45 245.824C122.879 244.675 132.039 243.616 144.066 235.562C152.934 229.623 157.041 224.642 162.779 215.642C169.395 205.265 173.635 198.369 173.645 186.063C173.66 165.726 156.139 149.24 144.066 143.203C131.993 137.167 126.714 133.976 122.938 123.283C120.191 115.503 118.712 108.795 118.712 102.155C118.712 95.5146 120.689 92.1617 122.938 86.46C125.632 79.63 133.819 80.4831 136.822 73.7833C139.907 66.8995 136.822 54.4664 136.822 54.4664V36.9605C136.822 36.9605 136.242 22.5636 130.182 17.0399C121.818 9.41769 112.101 13.9811 101.206 17.0399C90.3073 20.1 82.3873 22.4886 76.4566 32.1312C71.806 39.6927 71.6273 45.6098 72.231 54.4664C73.0564 66.5738 84.5505 70.7078 84.9078 82.8381C85.1351 90.5568 80.6822 102.155 80.6822 102.155Z" fill="white" stroke="black" stroke-width="3" stroke-linecap="round"/>
<path d="M118.17 50.8958C121.458 49.5932 123.771 48.5939 125.414 45.4629C125.414 45.4629 135.615 47.2738 140.444 48.4812C145.273 49.6885 148.087 49.4578 151.371 52.1031C155.448 55.3864 164.048 62.9688 159.219 62.9688C154.389 62.9688 144.699 61.2874 139.298 61.7615C129.615 62.6115 129.886 71.5332 121.188 67.1944C117.456 65.3327 115.185 65.5025 113.341 61.7615C111.661 58.3519 112.134 52.1031 112.134 52.1031C112.134 52.1031 115.935 51.7814 118.17 50.8958Z" fill="#F4A45A" stroke="black" stroke-width="3" stroke-linecap="round"/>
<path d="M101.206 45.4629L103.273 36.9744L104.612 36.6936L102.546 45.1822L101.206 45.4629Z" stroke="black" stroke-width="3" stroke-linecap="round"/>
<path d="M97.584 40.6337L107.846 33.3899H105.431L97.584 38.2191V40.6337Z" fill="black" stroke="black" stroke-linecap="round"/>
<path d="M122.938 55.1213L125.865 55.855" stroke="black" stroke-linecap="round"/>
<path d="M128.975 50.2922L131.902 51.0259" stroke="black" stroke-linecap="round"/>
<path d="M97.2757 244.677L81.1486 226.767L91.3195 214.089C91.3195 214.089 101.275 231.744 111.831 231.693C117.253 231.667 124.883 226.959 124.883 226.959L99.3337 250.352L97.2757 244.677Z" fill="#F4A45A" stroke="black" stroke-width="3" stroke-linecap="round"/>
<path d="M155.227 235.018L139.1 217.108L149.271 204.43C149.271 204.43 159.226 222.085 169.782 222.034C175.204 222.008 182.834 217.301 182.834 217.301L157.285 240.693L155.227 235.018Z" fill="#F4A45A" stroke="black" stroke-width="3" stroke-linecap="round"/>
<path d="M95.1703 207.242C95.1703 207.242 93.5615 211.698 91.5484 213.681C88.2982 216.883 80.6826 216.9 80.6826 216.9" stroke="black" stroke-width="3" stroke-linecap="round"/>
<path d="M83.0485 208.449C83.0485 208.449 84.9216 215.1 84.2857 219.065C83.2589 225.466 74.6457 231.388 74.6457 231.388" stroke="black" stroke-width="3" stroke-linecap="round"/>
<path d="M153.888 196.376C153.888 196.376 152.279 200.832 150.266 202.815C147.016 206.017 139.4 206.035 139.4 206.035" stroke="black" stroke-width="3" stroke-linecap="round"/>
<path d="M141.766 197.583C141.766 197.583 143.639 204.234 143.003 208.199C141.977 214.6 133.363 220.522 133.363 220.522" stroke="black" stroke-width="3" stroke-linecap="round"/>
<path d="M115.493 2.18221C111.485 0.532025 108.249 10.6334 108.249 10.6334C108.249 10.6334 97.0094 -0.27635 91.3467 3.99317C88.2309 6.34243 85.7082 9.41054 87.1212 13.048C88.5798 16.803 96.7796 16.6699 96.7796 16.6699C96.7796 16.6699 93.4486 19.5695 93.1577 22.1028C92.6438 26.5772 97.1375 30.4901 101.609 29.9502C105.594 29.469 108.249 22.1028 108.249 22.1028C108.249 22.1028 114.021 25.8366 117.907 25.121C121.71 24.4209 125.608 22.9481 125.755 19.0845C125.859 16.3373 122.133 13.048 122.133 13.048C122.133 13.048 129.763 8.05797 125.755 6.40778L115.493 2.18221Z" fill="#D9D9D9" stroke="black" stroke-width="3" stroke-linecap="round"/>
<path d="M95.6227 144.304C95.6227 144.304 113.86 164.081 112.201 179.01C109.788 200.718 87.1875 206.83 65.559 209.874C53.5878 211.559 34.7592 206.764 34.7592 206.764C34.7592 206.764 48.0769 200.103 54.7486 193.537C59.4472 188.913 65.0719 180.181 65.0719 180.181C65.0719 180.181 48.6907 192.162 37.037 190.902C29.4685 190.084 19.1441 183.167 19.1441 183.167C19.1441 183.167 38.2875 181.616 45.6983 173.425C49.3768 169.36 52.4597 161.121 52.4597 161.121C52.4597 161.121 37.1843 162.238 27.6242 160.59C22.5367 159.713 16.1401 156.222 16.1401 156.222L38.9167 153.866L74.6702 146.424" stroke="black" stroke-width="3" stroke-linecap="round"/>
</svg>
