<svg width="163" height="92" viewBox="0 0 163 92" fill="none" xmlns="http://www.w3.org/2000/svg">
<path d="M12.9995 45.6843L29.6386 63.8335C29.6386 63.8335 35.1048 60.3056 36.7398 56.7057C38.1125 53.6834 35.7718 47.5352 35.7718 47.5352L12.9995 45.6843Z" fill="#9F9F9F" stroke="black" stroke-width="3" stroke-linecap="round"/>
<path d="M62.8945 6.39445L60.2901 30.8785C60.2901 30.8785 66.5517 32.6442 70.333 31.4891C73.5076 30.5193 76.5701 24.6969 76.5701 24.6969L62.8945 6.39445Z" fill="#9F9F9F" stroke="black" stroke-width="3" stroke-linecap="round"/>
<path d="M117.891 17.0001L98.3102 31.9275C98.3102 31.9275 101.329 37.6907 104.766 39.6449C107.651 41.2856 113.986 39.5112 113.986 39.5112L117.891 17.0001Z" fill="#9F9F9F" stroke="black" stroke-width="3" stroke-linecap="round"/>
<path d="M148.491 52.8824L123.764 51.836C123.764 51.836 122.424 58.2048 123.841 61.9096C125.032 65.0201 131.08 67.7101 131.08 67.7101L148.491 52.8824Z" fill="#9F9F9F" stroke="black" stroke-width="3" stroke-linecap="round"/>
<g filter="url(#filter0_i_430_373)">
<path d="M130 41.0001C140.589 55.0224 141.5 84.5001 141.5 84.5001H81.75H22C22 84.5001 22.4674 65.0073 27.5 54.0001C33.4807 40.9192 39.6568 33.8841 52 26.5001C68.2333 16.789 81.8863 14.5488 100 20.0001C113.694 24.1214 121.382 29.5878 130 41.0001Z" fill="#D9D9D9"/>
</g>
<path d="M130 41.0001C140.589 55.0224 141.5 84.5001 141.5 84.5001H81.75H22C22 84.5001 22.4674 65.0073 27.5 54.0001C33.4807 40.9192 39.6568 33.8841 52 26.5001C68.2333 16.789 81.8863 14.5488 100 20.0001C113.694 24.1214 121.382 29.5878 130 41.0001Z" stroke="black" stroke-width="3" stroke-linecap="round"/>
<g filter="url(#filter1_i_430_373)">
<path d="M137.002 28.5L114.502 38.5C114.502 38.5 116.107 44.8046 119 47.5C121.429 49.763 128.002 49.5 128.002 49.5L137.002 28.5Z" fill="#D9D9D9"/>
</g>
<path d="M137.002 28.5L114.502 38.5C114.502 38.5 116.107 44.8046 119 47.5C121.429 49.763 128.002 49.5 128.002 49.5L137.002 28.5Z" stroke="black" stroke-width="3" stroke-linecap="round"/>
<g filter="url(#filter2_i_430_373)">
<path d="M85.7941 4.99998L77.1222 28.0445C77.1222 28.0445 82.7394 31.3266 86.6896 31.1585C90.006 31.0174 94.433 26.1511 94.433 26.1511L85.7941 4.99998Z" fill="#D9D9D9"/>
</g>
<path d="M85.7941 4.99998L77.1222 28.0445C77.1222 28.0445 82.7394 31.3266 86.6896 31.1585C90.006 31.0174 94.433 26.1511 94.433 26.1511L85.7941 4.99998Z" stroke="black" stroke-width="3" stroke-linecap="round"/>
<g filter="url(#filter3_i_430_373)">
<path d="M35.5943 19.9999L42.9333 43.5029C42.9333 43.5029 49.381 42.635 52.3919 40.0725C54.9198 37.9211 55.4165 31.3612 55.4165 31.3612L35.5943 19.9999Z" fill="#D9D9D9"/>
</g>
<path d="M35.5943 19.9999L42.9333 43.5029C42.9333 43.5029 49.381 42.635 52.3919 40.0725C54.9198 37.9211 55.4165 31.3612 55.4165 31.3612L35.5943 19.9999Z" stroke="black" stroke-width="3" stroke-linecap="round"/>
<g filter="url(#filter4_i_430_373)">
<path d="M73.9282 34L70.4791 58.3793C70.4791 58.3793 76.6759 60.3604 80.4949 59.3367C83.7011 58.4772 86.963 52.7641 86.963 52.7641L73.9282 34Z" fill="#D9D9D9"/>
</g>
<path d="M73.9282 34L70.4791 58.3793C70.4791 58.3793 76.6759 60.3604 80.4949 59.3367C83.7011 58.4772 86.963 52.7641 86.963 52.7641L73.9282 34Z" stroke="black" stroke-width="3" stroke-linecap="round"/>
<g filter="url(#filter5_di_430_373)">
<path d="M125.059 58.5653L100.497 60.2878C100.497 60.2878 99.8548 66.7618 101.654 70.2825C103.165 73.2383 109.433 75.234 109.433 75.234L125.059 58.5653Z" fill="#D9D9D9"/>
<path d="M125.059 58.5653L100.497 60.2878C100.497 60.2878 99.8548 66.7618 101.654 70.2825C103.165 73.2383 109.433 75.234 109.433 75.234L125.059 58.5653Z" stroke="black" stroke-width="3" stroke-linecap="round"/>
</g>
<g filter="url(#filter6_di_430_373)">
<path d="M154.643 67.3511L130.065 65.8792C130.065 65.8792 128.736 71.7761 130.065 75.5C131.18 78.6265 136.991 81.8566 136.991 81.8566L154.643 67.3511Z" fill="#D9D9D9"/>
<path d="M154.643 67.3511L130.065 65.8792C130.065 65.8792 128.736 71.7761 130.065 75.5C131.18 78.6265 136.991 81.8566 136.991 81.8566L154.643 67.3511Z" stroke="black" stroke-width="3" stroke-linecap="round"/>
</g>
<g filter="url(#filter7_di_430_373)">
<path d="M7.99953 59.6843L24.6386 77.8335C24.6386 77.8335 30.1048 74.3056 31.7398 70.7057C33.1125 67.6834 30.7718 61.5352 30.7718 61.5352L7.99953 59.6843Z" fill="#D9D9D9"/>
<path d="M7.99953 59.6843L24.6386 77.8335C24.6386 77.8335 30.1048 74.3056 31.7398 70.7057C33.1125 67.6834 30.7718 61.5352 30.7718 61.5352L7.99953 59.6843Z" stroke="black" stroke-width="3" stroke-linecap="round"/>
</g>
<g filter="url(#filter8_di_430_373)">
<path d="M39.9998 56.3515L51.4266 78.1616C51.4266 78.1616 57.6148 76.1539 60.1185 73.0939C62.2206 70.5248 61.5353 63.9819 61.5353 63.9819L39.9998 56.3515Z" fill="#D9D9D9"/>
<path d="M39.9998 56.3515L51.4266 78.1616C51.4266 78.1616 57.6148 76.1539 60.1185 73.0939C62.2206 70.5248 61.5353 63.9819 61.5353 63.9819L39.9998 56.3515Z" stroke="black" stroke-width="3" stroke-linecap="round"/>
</g>
<defs>
<filter id="filter0_i_430_373" x="20.4639" y="15.5925" width="122.583" height="74.4075" filterUnits="userSpaceOnUse" color-interpolation-filters="sRGB">
<feFlood flood-opacity="0" result="BackgroundImageFix"/>
<feBlend mode="normal" in="SourceGraphic" in2="BackgroundImageFix" result="shape"/>
<feColorMatrix in="SourceAlpha" type="matrix" values="0 0 0 0 0 0 0 0 0 0 0 0 0 0 0 0 0 0 127 0" result="hardAlpha"/>
<feOffset dy="4"/>
<feGaussianBlur stdDeviation="4"/>
<feComposite in2="hardAlpha" operator="arithmetic" k2="-1" k3="1"/>
<feColorMatrix type="matrix" values="0 0 0 0 0 0 0 0 0 0 0 0 0 0 0 0 0 0 0.8 0"/>
<feBlend mode="normal" in2="shape" result="effect1_innerShadow_430_373"/>
</filter>
<filter id="filter1_i_430_373" x="112.736" y="25.5764" width="27.1504" height="29.4329" filterUnits="userSpaceOnUse" color-interpolation-filters="sRGB">
<feFlood flood-opacity="0" result="BackgroundImageFix"/>
<feBlend mode="normal" in="SourceGraphic" in2="BackgroundImageFix" result="shape"/>
<feColorMatrix in="SourceAlpha" type="matrix" values="0 0 0 0 0 0 0 0 0 0 0 0 0 0 0 0 0 0 127 0" result="hardAlpha"/>
<feOffset dy="4"/>
<feGaussianBlur stdDeviation="4"/>
<feComposite in2="hardAlpha" operator="arithmetic" k2="-1" k3="1"/>
<feColorMatrix type="matrix" values="0 0 0 0 0 0 0 0 0 0 0 0 0 0 0 0 0 0 0.8 0"/>
<feBlend mode="normal" in2="shape" result="effect1_innerShadow_430_373"/>
</filter>
<filter id="filter2_i_430_373" x="75.2725" y="0.893066" width="20.9072" height="35.7717" filterUnits="userSpaceOnUse" color-interpolation-filters="sRGB">
<feFlood flood-opacity="0" result="BackgroundImageFix"/>
<feBlend mode="normal" in="SourceGraphic" in2="BackgroundImageFix" result="shape"/>
<feColorMatrix in="SourceAlpha" type="matrix" values="0 0 0 0 0 0 0 0 0 0 0 0 0 0 0 0 0 0 127 0" result="hardAlpha"/>
<feOffset dy="4"/>
<feGaussianBlur stdDeviation="2.5"/>
<feComposite in2="hardAlpha" operator="arithmetic" k2="-1" k3="1"/>
<feColorMatrix type="matrix" values="0 0 0 0 0 0 0 0 0 0 0 0 0 0 0 0 0 0 0.8 0"/>
<feBlend mode="normal" in2="shape" result="effect1_innerShadow_430_373"/>
</filter>
<filter id="filter3_i_430_373" x="33.0225" y="16.7971" width="23.9609" height="32.3611" filterUnits="userSpaceOnUse" color-interpolation-filters="sRGB">
<feFlood flood-opacity="0" result="BackgroundImageFix"/>
<feBlend mode="normal" in="SourceGraphic" in2="BackgroundImageFix" result="shape"/>
<feColorMatrix in="SourceAlpha" type="matrix" values="0 0 0 0 0 0 0 0 0 0 0 0 0 0 0 0 0 0 127 0" result="hardAlpha"/>
<feOffset dy="4"/>
<feGaussianBlur stdDeviation="4"/>
<feComposite in2="hardAlpha" operator="arithmetic" k2="-1" k3="1"/>
<feColorMatrix type="matrix" values="0 0 0 0 0 0 0 0 0 0 0 0 0 0 0 0 0 0 0.8 0"/>
<feBlend mode="normal" in2="shape" result="effect1_innerShadow_430_373"/>
</filter>
<filter id="filter4_i_430_373" x="68.8164" y="30.0039" width="19.9189" height="35.1262" filterUnits="userSpaceOnUse" color-interpolation-filters="sRGB">
<feFlood flood-opacity="0" result="BackgroundImageFix"/>
<feBlend mode="normal" in="SourceGraphic" in2="BackgroundImageFix" result="shape"/>
<feColorMatrix in="SourceAlpha" type="matrix" values="0 0 0 0 0 0 0 0 0 0 0 0 0 0 0 0 0 0 127 0" result="hardAlpha"/>
<feOffset dy="4"/>
<feGaussianBlur stdDeviation="4"/>
<feComposite in2="hardAlpha" operator="arithmetic" k2="-1" k3="1"/>
<feColorMatrix type="matrix" values="0 0 0 0 0 0 0 0 0 0 0 0 0 0 0 0 0 0 0.4 0"/>
<feBlend mode="normal" in2="shape" result="effect1_innerShadow_430_373"/>
</filter>
<filter id="filter5_di_430_373" x="94.8857" y="56.8015" width="37.8828" height="28.1489" filterUnits="userSpaceOnUse" color-interpolation-filters="sRGB">
<feFlood flood-opacity="0" result="BackgroundImageFix"/>
<feColorMatrix in="SourceAlpha" type="matrix" values="0 0 0 0 0 0 0 0 0 0 0 0 0 0 0 0 0 0 127 0" result="hardAlpha"/>
<feOffset dy="4"/>
<feGaussianBlur stdDeviation="2"/>
<feComposite in2="hardAlpha" operator="out"/>
<feColorMatrix type="matrix" values="0 0 0 0 0 0 0 0 0 0 0 0 0 0 0 0 0 0 0.25 0"/>
<feBlend mode="normal" in2="BackgroundImageFix" result="effect1_dropShadow_430_373"/>
<feBlend mode="normal" in="SourceGraphic" in2="effect1_dropShadow_430_373" result="shape"/>
<feColorMatrix in="SourceAlpha" type="matrix" values="0 0 0 0 0 0 0 0 0 0 0 0 0 0 0 0 0 0 127 0" result="hardAlpha"/>
<feOffset dy="4"/>
<feGaussianBlur stdDeviation="4"/>
<feComposite in2="hardAlpha" operator="arithmetic" k2="-1" k3="1"/>
<feColorMatrix type="matrix" values="0 0 0 0 0 0 0 0 0 0 0 0 0 0 0 0 0 0 0.8 0"/>
<feBlend mode="normal" in2="shape" result="effect2_innerShadow_430_373"/>
</filter>
<filter id="filter6_di_430_373" x="123.974" y="64.3057" width="38.5762" height="27.3582" filterUnits="userSpaceOnUse" color-interpolation-filters="sRGB">
<feFlood flood-opacity="0" result="BackgroundImageFix"/>
<feColorMatrix in="SourceAlpha" type="matrix" values="0 0 0 0 0 0 0 0 0 0 0 0 0 0 0 0 0 0 127 0" result="hardAlpha"/>
<feOffset dy="4"/>
<feGaussianBlur stdDeviation="2"/>
<feComposite in2="hardAlpha" operator="out"/>
<feColorMatrix type="matrix" values="0 0 0 0 0 0 0 0 0 0 0 0 0 0 0 0 0 0 0.25 0"/>
<feBlend mode="normal" in2="BackgroundImageFix" result="effect1_dropShadow_430_373"/>
<feBlend mode="normal" in="SourceGraphic" in2="effect1_dropShadow_430_373" result="shape"/>
<feColorMatrix in="SourceAlpha" type="matrix" values="0 0 0 0 0 0 0 0 0 0 0 0 0 0 0 0 0 0 127 0" result="hardAlpha"/>
<feOffset dy="4"/>
<feGaussianBlur stdDeviation="4"/>
<feComposite in2="hardAlpha" operator="arithmetic" k2="-1" k3="1"/>
<feColorMatrix type="matrix" values="0 0 0 0 0 0 0 0 0 0 0 0 0 0 0 0 0 0 0.8 0"/>
<feBlend mode="normal" in2="shape" result="effect2_innerShadow_430_373"/>
</filter>
<filter id="filter7_di_430_373" x="0.30957" y="57.8794" width="37.3613" height="29.9009" filterUnits="userSpaceOnUse" color-interpolation-filters="sRGB">
<feFlood flood-opacity="0" result="BackgroundImageFix"/>
<feColorMatrix in="SourceAlpha" type="matrix" values="0 0 0 0 0 0 0 0 0 0 0 0 0 0 0 0 0 0 127 0" result="hardAlpha"/>
<feOffset dy="4"/>
<feGaussianBlur stdDeviation="2"/>
<feComposite in2="hardAlpha" operator="out"/>
<feColorMatrix type="matrix" values="0 0 0 0 0 0 0 0 0 0 0 0 0 0 0 0 0 0 0.25 0"/>
<feBlend mode="normal" in2="BackgroundImageFix" result="effect1_dropShadow_430_373"/>
<feBlend mode="normal" in="SourceGraphic" in2="effect1_dropShadow_430_373" result="shape"/>
<feColorMatrix in="SourceAlpha" type="matrix" values="0 0 0 0 0 0 0 0 0 0 0 0 0 0 0 0 0 0 127 0" result="hardAlpha"/>
<feOffset dy="4"/>
<feGaussianBlur stdDeviation="4"/>
<feComposite in2="hardAlpha" operator="arithmetic" k2="-1" k3="1"/>
<feColorMatrix type="matrix" values="0 0 0 0 0 0 0 0 0 0 0 0 0 0 0 0 0 0 0.8 0"/>
<feBlend mode="normal" in2="shape" result="effect2_innerShadow_430_373"/>
</filter>
<filter id="filter8_di_430_373" x="32.8965" y="53.6606" width="34.2451" height="34.3184" filterUnits="userSpaceOnUse" color-interpolation-filters="sRGB">
<feFlood flood-opacity="0" result="BackgroundImageFix"/>
<feColorMatrix in="SourceAlpha" type="matrix" values="0 0 0 0 0 0 0 0 0 0 0 0 0 0 0 0 0 0 127 0" result="hardAlpha"/>
<feOffset dy="4"/>
<feGaussianBlur stdDeviation="2"/>
<feComposite in2="hardAlpha" operator="out"/>
<feColorMatrix type="matrix" values="0 0 0 0 0 0 0 0 0 0 0 0 0 0 0 0 0 0 0.25 0"/>
<feBlend mode="normal" in2="BackgroundImageFix" result="effect1_dropShadow_430_373"/>
<feBlend mode="normal" in="SourceGraphic" in2="effect1_dropShadow_430_373" result="shape"/>
<feColorMatrix in="SourceAlpha" type="matrix" values="0 0 0 0 0 0 0 0 0 0 0 0 0 0 0 0 0 0 127 0" result="hardAlpha"/>
<feOffset dy="4"/>
<feGaussianBlur stdDeviation="4"/>
<feComposite in2="hardAlpha" operator="arithmetic" k2="-1" k3="1"/>
<feColorMatrix type="matrix" values="0 0 0 0 0 0 0 0 0 0 0 0 0 0 0 0 0 0 0.8 0"/>
<feBlend mode="normal" in2="shape" result="effect2_innerShadow_430_373"/>
</filter>
</defs>
</svg>
