<svg width="200" height="76" viewBox="0 0 200 76" fill="none" xmlns="http://www.w3.org/2000/svg">
<path d="M13.66 61C13.46 61 13.28 60.94 13.12 60.82C13 60.66 12.94 60.48 12.94 60.28V19.72C12.94 19.52 13 19.36 13.12 19.24C13.28 19.08 13.46 19 13.66 19H22.18C22.38 19 22.54 19.08 22.66 19.24C22.82 19.36 22.9 19.52 22.9 19.72V52.18C22.9 52.38 23 52.48 23.2 52.48H42.34C42.54 52.48 42.7 52.56 42.82 52.72C42.98 52.84 43.06 53 43.06 53.2V60.28C43.06 60.48 42.98 60.66 42.82 60.82C42.7 60.94 42.54 61 42.34 61H13.66ZM77.1545 26.8C77.1545 27 77.0745 27.18 76.9145 27.34C76.7945 27.46 76.6345 27.52 76.4345 27.52H57.5945C57.3945 27.52 57.2945 27.62 57.2945 27.82V35.2C57.2945 35.4 57.3945 35.5 57.5945 35.5H69.6545C69.8545 35.5 70.0145 35.58 70.1345 35.74C70.2945 35.86 70.3745 36.02 70.3745 36.22V43.24C70.3745 43.44 70.2945 43.62 70.1345 43.78C70.0145 43.9 69.8545 43.96 69.6545 43.96H57.5945C57.3945 43.96 57.2945 44.06 57.2945 44.26V52.18C57.2945 52.38 57.3945 52.48 57.5945 52.48H76.4345C76.6345 52.48 76.7945 52.56 76.9145 52.72C77.0745 52.84 77.1545 53 77.1545 53.2V60.28C77.1545 60.48 77.0745 60.66 76.9145 60.82C76.7945 60.94 76.6345 61 76.4345 61H48.0545C47.8545 61 47.6745 60.94 47.5145 60.82C47.3945 60.66 47.3345 60.48 47.3345 60.28V19.72C47.3345 19.52 47.3945 19.36 47.5145 19.24C47.6745 19.08 47.8545 19 48.0545 19H76.4345C76.6345 19 76.7945 19.08 76.9145 19.24C77.0745 19.36 77.1545 19.52 77.1545 19.72V26.8ZM109.383 61C108.943 61 108.663 60.8 108.543 60.4L106.983 55.06C106.903 54.9 106.803 54.82 106.683 54.82H93.0034C92.8834 54.82 92.7834 54.9 92.7034 55.06L91.1434 60.4C91.0234 60.8 90.7434 61 90.3034 61H81.1234C80.8834 61 80.7034 60.94 80.5834 60.82C80.4634 60.66 80.4434 60.44 80.5234 60.16L93.3634 19.6C93.4834 19.2 93.7434 19 94.1434 19H105.483C105.883 19 106.143 19.2 106.263 19.6L119.163 60.16C119.203 60.24 119.223 60.34 119.223 60.46C119.223 60.82 119.003 61 118.563 61H109.383ZM95.1034 46.78C95.0634 47.02 95.1434 47.14 95.3434 47.14H104.283C104.523 47.14 104.603 47.02 104.523 46.78L99.9634 31.36C99.9234 31.2 99.8634 31.14 99.7834 31.18C99.7034 31.18 99.6434 31.24 99.6034 31.36L95.1034 46.78ZM134.556 61C134.156 61 133.896 60.8 133.776 60.4L121.656 19.84L121.596 19.6C121.596 19.2 121.816 19 122.256 19H131.436C131.876 19 132.156 19.2 132.276 19.6L139.176 46.9C139.216 47.02 139.276 47.08 139.356 47.08C139.436 47.08 139.496 47.02 139.536 46.9L146.316 19.6C146.436 19.2 146.716 19 147.156 19H156.156C156.396 19 156.576 19.08 156.696 19.24C156.816 19.4 156.836 19.6 156.756 19.84L144.456 60.4C144.336 60.8 144.076 61 143.676 61H134.556ZM190.768 26.8C190.768 27 190.688 27.18 190.528 27.34C190.408 27.46 190.248 27.52 190.048 27.52H171.208C171.008 27.52 170.908 27.62 170.908 27.82V35.2C170.908 35.4 171.008 35.5 171.208 35.5H183.268C183.468 35.5 183.628 35.58 183.748 35.74C183.908 35.86 183.988 36.02 183.988 36.22V43.24C183.988 43.44 183.908 43.62 183.748 43.78C183.628 43.9 183.468 43.96 183.268 43.96H171.208C171.008 43.96 170.908 44.06 170.908 44.26V52.18C170.908 52.38 171.008 52.48 171.208 52.48H190.048C190.248 52.48 190.408 52.56 190.528 52.72C190.688 52.84 190.768 53 190.768 53.2V60.28C190.768 60.48 190.688 60.66 190.528 60.82C190.408 60.94 190.248 61 190.048 61H161.668C161.468 61 161.288 60.94 161.128 60.82C161.008 60.66 160.948 60.48 160.948 60.28V19.72C160.948 19.52 161.008 19.36 161.128 19.24C161.288 19.08 161.468 19 161.668 19H190.048C190.248 19 190.408 19.08 190.528 19.24C190.688 19.36 190.768 19.52 190.768 19.72V26.8Z" fill="black"/>
<path d="M25 73H189C193.418 73 197 69.4183 197 65V14.5" stroke="black" stroke-width="5" stroke-linecap="round"/>
<path d="M3 47.5V11C3 6.58172 6.58172 3 11 3H68.5" stroke="black" stroke-width="5" stroke-linecap="round"/>
</svg>
