<svg width="301" height="138" viewBox="0 0 301 138" fill="none" xmlns="http://www.w3.org/2000/svg">
<g filter="url(#filter0_i_432_491)">
<path d="M292.5 88L228.5 111L230 86L292.5 88Z" fill="#DBEEEC"/>
</g>
<path d="M292.5 88L228.5 111L230 86L292.5 88Z" stroke="black" stroke-width="2" stroke-linecap="round"/>
<g filter="url(#filter1_i_432_491)">
<path d="M296 42C275 42.6667 232.5 44.1 230.5 44.5V27L298.5 38L296 42Z" fill="#DBEEEC"/>
</g>
<path d="M296 42C275 42.6667 232.5 44.1 230.5 44.5V27L298.5 38L296 42Z" stroke="black" stroke-width="2" stroke-linecap="round"/>
<g filter="url(#filter2_di_432_491)">
<path d="M288 50.5C275.5 53.6667 249.1 61.1 247.5 61.5L230 45L288 50.5Z" fill="#9ABEBA"/>
<path d="M288 50.5C275.5 53.6667 249.1 61.1 247.5 61.5L230 45L288 50.5Z" stroke="black" stroke-width="2" stroke-linecap="round"/>
</g>
<g filter="url(#filter3_di_432_491)">
<path d="M278.5 75L235 85.5H229.5L231.5 62.5L278.5 75Z" fill="#9ABEBA"/>
<path d="M278.5 75L235 85.5H229.5L231.5 62.5L278.5 75Z" stroke="black" stroke-width="2" stroke-linecap="round"/>
</g>
<g filter="url(#filter4_i_432_491)">
<path d="M255 123L246.5 106L230 112.5C230 112.5 236.854 113.51 241 115C246.926 117.13 255 123 255 123Z" fill="#9ABEBA"/>
</g>
<path d="M255 123L246.5 106L230 112.5C230 112.5 236.854 113.51 241 115C246.926 117.13 255 123 255 123Z" stroke="black" stroke-width="2" stroke-linecap="round"/>
<path d="M160.5 45V48H167.5V45H160.5Z" fill="#B3B2B2" stroke="black" stroke-width="2" stroke-linecap="round"/>
<path d="M161 87V90H168V87H161Z" fill="#B3B2B2" stroke="black" stroke-width="2" stroke-linecap="round"/>
<g filter="url(#filter5_i_432_491)">
<path d="M19.5 88.5L2 100.5V36L19.5 45.5V88.5Z" fill="#C2BABA"/>
</g>
<path d="M19.5 88.5L2 100.5V36L19.5 45.5V88.5Z" stroke="black" stroke-width="3" stroke-linecap="round"/>
<path d="M18 79.499L13.5 81.5C13.5 81.5 15 80.5 16.5 78.999C18 77.498 17.7843 69.6405 16.5 68.999C15.2157 68.3575 11.5 67.999 11.5 67.999H18V79.499Z" fill="#E7E7E7" stroke="#E7E7E7" stroke-width="0.1" stroke-linecap="round"/>
<path d="M3 49C3 49 7.61967 49.3406 10.5 50C13.5095 50.689 18 52.5 18 52.5" stroke="black" stroke-width="2" stroke-linecap="round"/>
<path d="M3 67H17.5" stroke="black" stroke-width="2" stroke-linecap="round"/>
<path d="M3 86L11.5714 83.6923L19 80" stroke="black" stroke-width="2" stroke-linecap="round"/>
<g filter="url(#filter6_i_432_491)">
<path d="M158 51.5H19.5V84.5H158V51.5Z" fill="#81552B"/>
</g>
<path d="M158 51.5H19.5V84.5H158V51.5Z" stroke="black" stroke-width="3" stroke-linecap="round"/>
<g filter="url(#filter7_d_432_491)">
<path d="M89 68.6419C93.338 65.926 103.543 73.3474 113.169 72.9873C121.145 72.6889 126.183 65.926 133 68.6419" stroke="black" stroke-width="3" stroke-linecap="round"/>
</g>
<g filter="url(#filter8_d_432_491)">
<path d="M25 57.706C33.1715 55.1176 38.5 60.7061 47 57.706" stroke="black" stroke-width="3" stroke-linecap="round"/>
</g>
<g filter="url(#filter9_i_432_491)">
<path d="M177 84.5H172.5V51.5H177V84.5Z" fill="#624021"/>
</g>
<path d="M177 84.5H172.5V51.5H177V84.5Z" stroke="black" stroke-width="3" stroke-linecap="round"/>
<g filter="url(#filter10_i_432_491)">
<path d="M176.997 92C176.998 90 176.997 56 176.997 46C176.997 41.0218 188.497 40.5 188.497 40.5V97C188.497 97 176.994 96.8971 176.997 92Z" fill="#664322"/>
</g>
<path d="M176.997 92C176.998 90 176.997 56 176.997 46C176.997 41.0218 188.497 40.5 188.497 40.5V97C188.497 97 176.994 96.8971 176.997 92Z" stroke="black" stroke-width="3" stroke-linecap="round"/>
<g filter="url(#filter11_i_432_491)">
<path d="M198.996 33.5C198.996 33.5 190.493 34 189.496 36.5C188.5 39 187.996 99.5 189.496 101C190.996 102.5 198.996 104 198.996 104V33.5Z" fill="#664322"/>
</g>
<path d="M198.996 33.5C198.996 33.5 190.493 34 189.496 36.5C188.5 39 187.996 99.5 189.496 101C190.996 102.5 198.996 104 198.996 104V33.5Z" stroke="black" stroke-width="3" stroke-linecap="round"/>
<g filter="url(#filter12_i_432_491)">
<path d="M201.001 111.999C197.004 110.497 197.503 27.9973 201.001 24.9987C204.499 22.0001 229.001 24.9987 229.001 24.9987L227.036 111.999C227.036 111.999 204.999 113.5 201.001 111.999Z" fill="#81552B"/>
</g>
<path d="M201.001 111.999C197.004 110.497 197.503 27.9973 201.001 24.9987C204.499 22.0001 229.001 24.9987 229.001 24.9987L227.036 111.999C227.036 111.999 204.999 113.5 201.001 111.999Z" stroke="black" stroke-width="3" stroke-linecap="round"/>
<g filter="url(#filter13_di_432_491)">
<path d="M169.5 86.5H160V49H169.5V86.5Z" fill="#B3B2B2"/>
<path d="M169.5 86.5H160V49H169.5V86.5Z" stroke="black" stroke-width="3" stroke-linecap="round"/>
</g>
<g filter="url(#filter14_i_432_491)">
<path d="M220.999 12.4999C218.263 18.3338 220.999 28.9999 220.999 28.9999C220.999 28.9999 218.081 32.3789 215.499 32.9999C212.135 33.8089 206.999 30.4999 206.999 30.4999L206 23.5C206 23.5 204.927 11.5436 208.999 5.9999C214.739 -1.81316 233.499 1.9999 233.499 1.9999C233.499 1.9999 223.706 6.72797 220.999 12.4999Z" fill="#9ABEBA"/>
</g>
<path d="M220.999 12.4999C218.263 18.3338 220.999 28.9999 220.999 28.9999C220.999 28.9999 218.081 32.3789 215.499 32.9999C212.135 33.8089 206.999 30.4999 206.999 30.4999L206 23.5C206 23.5 204.927 11.5436 208.999 5.9999C214.739 -1.81316 233.499 1.9999 233.499 1.9999C233.499 1.9999 223.706 6.72797 220.999 12.4999Z" stroke="black" stroke-width="2" stroke-linecap="round"/>
<g filter="url(#filter15_i_432_491)">
<path d="M221.127 124.627C218.391 118.793 221.127 108.127 221.127 108.127C221.127 108.127 218.209 104.748 215.627 104.127C212.263 103.318 207.127 106.627 207.127 106.627L206.128 113.627C206.128 113.627 205.055 125.584 209.127 131.127C214.866 138.94 233.627 135.127 233.627 135.127C233.627 135.127 223.834 130.399 221.127 124.627Z" fill="#9ABEBA"/>
</g>
<path d="M221.127 124.627C218.391 118.793 221.127 108.127 221.127 108.127C221.127 108.127 218.209 104.748 215.627 104.127C212.263 103.318 207.127 106.627 207.127 106.627L206.128 113.627C206.128 113.627 205.055 125.584 209.127 131.127C214.866 138.94 233.627 135.127 233.627 135.127C233.627 135.127 223.834 130.399 221.127 124.627Z" stroke="black" stroke-width="2" stroke-linecap="round"/>
<g filter="url(#filter16_di_432_491)">
<path d="M223.5 55.003H210.5C210.5 55.003 218.49 53.3409 215 52.5006C209.685 51.2207 193 52.5006 193 52.5006L206 46.5C206 46.5 216.811 47.9063 219.5 47.5C225.99 46.5195 223.5 55.003 223.5 55.003Z" fill="#B9ECE6"/>
<path d="M223.5 55.003H210.5C210.5 55.003 218.49 53.3409 215 52.5006C209.685 51.2207 193 52.5006 193 52.5006L206 46.5C206 46.5 216.811 47.9063 219.5 47.5C225.99 46.5195 223.5 55.003 223.5 55.003Z" stroke="black" stroke-width="2" stroke-linecap="round"/>
</g>
<g filter="url(#filter17_di_432_491)">
<path d="M223.5 89.9999H210.5C210.5 89.9999 218.49 91.662 215 92.5024C209.685 93.7823 193 92.5024 193 92.5024L206 98.5029C206 98.5029 216.811 97.0966 219.5 97.5029C225.99 98.4834 223.5 89.9999 223.5 89.9999Z" fill="#B9ECE6"/>
<path d="M223.5 89.9999H210.5C210.5 89.9999 218.49 91.662 215 92.5024C209.685 93.7823 193 92.5024 193 92.5024L206 98.5029C206 98.5029 216.811 97.0966 219.5 97.5029C225.99 98.4834 223.5 89.9999 223.5 89.9999Z" stroke="black" stroke-width="2" stroke-linecap="round"/>
</g>
<g filter="url(#filter18_d_432_491)">
<path d="M21 69.5H72" stroke="black" stroke-width="2" stroke-linecap="round"/>
</g>
<g filter="url(#filter19_d_432_491)">
<path d="M83 58H134" stroke="black" stroke-width="3" stroke-linecap="round"/>
</g>
<g filter="url(#filter20_d_432_491)">
<path d="M179 57H184" stroke="black" stroke-width="3" stroke-linecap="round"/>
</g>
<g filter="url(#filter21_d_432_491)">
<path d="M200 61H205" stroke="black" stroke-width="3" stroke-linecap="round"/>
</g>
<g filter="url(#filter22_d_432_491)">
<path d="M183 84H188" stroke="black" stroke-width="3" stroke-linecap="round"/>
</g>
<g filter="url(#filter23_d_432_491)">
<path d="M183 84H188" stroke="black" stroke-width="3" stroke-linecap="round"/>
</g>
<g filter="url(#filter24_d_432_491)">
<path d="M189 79H196" stroke="black" stroke-width="2" stroke-linecap="round"/>
</g>
<path d="M208.533 82.4995L198.098 85.2562L199 81.2329L208.533 82.4995Z" fill="#161515" stroke="black" stroke-width="2" stroke-linecap="round"/>
<path d="M218.26 38.5802L228.443 35.0001L227.865 39.0825L218.26 38.5802Z" fill="#161515" stroke="black" stroke-width="2" stroke-linecap="round"/>
<g filter="url(#filter25_d_432_491)">
<path d="M46 63H160" stroke="black" stroke-width="2" stroke-linecap="round"/>
</g>
<g filter="url(#filter26_d_432_491)">
<path d="M46 77H160" stroke="black" stroke-width="3" stroke-linecap="round"/>
</g>
<path d="M287 89L229.5 109.5L230 104.5L287 89Z" fill="white" stroke="white" stroke-width="0.5" stroke-linecap="round"/>
<path d="M232 43L295 40.6923L232 37V43Z" fill="white" stroke="white" stroke-width="0.5" stroke-linecap="round"/>
<g filter="url(#filter27_i_432_491)">
<path d="M269.5 83.5L230.5 48V67L269.5 83.5Z" fill="#DBEEEC"/>
</g>
<path d="M269.5 83.5L230.5 48V67L269.5 83.5Z" stroke="black" stroke-width="2" stroke-linecap="round"/>
<path d="M264 80L232 51V53.9492L264 80Z" fill="white" stroke="white" stroke-width="0.01" stroke-linecap="round"/>
<g filter="url(#filter28_di_432_491)">
<path d="M228.5 73.5H207V68.5H249.5V70.5C249.5 70.5 236.896 73.5 228.5 73.5Z" fill="#B9ECE6"/>
<path d="M228.5 73.5H207V68.5H249.5V70.5C249.5 70.5 236.896 73.5 228.5 73.5Z" stroke="black" stroke-width="2" stroke-linecap="round"/>
</g>
<g filter="url(#filter29_di_432_491)">
<path d="M167.5 61L170 64.3654V70.6154L166.5 73.5H162L159 70.6154V64.3654L162 61H167.5Z" fill="#D9D9D9"/>
<path d="M167.5 61L170 64.3654V70.6154L166.5 73.5H162L159 70.6154V64.3654L162 61H167.5Z" stroke="black" stroke-width="2" stroke-linecap="round"/>
</g>
<g filter="url(#filter30_d_432_491)">
<ellipse cx="164.5" cy="67.2501" rx="3" ry="2.88462" fill="#3B3A3A"/>
<path d="M167 67.2501C167 68.5488 165.899 69.6347 164.5 69.6347C163.101 69.6347 162 68.5488 162 67.2501C162 65.9514 163.101 64.8655 164.5 64.8655C165.899 64.8655 167 65.9514 167 67.2501Z" stroke="black"/>
</g>
<path d="M8.5 48.5C8.5 48.5 9.6885 48.7053 10.993 48.9929C13.2245 49.4302 16.1918 50 16.5 50C17.6716 50 17.1049 48.0033 16.5 47C15.3446 45.0838 10.5 42.5 10.5 42.5L18 46.5V51.5C18 51.5 15.0132 50.108 13 49.5C12.4041 49.32 11.6824 49.145 10.993 48.9929C9.60393 48.7208 8.5 48.5 8.5 48.5Z" fill="#E7E7E7"/>
<path d="M8.5 48.5C8.5 48.5 11.2766 48.9795 13 49.5C15.0132 50.108 18 51.5 18 51.5V46.5L10.5 42.5C10.5 42.5 15.3446 45.0838 16.5 47C17.1049 48.0033 17.6716 50 16.5 50C16 50 8.5 48.5 8.5 48.5Z" stroke="#E7E7E7" stroke-width="0.1" stroke-linecap="round"/>
<path d="M11.5385 65.999H11.9764C13.2489 65.9882 16.8597 65.8773 16.9231 64.9646C17 63.8563 16.9231 53.586 16.9231 53.586L11 51L14.5 52.0344L18 53.0688V65.999H11.9764C11.7038 66.0013 11.5385 65.999 11.5385 65.999Z" fill="#E7E7E7"/>
<path d="M11.5385 65.999H18V53.0688L14.5 52.0344L11 51L16.9231 53.586C16.9231 53.586 17 63.8563 16.9231 64.9646C16.8462 66.0729 11.5385 65.999 11.5385 65.999Z" stroke="#E7E7E7" stroke-width="0.1" stroke-linecap="round"/>
<path d="M18 88L14 90.5C14 90.5 16.5 88 17 87C17.5 86 17 83 16.5 83C16 83 12 84.5 12 84.5L18 81.5V88Z" fill="#E3E3E3" stroke="#E7E7E7" stroke-width="0.1" stroke-linecap="round"/>
<defs>
<filter id="filter0_i_432_491" x="227.411" y="84.9695" width="65.4268" height="31.4846" filterUnits="userSpaceOnUse" color-interpolation-filters="sRGB">
<feFlood flood-opacity="0" result="BackgroundImageFix"/>
<feBlend mode="normal" in="SourceGraphic" in2="BackgroundImageFix" result="shape"/>
<feColorMatrix in="SourceAlpha" type="matrix" values="0 0 0 0 0 0 0 0 0 0 0 0 0 0 0 0 0 0 127 0" result="hardAlpha"/>
<feOffset dy="4"/>
<feGaussianBlur stdDeviation="2"/>
<feComposite in2="hardAlpha" operator="arithmetic" k2="-1" k3="1"/>
<feColorMatrix type="matrix" values="0 0 0 0 0 0 0 0 0 0 0 0 0 0 0 0 0 0 0.25 0"/>
<feBlend mode="normal" in2="shape" result="effect1_innerShadow_432_491"/>
</filter>
<filter id="filter1_i_432_491" x="229.5" y="25.8252" width="70.6455" height="23.8945" filterUnits="userSpaceOnUse" color-interpolation-filters="sRGB">
<feFlood flood-opacity="0" result="BackgroundImageFix"/>
<feBlend mode="normal" in="SourceGraphic" in2="BackgroundImageFix" result="shape"/>
<feColorMatrix in="SourceAlpha" type="matrix" values="0 0 0 0 0 0 0 0 0 0 0 0 0 0 0 0 0 0 127 0" result="hardAlpha"/>
<feOffset dy="4"/>
<feGaussianBlur stdDeviation="2"/>
<feComposite in2="hardAlpha" operator="arithmetic" k2="-1" k3="1"/>
<feColorMatrix type="matrix" values="0 0 0 0 0 0 0 0 0 0 0 0 0 0 0 0 0 0 0.25 0"/>
<feBlend mode="normal" in2="shape" result="effect1_innerShadow_432_491"/>
</filter>
<filter id="filter2_di_432_491" x="223.194" y="43.7295" width="69.0508" height="26.8733" filterUnits="userSpaceOnUse" color-interpolation-filters="sRGB">
<feFlood flood-opacity="0" result="BackgroundImageFix"/>
<feColorMatrix in="SourceAlpha" type="matrix" values="0 0 0 0 0 0 0 0 0 0 0 0 0 0 0 0 0 0 127 0" result="hardAlpha"/>
<feOffset dy="4"/>
<feGaussianBlur stdDeviation="2"/>
<feComposite in2="hardAlpha" operator="out"/>
<feColorMatrix type="matrix" values="0 0 0 0 0 0 0 0 0 0 0 0 0 0 0 0 0 0 0.25 0"/>
<feBlend mode="normal" in2="BackgroundImageFix" result="effect1_dropShadow_432_491"/>
<feBlend mode="normal" in="SourceGraphic" in2="effect1_dropShadow_432_491" result="shape"/>
<feColorMatrix in="SourceAlpha" type="matrix" values="0 0 0 0 0 0 0 0 0 0 0 0 0 0 0 0 0 0 127 0" result="hardAlpha"/>
<feOffset dy="4"/>
<feGaussianBlur stdDeviation="4"/>
<feComposite in2="hardAlpha" operator="arithmetic" k2="-1" k3="1"/>
<feColorMatrix type="matrix" values="0 0 0 0 0 0 0 0 0 0 0 0 0 0 0 0 0 0 0.8 0"/>
<feBlend mode="normal" in2="shape" result="effect2_innerShadow_432_491"/>
</filter>
<filter id="filter3_di_432_491" x="224.409" y="61.2278" width="58.3477" height="33.2722" filterUnits="userSpaceOnUse" color-interpolation-filters="sRGB">
<feFlood flood-opacity="0" result="BackgroundImageFix"/>
<feColorMatrix in="SourceAlpha" type="matrix" values="0 0 0 0 0 0 0 0 0 0 0 0 0 0 0 0 0 0 127 0" result="hardAlpha"/>
<feOffset dy="4"/>
<feGaussianBlur stdDeviation="2"/>
<feComposite in2="hardAlpha" operator="out"/>
<feColorMatrix type="matrix" values="0 0 0 0 0 0 0 0 0 0 0 0 0 0 0 0 0 0 0.25 0"/>
<feBlend mode="normal" in2="BackgroundImageFix" result="effect1_dropShadow_432_491"/>
<feBlend mode="normal" in="SourceGraphic" in2="effect1_dropShadow_432_491" result="shape"/>
<feColorMatrix in="SourceAlpha" type="matrix" values="0 0 0 0 0 0 0 0 0 0 0 0 0 0 0 0 0 0 127 0" result="hardAlpha"/>
<feOffset dy="4"/>
<feGaussianBlur stdDeviation="3"/>
<feComposite in2="hardAlpha" operator="arithmetic" k2="-1" k3="1"/>
<feColorMatrix type="matrix" values="0 0 0 0 0 0 0 0 0 0 0 0 0 0 0 0 0 0 0.8 0"/>
<feBlend mode="normal" in2="shape" result="effect2_innerShadow_432_491"/>
</filter>
<filter id="filter4_i_432_491" x="226.147" y="104.734" width="29.7471" height="23.0747" filterUnits="userSpaceOnUse" color-interpolation-filters="sRGB">
<feFlood flood-opacity="0" result="BackgroundImageFix"/>
<feBlend mode="normal" in="SourceGraphic" in2="BackgroundImageFix" result="shape"/>
<feColorMatrix in="SourceAlpha" type="matrix" values="0 0 0 0 0 0 0 0 0 0 0 0 0 0 0 0 0 0 127 0" result="hardAlpha"/>
<feOffset dy="4"/>
<feGaussianBlur stdDeviation="3"/>
<feComposite in2="hardAlpha" operator="arithmetic" k2="-1" k3="1"/>
<feColorMatrix type="matrix" values="0 0 0 0 0 0 0 0 0 0 0 0 0 0 0 0 0 0 0.6 0"/>
<feBlend mode="normal" in2="shape" result="effect1_innerShadow_432_491"/>
</filter>
<filter id="filter5_i_432_491" x="0.5" y="33.479" width="20.5" height="73.8684" filterUnits="userSpaceOnUse" color-interpolation-filters="sRGB">
<feFlood flood-opacity="0" result="BackgroundImageFix"/>
<feBlend mode="normal" in="SourceGraphic" in2="BackgroundImageFix" result="shape"/>
<feColorMatrix in="SourceAlpha" type="matrix" values="0 0 0 0 0 0 0 0 0 0 0 0 0 0 0 0 0 0 127 0" result="hardAlpha"/>
<feOffset dy="4"/>
<feGaussianBlur stdDeviation="3.5"/>
<feComposite in2="hardAlpha" operator="arithmetic" k2="-1" k3="1"/>
<feColorMatrix type="matrix" values="0 0 0 0 0 0 0 0 0 0 0 0 0 0 0 0 0 0 0.7 0"/>
<feBlend mode="normal" in2="shape" result="effect1_innerShadow_432_491"/>
</filter>
<filter id="filter6_i_432_491" x="18" y="50" width="141.5" height="40" filterUnits="userSpaceOnUse" color-interpolation-filters="sRGB">
<feFlood flood-opacity="0" result="BackgroundImageFix"/>
<feBlend mode="normal" in="SourceGraphic" in2="BackgroundImageFix" result="shape"/>
<feColorMatrix in="SourceAlpha" type="matrix" values="0 0 0 0 0 0 0 0 0 0 0 0 0 0 0 0 0 0 127 0" result="hardAlpha"/>
<feOffset dy="4"/>
<feGaussianBlur stdDeviation="4"/>
<feComposite in2="hardAlpha" operator="arithmetic" k2="-1" k3="1"/>
<feColorMatrix type="matrix" values="0 0 0 0 0 0 0 0 0 0 0 0 0 0 0 0 0 0 0.8 0"/>
<feBlend mode="normal" in2="shape" result="effect1_innerShadow_432_491"/>
</filter>
<filter id="filter7_d_432_491" x="79.5" y="62.5" width="63" height="23.9998" filterUnits="userSpaceOnUse" color-interpolation-filters="sRGB">
<feFlood flood-opacity="0" result="BackgroundImageFix"/>
<feColorMatrix in="SourceAlpha" type="matrix" values="0 0 0 0 0 0 0 0 0 0 0 0 0 0 0 0 0 0 127 0" result="hardAlpha"/>
<feOffset dy="4"/>
<feGaussianBlur stdDeviation="4"/>
<feComposite in2="hardAlpha" operator="out"/>
<feColorMatrix type="matrix" values="0 0 0 0 0 0 0 0 0 0 0 0 0 0 0 0 0 0 0.8 0"/>
<feBlend mode="normal" in2="BackgroundImageFix" result="effect1_dropShadow_432_491"/>
<feBlend mode="normal" in="SourceGraphic" in2="effect1_dropShadow_432_491" result="shape"/>
</filter>
<filter id="filter8_d_432_491" x="15.5" y="51.5007" width="41" height="20.6167" filterUnits="userSpaceOnUse" color-interpolation-filters="sRGB">
<feFlood flood-opacity="0" result="BackgroundImageFix"/>
<feColorMatrix in="SourceAlpha" type="matrix" values="0 0 0 0 0 0 0 0 0 0 0 0 0 0 0 0 0 0 127 0" result="hardAlpha"/>
<feOffset dy="4"/>
<feGaussianBlur stdDeviation="4"/>
<feComposite in2="hardAlpha" operator="out"/>
<feColorMatrix type="matrix" values="0 0 0 0 0 0 0 0 0 0 0 0 0 0 0 0 0 0 0.8 0"/>
<feBlend mode="normal" in2="BackgroundImageFix" result="effect1_dropShadow_432_491"/>
<feBlend mode="normal" in="SourceGraphic" in2="effect1_dropShadow_432_491" result="shape"/>
</filter>
<filter id="filter9_i_432_491" x="171" y="50" width="7.5" height="40" filterUnits="userSpaceOnUse" color-interpolation-filters="sRGB">
<feFlood flood-opacity="0" result="BackgroundImageFix"/>
<feBlend mode="normal" in="SourceGraphic" in2="BackgroundImageFix" result="shape"/>
<feColorMatrix in="SourceAlpha" type="matrix" values="0 0 0 0 0 0 0 0 0 0 0 0 0 0 0 0 0 0 127 0" result="hardAlpha"/>
<feOffset dy="4"/>
<feGaussianBlur stdDeviation="4"/>
<feComposite in2="hardAlpha" operator="arithmetic" k2="-1" k3="1"/>
<feColorMatrix type="matrix" values="0 0 0 0 0 0 0 0 0 0 0 0 0 0 0 0 0 0 0.8 0"/>
<feBlend mode="normal" in2="shape" result="effect1_innerShadow_432_491"/>
</filter>
<filter id="filter10_i_432_491" x="175.497" y="38.9304" width="14.5" height="63.583" filterUnits="userSpaceOnUse" color-interpolation-filters="sRGB">
<feFlood flood-opacity="0" result="BackgroundImageFix"/>
<feBlend mode="normal" in="SourceGraphic" in2="BackgroundImageFix" result="shape"/>
<feColorMatrix in="SourceAlpha" type="matrix" values="0 0 0 0 0 0 0 0 0 0 0 0 0 0 0 0 0 0 127 0" result="hardAlpha"/>
<feOffset dy="4"/>
<feGaussianBlur stdDeviation="4"/>
<feComposite in2="hardAlpha" operator="arithmetic" k2="-1" k3="1"/>
<feColorMatrix type="matrix" values="0 0 0 0 0 0 0 0 0 0 0 0 0 0 0 0 0 0 0.8 0"/>
<feBlend mode="normal" in2="shape" result="effect1_innerShadow_432_491"/>
</filter>
<filter id="filter11_i_432_491" x="187.051" y="31.9092" width="13.4453" height="77.8982" filterUnits="userSpaceOnUse" color-interpolation-filters="sRGB">
<feFlood flood-opacity="0" result="BackgroundImageFix"/>
<feBlend mode="normal" in="SourceGraphic" in2="BackgroundImageFix" result="shape"/>
<feColorMatrix in="SourceAlpha" type="matrix" values="0 0 0 0 0 0 0 0 0 0 0 0 0 0 0 0 0 0 127 0" result="hardAlpha"/>
<feOffset dy="4"/>
<feGaussianBlur stdDeviation="4"/>
<feComposite in2="hardAlpha" operator="arithmetic" k2="-1" k3="1"/>
<feColorMatrix type="matrix" values="0 0 0 0 0 0 0 0 0 0 0 0 0 0 0 0 0 0 0.8 0"/>
<feBlend mode="normal" in2="shape" result="effect1_innerShadow_432_491"/>
</filter>
<filter id="filter12_i_432_491" x="196.688" y="22.166" width="33.8438" height="96" filterUnits="userSpaceOnUse" color-interpolation-filters="sRGB">
<feFlood flood-opacity="0" result="BackgroundImageFix"/>
<feBlend mode="normal" in="SourceGraphic" in2="BackgroundImageFix" result="shape"/>
<feColorMatrix in="SourceAlpha" type="matrix" values="0 0 0 0 0 0 0 0 0 0 0 0 0 0 0 0 0 0 127 0" result="hardAlpha"/>
<feOffset dy="4"/>
<feGaussianBlur stdDeviation="4"/>
<feComposite in2="hardAlpha" operator="arithmetic" k2="-1" k3="1"/>
<feColorMatrix type="matrix" values="0 0 0 0 0 0 0 0 0 0 0 0 0 0 0 0 0 0 0.8 0"/>
<feBlend mode="normal" in2="shape" result="effect1_innerShadow_432_491"/>
</filter>
<filter id="filter13_di_432_491" x="154.5" y="47.5" width="20.5" height="48.5" filterUnits="userSpaceOnUse" color-interpolation-filters="sRGB">
<feFlood flood-opacity="0" result="BackgroundImageFix"/>
<feColorMatrix in="SourceAlpha" type="matrix" values="0 0 0 0 0 0 0 0 0 0 0 0 0 0 0 0 0 0 127 0" result="hardAlpha"/>
<feOffset dy="4"/>
<feGaussianBlur stdDeviation="2"/>
<feComposite in2="hardAlpha" operator="out"/>
<feColorMatrix type="matrix" values="0 0 0 0 0 0 0 0 0 0 0 0 0 0 0 0 0 0 0.25 0"/>
<feBlend mode="normal" in2="BackgroundImageFix" result="effect1_dropShadow_432_491"/>
<feBlend mode="normal" in="SourceGraphic" in2="effect1_dropShadow_432_491" result="shape"/>
<feColorMatrix in="SourceAlpha" type="matrix" values="0 0 0 0 0 0 0 0 0 0 0 0 0 0 0 0 0 0 127 0" result="hardAlpha"/>
<feOffset dy="4"/>
<feGaussianBlur stdDeviation="3"/>
<feComposite in2="hardAlpha" operator="arithmetic" k2="-1" k3="1"/>
<feColorMatrix type="matrix" values="0 0 0 0 0 0 0 0 0 0 0 0 0 0 0 0 0 0 0.8 0"/>
<feBlend mode="normal" in2="shape" result="effect2_innerShadow_432_491"/>
</filter>
<filter id="filter14_i_432_491" x="204.872" y="0.0695801" width="31.7334" height="38.0574" filterUnits="userSpaceOnUse" color-interpolation-filters="sRGB">
<feFlood flood-opacity="0" result="BackgroundImageFix"/>
<feBlend mode="normal" in="SourceGraphic" in2="BackgroundImageFix" result="shape"/>
<feColorMatrix in="SourceAlpha" type="matrix" values="0 0 0 0 0 0 0 0 0 0 0 0 0 0 0 0 0 0 127 0" result="hardAlpha"/>
<feOffset dy="4"/>
<feGaussianBlur stdDeviation="2"/>
<feComposite in2="hardAlpha" operator="arithmetic" k2="-1" k3="1"/>
<feColorMatrix type="matrix" values="0 0 0 0 0 0 0 0 0 0 0 0 0 0 0 0 0 0 0.8 0"/>
<feBlend mode="normal" in2="shape" result="effect1_innerShadow_432_491"/>
</filter>
<filter id="filter15_i_432_491" x="205" y="103" width="31.7334" height="38.0574" filterUnits="userSpaceOnUse" color-interpolation-filters="sRGB">
<feFlood flood-opacity="0" result="BackgroundImageFix"/>
<feBlend mode="normal" in="SourceGraphic" in2="BackgroundImageFix" result="shape"/>
<feColorMatrix in="SourceAlpha" type="matrix" values="0 0 0 0 0 0 0 0 0 0 0 0 0 0 0 0 0 0 127 0" result="hardAlpha"/>
<feOffset dy="4"/>
<feGaussianBlur stdDeviation="2"/>
<feComposite in2="hardAlpha" operator="arithmetic" k2="-1" k3="1"/>
<feColorMatrix type="matrix" values="0 0 0 0 0 0 0 0 0 0 0 0 0 0 0 0 0 0 0.8 0"/>
<feBlend mode="normal" in2="shape" result="effect1_innerShadow_432_491"/>
</filter>
<filter id="filter16_di_432_491" x="188.581" y="45.4712" width="40.3887" height="18.5317" filterUnits="userSpaceOnUse" color-interpolation-filters="sRGB">
<feFlood flood-opacity="0" result="BackgroundImageFix"/>
<feColorMatrix in="SourceAlpha" type="matrix" values="0 0 0 0 0 0 0 0 0 0 0 0 0 0 0 0 0 0 127 0" result="hardAlpha"/>
<feOffset dy="4"/>
<feGaussianBlur stdDeviation="2"/>
<feComposite in2="hardAlpha" operator="out"/>
<feColorMatrix type="matrix" values="0 0 0 0 0 0 0 0 0 0 0 0 0 0 0 0 0 0 0.25 0"/>
<feBlend mode="normal" in2="BackgroundImageFix" result="effect1_dropShadow_432_491"/>
<feBlend mode="normal" in="SourceGraphic" in2="effect1_dropShadow_432_491" result="shape"/>
<feColorMatrix in="SourceAlpha" type="matrix" values="0 0 0 0 0 0 0 0 0 0 0 0 0 0 0 0 0 0 127 0" result="hardAlpha"/>
<feOffset dy="4"/>
<feGaussianBlur stdDeviation="3"/>
<feComposite in2="hardAlpha" operator="arithmetic" k2="-1" k3="1"/>
<feColorMatrix type="matrix" values="0 0 0 0 0 0 0 0 0 0 0 0 0 0 0 0 0 0 0.8 0"/>
<feBlend mode="normal" in2="shape" result="effect2_innerShadow_432_491"/>
</filter>
<filter id="filter17_di_432_491" x="188.581" y="89" width="40.3887" height="18.5317" filterUnits="userSpaceOnUse" color-interpolation-filters="sRGB">
<feFlood flood-opacity="0" result="BackgroundImageFix"/>
<feColorMatrix in="SourceAlpha" type="matrix" values="0 0 0 0 0 0 0 0 0 0 0 0 0 0 0 0 0 0 127 0" result="hardAlpha"/>
<feOffset dy="4"/>
<feGaussianBlur stdDeviation="2"/>
<feComposite in2="hardAlpha" operator="out"/>
<feColorMatrix type="matrix" values="0 0 0 0 0 0 0 0 0 0 0 0 0 0 0 0 0 0 0.8 0"/>
<feBlend mode="normal" in2="BackgroundImageFix" result="effect1_dropShadow_432_491"/>
<feBlend mode="normal" in="SourceGraphic" in2="effect1_dropShadow_432_491" result="shape"/>
<feColorMatrix in="SourceAlpha" type="matrix" values="0 0 0 0 0 0 0 0 0 0 0 0 0 0 0 0 0 0 127 0" result="hardAlpha"/>
<feOffset dy="4"/>
<feGaussianBlur stdDeviation="3"/>
<feComposite in2="hardAlpha" operator="arithmetic" k2="-1" k3="1"/>
<feColorMatrix type="matrix" values="0 0 0 0 0 0 0 0 0 0 0 0 0 0 0 0 0 0 0.7 0"/>
<feBlend mode="normal" in2="shape" result="effect2_innerShadow_432_491"/>
</filter>
<filter id="filter18_d_432_491" x="12" y="64.5" width="69" height="18" filterUnits="userSpaceOnUse" color-interpolation-filters="sRGB">
<feFlood flood-opacity="0" result="BackgroundImageFix"/>
<feColorMatrix in="SourceAlpha" type="matrix" values="0 0 0 0 0 0 0 0 0 0 0 0 0 0 0 0 0 0 127 0" result="hardAlpha"/>
<feOffset dy="4"/>
<feGaussianBlur stdDeviation="4"/>
<feComposite in2="hardAlpha" operator="out"/>
<feColorMatrix type="matrix" values="0 0 0 0 0 0 0 0 0 0 0 0 0 0 0 0 0 0 0.8 0"/>
<feBlend mode="normal" in2="BackgroundImageFix" result="effect1_dropShadow_432_491"/>
<feBlend mode="normal" in="SourceGraphic" in2="effect1_dropShadow_432_491" result="shape"/>
</filter>
<filter id="filter19_d_432_491" x="73.5" y="52.5" width="70" height="19" filterUnits="userSpaceOnUse" color-interpolation-filters="sRGB">
<feFlood flood-opacity="0" result="BackgroundImageFix"/>
<feColorMatrix in="SourceAlpha" type="matrix" values="0 0 0 0 0 0 0 0 0 0 0 0 0 0 0 0 0 0 127 0" result="hardAlpha"/>
<feOffset dy="4"/>
<feGaussianBlur stdDeviation="4"/>
<feComposite in2="hardAlpha" operator="out"/>
<feColorMatrix type="matrix" values="0 0 0 0 0 0 0 0 0 0 0 0 0 0 0 0 0 0 0.8 0"/>
<feBlend mode="normal" in2="BackgroundImageFix" result="effect1_dropShadow_432_491"/>
<feBlend mode="normal" in="SourceGraphic" in2="effect1_dropShadow_432_491" result="shape"/>
</filter>
<filter id="filter20_d_432_491" x="169.5" y="51.5" width="24" height="19" filterUnits="userSpaceOnUse" color-interpolation-filters="sRGB">
<feFlood flood-opacity="0" result="BackgroundImageFix"/>
<feColorMatrix in="SourceAlpha" type="matrix" values="0 0 0 0 0 0 0 0 0 0 0 0 0 0 0 0 0 0 127 0" result="hardAlpha"/>
<feOffset dy="4"/>
<feGaussianBlur stdDeviation="4"/>
<feComposite in2="hardAlpha" operator="out"/>
<feColorMatrix type="matrix" values="0 0 0 0 0 0 0 0 0 0 0 0 0 0 0 0 0 0 0.8 0"/>
<feBlend mode="normal" in2="BackgroundImageFix" result="effect1_dropShadow_432_491"/>
<feBlend mode="normal" in="SourceGraphic" in2="effect1_dropShadow_432_491" result="shape"/>
</filter>
<filter id="filter21_d_432_491" x="190.5" y="55.5" width="24" height="19" filterUnits="userSpaceOnUse" color-interpolation-filters="sRGB">
<feFlood flood-opacity="0" result="BackgroundImageFix"/>
<feColorMatrix in="SourceAlpha" type="matrix" values="0 0 0 0 0 0 0 0 0 0 0 0 0 0 0 0 0 0 127 0" result="hardAlpha"/>
<feOffset dy="4"/>
<feGaussianBlur stdDeviation="4"/>
<feComposite in2="hardAlpha" operator="out"/>
<feColorMatrix type="matrix" values="0 0 0 0 0 0 0 0 0 0 0 0 0 0 0 0 0 0 0.8 0"/>
<feBlend mode="normal" in2="BackgroundImageFix" result="effect1_dropShadow_432_491"/>
<feBlend mode="normal" in="SourceGraphic" in2="effect1_dropShadow_432_491" result="shape"/>
</filter>
<filter id="filter22_d_432_491" x="173.5" y="78.5" width="24" height="19" filterUnits="userSpaceOnUse" color-interpolation-filters="sRGB">
<feFlood flood-opacity="0" result="BackgroundImageFix"/>
<feColorMatrix in="SourceAlpha" type="matrix" values="0 0 0 0 0 0 0 0 0 0 0 0 0 0 0 0 0 0 127 0" result="hardAlpha"/>
<feOffset dy="4"/>
<feGaussianBlur stdDeviation="4"/>
<feComposite in2="hardAlpha" operator="out"/>
<feColorMatrix type="matrix" values="0 0 0 0 0 0 0 0 0 0 0 0 0 0 0 0 0 0 0.8 0"/>
<feBlend mode="normal" in2="BackgroundImageFix" result="effect1_dropShadow_432_491"/>
<feBlend mode="normal" in="SourceGraphic" in2="effect1_dropShadow_432_491" result="shape"/>
</filter>
<filter id="filter23_d_432_491" x="173.5" y="78.5" width="24" height="19" filterUnits="userSpaceOnUse" color-interpolation-filters="sRGB">
<feFlood flood-opacity="0" result="BackgroundImageFix"/>
<feColorMatrix in="SourceAlpha" type="matrix" values="0 0 0 0 0 0 0 0 0 0 0 0 0 0 0 0 0 0 127 0" result="hardAlpha"/>
<feOffset dy="4"/>
<feGaussianBlur stdDeviation="4"/>
<feComposite in2="hardAlpha" operator="out"/>
<feColorMatrix type="matrix" values="0 0 0 0 0 0 0 0 0 0 0 0 0 0 0 0 0 0 0.8 0"/>
<feBlend mode="normal" in2="BackgroundImageFix" result="effect1_dropShadow_432_491"/>
<feBlend mode="normal" in="SourceGraphic" in2="effect1_dropShadow_432_491" result="shape"/>
</filter>
<filter id="filter24_d_432_491" x="180" y="74" width="25" height="18" filterUnits="userSpaceOnUse" color-interpolation-filters="sRGB">
<feFlood flood-opacity="0" result="BackgroundImageFix"/>
<feColorMatrix in="SourceAlpha" type="matrix" values="0 0 0 0 0 0 0 0 0 0 0 0 0 0 0 0 0 0 127 0" result="hardAlpha"/>
<feOffset dy="4"/>
<feGaussianBlur stdDeviation="4"/>
<feComposite in2="hardAlpha" operator="out"/>
<feColorMatrix type="matrix" values="0 0 0 0 0 0 0 0 0 0 0 0 0 0 0 0 0 0 0.8 0"/>
<feBlend mode="normal" in2="BackgroundImageFix" result="effect1_dropShadow_432_491"/>
<feBlend mode="normal" in="SourceGraphic" in2="effect1_dropShadow_432_491" result="shape"/>
</filter>
<filter id="filter25_d_432_491" x="37" y="58" width="132" height="18" filterUnits="userSpaceOnUse" color-interpolation-filters="sRGB">
<feFlood flood-opacity="0" result="BackgroundImageFix"/>
<feColorMatrix in="SourceAlpha" type="matrix" values="0 0 0 0 0 0 0 0 0 0 0 0 0 0 0 0 0 0 127 0" result="hardAlpha"/>
<feOffset dy="4"/>
<feGaussianBlur stdDeviation="4"/>
<feComposite in2="hardAlpha" operator="out"/>
<feColorMatrix type="matrix" values="0 0 0 0 0 0 0 0 0 0 0 0 0 0 0 0 0 0 0.8 0"/>
<feBlend mode="normal" in2="BackgroundImageFix" result="effect1_dropShadow_432_491"/>
<feBlend mode="normal" in="SourceGraphic" in2="effect1_dropShadow_432_491" result="shape"/>
</filter>
<filter id="filter26_d_432_491" x="36.5" y="71.5" width="133" height="19" filterUnits="userSpaceOnUse" color-interpolation-filters="sRGB">
<feFlood flood-opacity="0" result="BackgroundImageFix"/>
<feColorMatrix in="SourceAlpha" type="matrix" values="0 0 0 0 0 0 0 0 0 0 0 0 0 0 0 0 0 0 127 0" result="hardAlpha"/>
<feOffset dy="4"/>
<feGaussianBlur stdDeviation="4"/>
<feComposite in2="hardAlpha" operator="out"/>
<feColorMatrix type="matrix" values="0 0 0 0 0 0 0 0 0 0 0 0 0 0 0 0 0 0 0.8 0"/>
<feBlend mode="normal" in2="BackgroundImageFix" result="effect1_dropShadow_432_491"/>
<feBlend mode="normal" in="SourceGraphic" in2="effect1_dropShadow_432_491" result="shape"/>
</filter>
<filter id="filter27_i_432_491" x="229.5" y="45.7375" width="40.6729" height="42.6833" filterUnits="userSpaceOnUse" color-interpolation-filters="sRGB">
<feFlood flood-opacity="0" result="BackgroundImageFix"/>
<feBlend mode="normal" in="SourceGraphic" in2="BackgroundImageFix" result="shape"/>
<feColorMatrix in="SourceAlpha" type="matrix" values="0 0 0 0 0 0 0 0 0 0 0 0 0 0 0 0 0 0 127 0" result="hardAlpha"/>
<feOffset dy="4"/>
<feGaussianBlur stdDeviation="2"/>
<feComposite in2="hardAlpha" operator="arithmetic" k2="-1" k3="1"/>
<feColorMatrix type="matrix" values="0 0 0 0 0 0 0 0 0 0 0 0 0 0 0 0 0 0 0.25 0"/>
<feBlend mode="normal" in2="shape" result="effect1_innerShadow_432_491"/>
</filter>
<filter id="filter28_di_432_491" x="202" y="67.5" width="52.5" height="15" filterUnits="userSpaceOnUse" color-interpolation-filters="sRGB">
<feFlood flood-opacity="0" result="BackgroundImageFix"/>
<feColorMatrix in="SourceAlpha" type="matrix" values="0 0 0 0 0 0 0 0 0 0 0 0 0 0 0 0 0 0 127 0" result="hardAlpha"/>
<feOffset dy="4"/>
<feGaussianBlur stdDeviation="2"/>
<feComposite in2="hardAlpha" operator="out"/>
<feColorMatrix type="matrix" values="0 0 0 0 0 0 0 0 0 0 0 0 0 0 0 0 0 0 0.25 0"/>
<feBlend mode="normal" in2="BackgroundImageFix" result="effect1_dropShadow_432_491"/>
<feBlend mode="normal" in="SourceGraphic" in2="effect1_dropShadow_432_491" result="shape"/>
<feColorMatrix in="SourceAlpha" type="matrix" values="0 0 0 0 0 0 0 0 0 0 0 0 0 0 0 0 0 0 127 0" result="hardAlpha"/>
<feOffset dy="4"/>
<feGaussianBlur stdDeviation="3"/>
<feComposite in2="hardAlpha" operator="arithmetic" k2="-1" k3="1"/>
<feColorMatrix type="matrix" values="0 0 0 0 0 0 0 0 0 0 0 0 0 0 0 0 0 0 0.4 0"/>
<feBlend mode="normal" in2="shape" result="effect2_innerShadow_432_491"/>
</filter>
<filter id="filter29_di_432_491" x="154" y="60" width="21" height="22.5" filterUnits="userSpaceOnUse" color-interpolation-filters="sRGB">
<feFlood flood-opacity="0" result="BackgroundImageFix"/>
<feColorMatrix in="SourceAlpha" type="matrix" values="0 0 0 0 0 0 0 0 0 0 0 0 0 0 0 0 0 0 127 0" result="hardAlpha"/>
<feOffset dy="4"/>
<feGaussianBlur stdDeviation="2"/>
<feComposite in2="hardAlpha" operator="out"/>
<feColorMatrix type="matrix" values="0 0 0 0 0 0 0 0 0 0 0 0 0 0 0 0 0 0 0.25 0"/>
<feBlend mode="normal" in2="BackgroundImageFix" result="effect1_dropShadow_432_491"/>
<feBlend mode="normal" in="SourceGraphic" in2="effect1_dropShadow_432_491" result="shape"/>
<feColorMatrix in="SourceAlpha" type="matrix" values="0 0 0 0 0 0 0 0 0 0 0 0 0 0 0 0 0 0 127 0" result="hardAlpha"/>
<feOffset dy="4"/>
<feGaussianBlur stdDeviation="3"/>
<feComposite in2="hardAlpha" operator="arithmetic" k2="-1" k3="1"/>
<feColorMatrix type="matrix" values="0 0 0 0 0 0 0 0 0 0 0 0 0 0 0 0 0 0 0.8 0"/>
<feBlend mode="normal" in2="shape" result="effect2_innerShadow_432_491"/>
</filter>
<filter id="filter30_d_432_491" x="157.5" y="64.3655" width="14" height="13.7693" filterUnits="userSpaceOnUse" color-interpolation-filters="sRGB">
<feFlood flood-opacity="0" result="BackgroundImageFix"/>
<feColorMatrix in="SourceAlpha" type="matrix" values="0 0 0 0 0 0 0 0 0 0 0 0 0 0 0 0 0 0 127 0" result="hardAlpha"/>
<feOffset dy="4"/>
<feGaussianBlur stdDeviation="2"/>
<feComposite in2="hardAlpha" operator="out"/>
<feColorMatrix type="matrix" values="0 0 0 0 0 0 0 0 0 0 0 0 0 0 0 0 0 0 0.8 0"/>
<feBlend mode="normal" in2="BackgroundImageFix" result="effect1_dropShadow_432_491"/>
<feBlend mode="normal" in="SourceGraphic" in2="effect1_dropShadow_432_491" result="shape"/>
</filter>
</defs>
</svg>
