<svg width="193" height="75" viewBox="0 0 193 75" fill="none" xmlns="http://www.w3.org/2000/svg">
<path d="M40.36 60C39.92 60 39.64 59.8 39.52 59.4L37.96 54.06C37.88 53.9 37.78 53.82 37.66 53.82H23.98C23.86 53.82 23.76 53.9 23.68 54.06L22.12 59.4C22 59.8 21.72 60 21.28 60H12.1C11.86 60 11.68 59.94 11.56 59.82C11.44 59.66 11.42 59.44 11.5 59.16L24.34 18.6C24.46 18.2 24.72 18 25.12 18H36.46C36.86 18 37.12 18.2 37.24 18.6L50.14 59.16C50.18 59.24 50.2 59.34 50.2 59.46C50.2 59.82 49.98 60 49.54 60H40.36ZM26.08 45.78C26.04 46.02 26.12 46.14 26.32 46.14H35.26C35.5 46.14 35.58 46.02 35.5 45.78L30.94 30.36C30.9 30.2 30.84 30.14 30.76 30.18C30.68 30.18 30.62 30.24 30.58 30.36L26.08 45.78ZM68.4967 60.48C65.2967 60.48 62.4767 59.84 60.0367 58.56C57.6367 57.28 55.7567 55.48 54.3967 53.16C53.0767 50.84 52.4167 48.16 52.4167 45.12V32.82C52.4167 29.78 53.0767 27.12 54.3967 24.84C55.7567 22.52 57.6367 20.72 60.0367 19.44C62.4767 18.16 65.2967 17.52 68.4967 17.52C71.6567 17.52 74.4567 18.14 76.8967 19.38C79.3367 20.58 81.2167 22.24 82.5367 24.36C83.8967 26.48 84.5767 28.82 84.5767 31.38V31.68C84.5767 31.88 84.4967 32.06 84.3367 32.22C84.2167 32.34 84.0567 32.4 83.8567 32.4H75.3367C75.1367 32.4 74.9567 32.34 74.7967 32.22C74.6767 32.06 74.6167 31.88 74.6167 31.68C74.6167 30.12 74.0567 28.8 72.9367 27.72C71.8567 26.6 70.3767 26.04 68.4967 26.04C66.6567 26.04 65.1767 26.64 64.0567 27.84C62.9367 29.04 62.3767 30.6 62.3767 32.52V45.42C62.3767 47.34 62.9967 48.9 64.2367 50.1C65.4767 51.3 67.0367 51.9 68.9167 51.9C70.6767 51.9 72.0967 51.44 73.1767 50.52C74.2567 49.56 74.7967 48.24 74.7967 46.56V44.88C74.7967 44.68 74.6967 44.58 74.4967 44.58H68.4967C68.2967 44.58 68.1167 44.52 67.9567 44.4C67.8367 44.24 67.7767 44.06 67.7767 43.86V37.26C67.7767 37.06 67.8367 36.9 67.9567 36.78C68.1167 36.62 68.2967 36.54 68.4967 36.54H83.8567C84.0567 36.54 84.2167 36.62 84.3367 36.78C84.4967 36.9 84.5767 37.06 84.5767 37.26V45.42C84.5767 48.42 83.8967 51.06 82.5367 53.34C81.2167 55.62 79.3367 57.38 76.8967 58.62C74.4967 59.86 71.6967 60.48 68.4967 60.48ZM115.946 60C115.506 60 115.226 59.8 115.106 59.4L113.546 54.06C113.466 53.9 113.366 53.82 113.246 53.82H99.5659C99.4459 53.82 99.3459 53.9 99.2659 54.06L97.7059 59.4C97.5859 59.8 97.3059 60 96.8659 60H87.6859C87.4459 60 87.2659 59.94 87.1459 59.82C87.0259 59.66 87.0059 59.44 87.0859 59.16L99.9259 18.6C100.046 18.2 100.306 18 100.706 18H112.046C112.446 18 112.706 18.2 112.826 18.6L125.726 59.16C125.766 59.24 125.786 59.34 125.786 59.46C125.786 59.82 125.566 60 125.126 60H115.946ZM101.666 45.78C101.626 46.02 101.706 46.14 101.906 46.14H110.846C111.086 46.14 111.166 46.02 111.086 45.78L106.526 30.36C106.486 30.2 106.426 30.14 106.346 30.18C106.266 30.18 106.206 30.24 106.166 30.36L101.666 45.78ZM130.906 60C130.706 60 130.526 59.94 130.366 59.82C130.246 59.66 130.186 59.48 130.186 59.28V18.72C130.186 18.52 130.246 18.36 130.366 18.24C130.526 18.08 130.706 18 130.906 18H139.426C139.626 18 139.786 18.08 139.906 18.24C140.066 18.36 140.146 18.52 140.146 18.72V59.28C140.146 59.48 140.066 59.66 139.906 59.82C139.786 59.94 139.626 60 139.426 60H130.906ZM169.885 18.72C169.885 18.52 169.945 18.36 170.065 18.24C170.225 18.08 170.405 18 170.605 18H179.125C179.325 18 179.485 18.08 179.605 18.24C179.765 18.36 179.845 18.52 179.845 18.72V59.28C179.845 59.48 179.765 59.66 179.605 59.82C179.485 59.94 179.325 60 179.125 60H170.965C170.565 60 170.285 59.84 170.125 59.52L156.325 36.6C156.245 36.48 156.165 36.44 156.085 36.48C156.005 36.48 155.965 36.56 155.965 36.72L156.025 59.28C156.025 59.48 155.945 59.66 155.785 59.82C155.665 59.94 155.505 60 155.305 60H146.785C146.585 60 146.405 59.94 146.245 59.82C146.125 59.66 146.065 59.48 146.065 59.28V18.72C146.065 18.52 146.125 18.36 146.245 18.24C146.405 18.08 146.585 18 146.785 18H155.005C155.405 18 155.685 18.16 155.845 18.48L169.585 41.34C169.665 41.46 169.745 41.52 169.825 41.52C169.905 41.48 169.945 41.38 169.945 41.22L169.885 18.72Z" fill="black"/>
<path d="M18 72.5H182C186.418 72.5 190 68.9183 190 64.5V14" stroke="black" stroke-width="5" stroke-linecap="round"/>
<path d="M3 47V10.5C3 6.08172 6.58172 2.5 11 2.5H68.5" stroke="black" stroke-width="5" stroke-linecap="round"/>
</svg>
