<svg width="390" height="220" viewBox="0 0 390 220" fill="none" xmlns="http://www.w3.org/2000/svg">
<g filter="url(#filter0_i_435_589)">
<path d="M101.302 83.5103L221.302 156.011L225.302 146.011L229.302 135.01C229.302 135.01 100.302 44.5097 96.8018 61.0103C93.3018 77.5108 101.302 83.5103 101.302 83.5103Z" fill="#928D8D"/>
</g>
<path d="M101.302 83.5103L221.302 156.011L225.302 146.011L229.302 135.01C229.302 135.01 100.302 44.5097 96.8018 61.0103C93.3018 77.5108 101.302 83.5103 101.302 83.5103Z" stroke="black" stroke-width="3" stroke-linecap="round"/>
<g filter="url(#filter1_i_435_589)">
<path d="M64.3018 78.5649C75.3018 76.5648 98.3018 81.5649 98.3018 81.5649C98.3018 81.5649 95.0019 75.6923 94.8018 69.5C94.636 64.3706 97.3018 58.5 97.3018 58.5C97.3018 58.5 38.8018 20.0649 28.3018 15.0649C17.8018 10.0648 16.913 12.0056 10.8018 15.0649C-1.80016 21.3733 -0.784828 50.6488 13.3018 51.0649C18.4877 51.2181 20.6175 46.3614 25.8018 46.5649C35.4632 46.9441 33.5883 61.6321 42.8018 64.5649C48.5697 66.4009 53.2676 61.2036 58.3018 64.5649C63.2487 67.8679 53.3018 80.5649 64.3018 78.5649Z" fill="#6A2020"/>
</g>
<path d="M64.3018 78.5649C75.3018 76.5648 98.3018 81.5649 98.3018 81.5649C98.3018 81.5649 95.0019 75.6923 94.8018 69.5C94.636 64.3706 97.3018 58.5 97.3018 58.5C97.3018 58.5 38.8018 20.0649 28.3018 15.0649C17.8018 10.0648 16.913 12.0056 10.8018 15.0649C-1.80016 21.3733 -0.784828 50.6488 13.3018 51.0649C18.4877 51.2181 20.6175 46.3614 25.8018 46.5649C35.4632 46.9441 33.5883 61.6321 42.8018 64.5649C48.5697 66.4009 53.2676 61.2036 58.3018 64.5649C63.2487 67.8679 53.3018 80.5649 64.3018 78.5649Z" stroke="black" stroke-width="3" stroke-linecap="round"/>
<g filter="url(#filter2_i_435_589)">
<path d="M104.506 32.9972C109.269 43.1395 112.011 60.6905 112.011 60.6905L128.659 68.3928C128.659 68.3928 123.633 40.3125 112.907 26.5226C102.928 13.6929 79.278 2.00005 79.278 2.00005C79.278 2.00005 97.8713 18.8698 104.506 32.9972Z" fill="#928D8D"/>
</g>
<path d="M104.506 32.9972C109.269 43.1395 112.011 60.6905 112.011 60.6905L128.659 68.3928C128.659 68.3928 123.633 40.3125 112.907 26.5226C102.928 13.6929 79.278 2.00005 79.278 2.00005C79.278 2.00005 97.8713 18.8698 104.506 32.9972Z" stroke="black" stroke-width="3" stroke-linecap="round"/>
<path d="M110.802 25C106.478 19.7803 88.8018 9 88.8018 9C88.8018 9 104.743 20.2442 108.802 26C114.092 33.5018 114.802 37.5 114.802 37.5L118.802 40C118.802 40 116.319 31.6604 110.802 25Z" fill="#CECECE" stroke="#CECECE" stroke-width="0.1" stroke-linecap="round"/>
<path d="M177.802 104.5L184.302 106.244C184.302 106.244 160.333 91.844 145.802 82C130.302 71.5 103.802 61 103.802 61C103.802 61 99.3064 59.3257 98.3018 61C97.699 62.0046 97.8018 65 97.8018 65C97.8018 65 99.2248 61.1349 116.302 70.5C129.515 77.746 177.802 104.5 177.802 104.5Z" fill="#D9D9D9" stroke="#CECECE" stroke-width="0.1" stroke-linecap="round"/>
<path d="M102.302 60.5C101.964 60.3876 103.302 62 103.302 62L156.293 89.5005L155.793 88.5005C155.793 88.5005 130.807 69.9996 102.302 60.5Z" fill="#E9E9E9" stroke="#CECECE" stroke-width="0.1" stroke-linecap="round"/>
<path d="M118.802 40L116.302 38.5C116.302 38.5 116.38 35.7049 115.802 34C114.358 29.7428 112.452 27.7068 109.302 24.5C107.357 22.5202 103.802 19.5 103.802 19.5L95.8018 13.5C95.8018 13.5 104.416 18.614 108.802 23C113.188 27.386 112.492 26.7103 114.302 29.5C116.73 33.2428 118.802 40 118.802 40Z" fill="#E8E7E7" stroke="#CECECE" stroke-width="0.1" stroke-linecap="round"/>
<g filter="url(#filter3_i_435_589)">
<path d="M384.5 208.025H201C201 208.025 201.71 162.469 214.5 137.525C226.918 113.305 237.594 98.5706 262 86.5246C292.467 71.4873 320.363 68.2416 349 86.5246C369.454 99.583 376.779 114.519 384.5 137.525C393.26 163.626 384.5 208.025 384.5 208.025Z" fill="#928D8D"/>
</g>
<path d="M384.5 208.025H201C201 208.025 201.71 162.469 214.5 137.525C226.918 113.305 237.594 98.5706 262 86.5246C292.467 71.4873 320.363 68.2416 349 86.5246C369.454 99.583 376.779 114.519 384.5 137.525C393.26 163.626 384.5 208.025 384.5 208.025Z" stroke="black" stroke-width="3" stroke-linecap="round"/>
<g filter="url(#filter4_i_435_589)">
<path d="M384 218H200V194H387L384 218Z" fill="#464444"/>
</g>
<path d="M384 218H200V194H387L384 218Z" stroke="black" stroke-width="3" stroke-linecap="round"/>
<g filter="url(#filter5_di_435_589)">
<path d="M226.5 170L229 173.365V179.615L225.5 182.5H221L218 179.615V173.365L221 170H226.5Z" fill="#D9D9D9"/>
<path d="M226.5 170L229 173.365V179.615L225.5 182.5H221L218 179.615V173.365L221 170H226.5Z" stroke="black" stroke-width="2" stroke-linecap="round"/>
</g>
<g filter="url(#filter6_d_435_589)">
<ellipse cx="223.5" cy="176.25" rx="3" ry="2.88462" fill="#3B3A3A"/>
<path d="M226 176.25C226 177.549 224.899 178.635 223.5 178.635C222.101 178.635 221 177.549 221 176.25C221 174.951 222.101 173.865 223.5 173.865C224.899 173.865 226 174.951 226 176.25Z" stroke="black"/>
</g>
<g filter="url(#filter7_di_435_589)">
<path d="M246.5 118L249 121.365V127.615L245.5 130.5H241L238 127.615V121.365L241 118H246.5Z" fill="#D9D9D9"/>
<path d="M246.5 118L249 121.365V127.615L245.5 130.5H241L238 127.615V121.365L241 118H246.5Z" stroke="black" stroke-width="2" stroke-linecap="round"/>
</g>
<g filter="url(#filter8_d_435_589)">
<ellipse cx="243.5" cy="124.25" rx="3" ry="2.88462" fill="#3B3A3A"/>
<path d="M246 124.25C246 125.549 244.899 126.635 243.5 126.635C242.101 126.635 241 125.549 241 124.25C241 122.951 242.101 121.865 243.5 121.865C244.899 121.865 246 122.951 246 124.25Z" stroke="black"/>
</g>
<g filter="url(#filter9_di_435_589)">
<path d="M308.5 89L311 92.3654V98.6154L307.5 101.5H303L300 98.6154V92.3654L303 89H308.5Z" fill="#D9D9D9"/>
<path d="M308.5 89L311 92.3654V98.6154L307.5 101.5H303L300 98.6154V92.3654L303 89H308.5Z" stroke="black" stroke-width="2" stroke-linecap="round"/>
</g>
<g filter="url(#filter10_d_435_589)">
<ellipse cx="305.5" cy="95.2501" rx="3" ry="2.88462" fill="#3B3A3A"/>
<path d="M308 95.2501C308 96.5488 306.899 97.6347 305.5 97.6347C304.101 97.6347 303 96.5488 303 95.2501C303 93.9514 304.101 92.8655 305.5 92.8655C306.899 92.8655 308 93.9514 308 95.2501Z" stroke="black"/>
</g>
<path d="M300.666 168.108C295 168.113 291.061 169.319 287.171 173.44C281.619 179.322 284.974 194.036 284.974 194.036L314.809 192.662C314.809 192.662 316.186 188.647 316.527 185.97C317.068 181.739 317.739 178.852 315.759 175.074C312.746 169.324 307.158 168.101 300.666 168.108Z" fill="#443E3E" stroke="black" stroke-width="3" stroke-linecap="round"/>
<path d="M300.501 178.387C297.786 178.354 295.906 179.016 294.069 181.336C291.445 184.648 293.147 193.044 293.147 193.044L307.435 192.452C307.435 192.452 308.069 190.175 308.216 188.655C308.448 186.25 308.751 184.611 307.778 182.448C306.297 179.157 303.612 178.425 300.501 178.387Z" fill="black" stroke="black" stroke-width="3" stroke-linecap="round"/>
<path d="M354.438 100.555C346.636 94.1039 332 87.1306 332 87.1306C332 87.1306 335.877 86.8368 338.329 87.1306C346.86 88.1527 350.615 92.8277 356.74 98.5167C360.613 102.115 365.37 108.818 365.37 108.818L374 124C374 124 363.729 108.236 354.438 100.555Z" fill="#CECECE" stroke="#CECECE" stroke-width="0.1" stroke-linecap="round"/>
<g filter="url(#filter11_di_435_589)">
<path d="M373.5 170L376 173.365V179.615L372.5 182.5H368L365 179.615V173.365L368 170H373.5Z" fill="#D9D9D9"/>
<path d="M373.5 170L376 173.365V179.615L372.5 182.5H368L365 179.615V173.365L368 170H373.5Z" stroke="black" stroke-width="2" stroke-linecap="round"/>
</g>
<g filter="url(#filter12_d_435_589)">
<ellipse cx="370.5" cy="176.25" rx="3" ry="2.88462" fill="#3B3A3A"/>
<path d="M373 176.25C373 177.549 371.899 178.635 370.5 178.635C369.101 178.635 368 177.549 368 176.25C368 174.951 369.101 173.865 370.5 173.865C371.899 173.865 373 174.951 373 176.25Z" stroke="black"/>
</g>
<g filter="url(#filter13_di_435_589)">
<path d="M362.5 118L365 121.365V127.615L361.5 130.5H357L354 127.615V121.365L357 118H362.5Z" fill="#D9D9D9"/>
<path d="M362.5 118L365 121.365V127.615L361.5 130.5H357L354 127.615V121.365L357 118H362.5Z" stroke="black" stroke-width="2" stroke-linecap="round"/>
</g>
<g filter="url(#filter14_d_435_589)">
<ellipse cx="359.5" cy="124.25" rx="3" ry="2.88462" fill="#3B3A3A"/>
<path d="M362 124.25C362 125.549 360.899 126.635 359.5 126.635C358.101 126.635 357 125.549 357 124.25C357 122.951 358.101 121.865 359.5 121.865C360.899 121.865 362 122.951 362 124.25Z" stroke="black"/>
</g>
<defs>
<filter id="filter0_i_435_589" x="94.416" y="57.5001" width="136.688" height="104.708" filterUnits="userSpaceOnUse" color-interpolation-filters="sRGB">
<feFlood flood-opacity="0" result="BackgroundImageFix"/>
<feBlend mode="normal" in="SourceGraphic" in2="BackgroundImageFix" result="shape"/>
<feColorMatrix in="SourceAlpha" type="matrix" values="0 0 0 0 0 0 0 0 0 0 0 0 0 0 0 0 0 0 127 0" result="hardAlpha"/>
<feOffset dy="4"/>
<feGaussianBlur stdDeviation="3"/>
<feComposite in2="hardAlpha" operator="arithmetic" k2="-1" k3="1"/>
<feColorMatrix type="matrix" values="0 0 0 0 0 0 0 0 0 0 0 0 0 0 0 0 0 0 0.8 0"/>
<feBlend mode="normal" in2="shape" result="effect1_innerShadow_435_589"/>
</filter>
<filter id="filter1_i_435_589" x="0.5" y="10.5002" width="100.745" height="77.2394" filterUnits="userSpaceOnUse" color-interpolation-filters="sRGB">
<feFlood flood-opacity="0" result="BackgroundImageFix"/>
<feBlend mode="normal" in="SourceGraphic" in2="BackgroundImageFix" result="shape"/>
<feColorMatrix in="SourceAlpha" type="matrix" values="0 0 0 0 0 0 0 0 0 0 0 0 0 0 0 0 0 0 127 0" result="hardAlpha"/>
<feOffset dy="4"/>
<feGaussianBlur stdDeviation="3"/>
<feComposite in2="hardAlpha" operator="arithmetic" k2="-1" k3="1"/>
<feColorMatrix type="matrix" values="0 0 0 0 0 0 0 0 0 0 0 0 0 0 0 0 0 0 0.8 0"/>
<feBlend mode="normal" in2="shape" result="effect1_innerShadow_435_589"/>
</filter>
<filter id="filter2_i_435_589" x="78.27" y="0.655396" width="52.373" height="74.308" filterUnits="userSpaceOnUse" color-interpolation-filters="sRGB">
<feFlood flood-opacity="0" result="BackgroundImageFix"/>
<feBlend mode="normal" in="SourceGraphic" in2="BackgroundImageFix" result="shape"/>
<feColorMatrix in="SourceAlpha" type="matrix" values="0 0 0 0 0 0 0 0 0 0 0 0 0 0 0 0 0 0 127 0" result="hardAlpha"/>
<feOffset dy="4"/>
<feGaussianBlur stdDeviation="3.5"/>
<feComposite in2="hardAlpha" operator="arithmetic" k2="-1" k3="1"/>
<feColorMatrix type="matrix" values="0 0 0 0 0 0 0 0 0 0 0 0 0 0 0 0 0 0 0.8 0"/>
<feBlend mode="normal" in2="shape" result="effect1_innerShadow_435_589"/>
</filter>
<filter id="filter3_i_435_589" x="199.477" y="72.5" width="190.417" height="141.025" filterUnits="userSpaceOnUse" color-interpolation-filters="sRGB">
<feFlood flood-opacity="0" result="BackgroundImageFix"/>
<feBlend mode="normal" in="SourceGraphic" in2="BackgroundImageFix" result="shape"/>
<feColorMatrix in="SourceAlpha" type="matrix" values="0 0 0 0 0 0 0 0 0 0 0 0 0 0 0 0 0 0 127 0" result="hardAlpha"/>
<feOffset dy="4"/>
<feGaussianBlur stdDeviation="3"/>
<feComposite in2="hardAlpha" operator="arithmetic" k2="-1" k3="1"/>
<feColorMatrix type="matrix" values="0 0 0 0 0 0 0 0 0 0 0 0 0 0 0 0 0 0 0.8 0"/>
<feBlend mode="normal" in2="shape" result="effect1_innerShadow_435_589"/>
</filter>
<filter id="filter4_i_435_589" x="198.5" y="192.5" width="190.199" height="31" filterUnits="userSpaceOnUse" color-interpolation-filters="sRGB">
<feFlood flood-opacity="0" result="BackgroundImageFix"/>
<feBlend mode="normal" in="SourceGraphic" in2="BackgroundImageFix" result="shape"/>
<feColorMatrix in="SourceAlpha" type="matrix" values="0 0 0 0 0 0 0 0 0 0 0 0 0 0 0 0 0 0 127 0" result="hardAlpha"/>
<feOffset dy="4"/>
<feGaussianBlur stdDeviation="3.5"/>
<feComposite in2="hardAlpha" operator="arithmetic" k2="-1" k3="1"/>
<feColorMatrix type="matrix" values="0 0 0 0 0 0 0 0 0 0 0 0 0 0 0 0 0 0 0.8 0"/>
<feBlend mode="normal" in2="shape" result="effect1_innerShadow_435_589"/>
</filter>
<filter id="filter5_di_435_589" x="213" y="169" width="21" height="22.5" filterUnits="userSpaceOnUse" color-interpolation-filters="sRGB">
<feFlood flood-opacity="0" result="BackgroundImageFix"/>
<feColorMatrix in="SourceAlpha" type="matrix" values="0 0 0 0 0 0 0 0 0 0 0 0 0 0 0 0 0 0 127 0" result="hardAlpha"/>
<feOffset dy="4"/>
<feGaussianBlur stdDeviation="2"/>
<feComposite in2="hardAlpha" operator="out"/>
<feColorMatrix type="matrix" values="0 0 0 0 0 0 0 0 0 0 0 0 0 0 0 0 0 0 0.25 0"/>
<feBlend mode="normal" in2="BackgroundImageFix" result="effect1_dropShadow_435_589"/>
<feBlend mode="normal" in="SourceGraphic" in2="effect1_dropShadow_435_589" result="shape"/>
<feColorMatrix in="SourceAlpha" type="matrix" values="0 0 0 0 0 0 0 0 0 0 0 0 0 0 0 0 0 0 127 0" result="hardAlpha"/>
<feOffset dy="4"/>
<feGaussianBlur stdDeviation="3"/>
<feComposite in2="hardAlpha" operator="arithmetic" k2="-1" k3="1"/>
<feColorMatrix type="matrix" values="0 0 0 0 0 0 0 0 0 0 0 0 0 0 0 0 0 0 0.8 0"/>
<feBlend mode="normal" in2="shape" result="effect2_innerShadow_435_589"/>
</filter>
<filter id="filter6_d_435_589" x="216.5" y="173.365" width="14" height="13.7692" filterUnits="userSpaceOnUse" color-interpolation-filters="sRGB">
<feFlood flood-opacity="0" result="BackgroundImageFix"/>
<feColorMatrix in="SourceAlpha" type="matrix" values="0 0 0 0 0 0 0 0 0 0 0 0 0 0 0 0 0 0 127 0" result="hardAlpha"/>
<feOffset dy="4"/>
<feGaussianBlur stdDeviation="2"/>
<feComposite in2="hardAlpha" operator="out"/>
<feColorMatrix type="matrix" values="0 0 0 0 0 0 0 0 0 0 0 0 0 0 0 0 0 0 0.8 0"/>
<feBlend mode="normal" in2="BackgroundImageFix" result="effect1_dropShadow_435_589"/>
<feBlend mode="normal" in="SourceGraphic" in2="effect1_dropShadow_435_589" result="shape"/>
</filter>
<filter id="filter7_di_435_589" x="233" y="117" width="21" height="22.5" filterUnits="userSpaceOnUse" color-interpolation-filters="sRGB">
<feFlood flood-opacity="0" result="BackgroundImageFix"/>
<feColorMatrix in="SourceAlpha" type="matrix" values="0 0 0 0 0 0 0 0 0 0 0 0 0 0 0 0 0 0 127 0" result="hardAlpha"/>
<feOffset dy="4"/>
<feGaussianBlur stdDeviation="2"/>
<feComposite in2="hardAlpha" operator="out"/>
<feColorMatrix type="matrix" values="0 0 0 0 0 0 0 0 0 0 0 0 0 0 0 0 0 0 0.25 0"/>
<feBlend mode="normal" in2="BackgroundImageFix" result="effect1_dropShadow_435_589"/>
<feBlend mode="normal" in="SourceGraphic" in2="effect1_dropShadow_435_589" result="shape"/>
<feColorMatrix in="SourceAlpha" type="matrix" values="0 0 0 0 0 0 0 0 0 0 0 0 0 0 0 0 0 0 127 0" result="hardAlpha"/>
<feOffset dy="4"/>
<feGaussianBlur stdDeviation="3"/>
<feComposite in2="hardAlpha" operator="arithmetic" k2="-1" k3="1"/>
<feColorMatrix type="matrix" values="0 0 0 0 0 0 0 0 0 0 0 0 0 0 0 0 0 0 0.8 0"/>
<feBlend mode="normal" in2="shape" result="effect2_innerShadow_435_589"/>
</filter>
<filter id="filter8_d_435_589" x="236.5" y="121.365" width="14" height="13.7693" filterUnits="userSpaceOnUse" color-interpolation-filters="sRGB">
<feFlood flood-opacity="0" result="BackgroundImageFix"/>
<feColorMatrix in="SourceAlpha" type="matrix" values="0 0 0 0 0 0 0 0 0 0 0 0 0 0 0 0 0 0 127 0" result="hardAlpha"/>
<feOffset dy="4"/>
<feGaussianBlur stdDeviation="2"/>
<feComposite in2="hardAlpha" operator="out"/>
<feColorMatrix type="matrix" values="0 0 0 0 0 0 0 0 0 0 0 0 0 0 0 0 0 0 0.8 0"/>
<feBlend mode="normal" in2="BackgroundImageFix" result="effect1_dropShadow_435_589"/>
<feBlend mode="normal" in="SourceGraphic" in2="effect1_dropShadow_435_589" result="shape"/>
</filter>
<filter id="filter9_di_435_589" x="295" y="88" width="21" height="22.5" filterUnits="userSpaceOnUse" color-interpolation-filters="sRGB">
<feFlood flood-opacity="0" result="BackgroundImageFix"/>
<feColorMatrix in="SourceAlpha" type="matrix" values="0 0 0 0 0 0 0 0 0 0 0 0 0 0 0 0 0 0 127 0" result="hardAlpha"/>
<feOffset dy="4"/>
<feGaussianBlur stdDeviation="2"/>
<feComposite in2="hardAlpha" operator="out"/>
<feColorMatrix type="matrix" values="0 0 0 0 0 0 0 0 0 0 0 0 0 0 0 0 0 0 0.25 0"/>
<feBlend mode="normal" in2="BackgroundImageFix" result="effect1_dropShadow_435_589"/>
<feBlend mode="normal" in="SourceGraphic" in2="effect1_dropShadow_435_589" result="shape"/>
<feColorMatrix in="SourceAlpha" type="matrix" values="0 0 0 0 0 0 0 0 0 0 0 0 0 0 0 0 0 0 127 0" result="hardAlpha"/>
<feOffset dy="4"/>
<feGaussianBlur stdDeviation="3"/>
<feComposite in2="hardAlpha" operator="arithmetic" k2="-1" k3="1"/>
<feColorMatrix type="matrix" values="0 0 0 0 0 0 0 0 0 0 0 0 0 0 0 0 0 0 0.8 0"/>
<feBlend mode="normal" in2="shape" result="effect2_innerShadow_435_589"/>
</filter>
<filter id="filter10_d_435_589" x="298.5" y="92.3655" width="14" height="13.7693" filterUnits="userSpaceOnUse" color-interpolation-filters="sRGB">
<feFlood flood-opacity="0" result="BackgroundImageFix"/>
<feColorMatrix in="SourceAlpha" type="matrix" values="0 0 0 0 0 0 0 0 0 0 0 0 0 0 0 0 0 0 127 0" result="hardAlpha"/>
<feOffset dy="4"/>
<feGaussianBlur stdDeviation="2"/>
<feComposite in2="hardAlpha" operator="out"/>
<feColorMatrix type="matrix" values="0 0 0 0 0 0 0 0 0 0 0 0 0 0 0 0 0 0 0.8 0"/>
<feBlend mode="normal" in2="BackgroundImageFix" result="effect1_dropShadow_435_589"/>
<feBlend mode="normal" in="SourceGraphic" in2="effect1_dropShadow_435_589" result="shape"/>
</filter>
<filter id="filter11_di_435_589" x="360" y="169" width="21" height="22.5" filterUnits="userSpaceOnUse" color-interpolation-filters="sRGB">
<feFlood flood-opacity="0" result="BackgroundImageFix"/>
<feColorMatrix in="SourceAlpha" type="matrix" values="0 0 0 0 0 0 0 0 0 0 0 0 0 0 0 0 0 0 127 0" result="hardAlpha"/>
<feOffset dy="4"/>
<feGaussianBlur stdDeviation="2"/>
<feComposite in2="hardAlpha" operator="out"/>
<feColorMatrix type="matrix" values="0 0 0 0 0 0 0 0 0 0 0 0 0 0 0 0 0 0 0.25 0"/>
<feBlend mode="normal" in2="BackgroundImageFix" result="effect1_dropShadow_435_589"/>
<feBlend mode="normal" in="SourceGraphic" in2="effect1_dropShadow_435_589" result="shape"/>
<feColorMatrix in="SourceAlpha" type="matrix" values="0 0 0 0 0 0 0 0 0 0 0 0 0 0 0 0 0 0 127 0" result="hardAlpha"/>
<feOffset dy="4"/>
<feGaussianBlur stdDeviation="3"/>
<feComposite in2="hardAlpha" operator="arithmetic" k2="-1" k3="1"/>
<feColorMatrix type="matrix" values="0 0 0 0 0 0 0 0 0 0 0 0 0 0 0 0 0 0 0.8 0"/>
<feBlend mode="normal" in2="shape" result="effect2_innerShadow_435_589"/>
</filter>
<filter id="filter12_d_435_589" x="363.5" y="173.365" width="14" height="13.7692" filterUnits="userSpaceOnUse" color-interpolation-filters="sRGB">
<feFlood flood-opacity="0" result="BackgroundImageFix"/>
<feColorMatrix in="SourceAlpha" type="matrix" values="0 0 0 0 0 0 0 0 0 0 0 0 0 0 0 0 0 0 127 0" result="hardAlpha"/>
<feOffset dy="4"/>
<feGaussianBlur stdDeviation="2"/>
<feComposite in2="hardAlpha" operator="out"/>
<feColorMatrix type="matrix" values="0 0 0 0 0 0 0 0 0 0 0 0 0 0 0 0 0 0 0.8 0"/>
<feBlend mode="normal" in2="BackgroundImageFix" result="effect1_dropShadow_435_589"/>
<feBlend mode="normal" in="SourceGraphic" in2="effect1_dropShadow_435_589" result="shape"/>
</filter>
<filter id="filter13_di_435_589" x="349" y="117" width="21" height="22.5" filterUnits="userSpaceOnUse" color-interpolation-filters="sRGB">
<feFlood flood-opacity="0" result="BackgroundImageFix"/>
<feColorMatrix in="SourceAlpha" type="matrix" values="0 0 0 0 0 0 0 0 0 0 0 0 0 0 0 0 0 0 127 0" result="hardAlpha"/>
<feOffset dy="4"/>
<feGaussianBlur stdDeviation="2"/>
<feComposite in2="hardAlpha" operator="out"/>
<feColorMatrix type="matrix" values="0 0 0 0 0 0 0 0 0 0 0 0 0 0 0 0 0 0 0.25 0"/>
<feBlend mode="normal" in2="BackgroundImageFix" result="effect1_dropShadow_435_589"/>
<feBlend mode="normal" in="SourceGraphic" in2="effect1_dropShadow_435_589" result="shape"/>
<feColorMatrix in="SourceAlpha" type="matrix" values="0 0 0 0 0 0 0 0 0 0 0 0 0 0 0 0 0 0 127 0" result="hardAlpha"/>
<feOffset dy="4"/>
<feGaussianBlur stdDeviation="3"/>
<feComposite in2="hardAlpha" operator="arithmetic" k2="-1" k3="1"/>
<feColorMatrix type="matrix" values="0 0 0 0 0 0 0 0 0 0 0 0 0 0 0 0 0 0 0.8 0"/>
<feBlend mode="normal" in2="shape" result="effect2_innerShadow_435_589"/>
</filter>
<filter id="filter14_d_435_589" x="352.5" y="121.365" width="14" height="13.7693" filterUnits="userSpaceOnUse" color-interpolation-filters="sRGB">
<feFlood flood-opacity="0" result="BackgroundImageFix"/>
<feColorMatrix in="SourceAlpha" type="matrix" values="0 0 0 0 0 0 0 0 0 0 0 0 0 0 0 0 0 0 127 0" result="hardAlpha"/>
<feOffset dy="4"/>
<feGaussianBlur stdDeviation="2"/>
<feComposite in2="hardAlpha" operator="out"/>
<feColorMatrix type="matrix" values="0 0 0 0 0 0 0 0 0 0 0 0 0 0 0 0 0 0 0.8 0"/>
<feBlend mode="normal" in2="BackgroundImageFix" result="effect1_dropShadow_435_589"/>
<feBlend mode="normal" in="SourceGraphic" in2="effect1_dropShadow_435_589" result="shape"/>
</filter>
</defs>
</svg>
