<svg width="149" height="98" viewBox="0 0 149 98" fill="none" xmlns="http://www.w3.org/2000/svg">
<g filter="url(#filter0_i_430_412)">
<path d="M128.715 85.4108H18.7146C18.7146 85.4108 11.5966 84.6024 8.21464 81.9108C4.38598 78.8636 3.0791 75.7271 2.21464 70.9108C1.7317 68.2201 2.21464 63.9108 2.21464 63.9108C2.21464 63.9108 5.53251 67.0525 8.21464 67.9108C11.1902 68.863 16.2146 67.9108 16.2146 67.9108C16.2146 67.9108 9.50206 58.777 8.21464 51.9108C7.35101 47.3048 8.21464 39.9108 8.21464 39.9108C8.21464 39.9108 12.5147 45.2544 16.2146 47.4108C18.4078 48.689 22.2146 49.9108 22.2146 49.9108C22.2146 49.9108 15.693 41.5168 16.2146 35.4108C16.6683 30.1005 22.7146 23.4108 22.7146 23.4108C22.7146 23.4108 23.9233 28.8852 26.2146 31.4108C28.2174 33.6182 32.7146 35.4108 32.7146 35.4108V31.4108C32.7146 31.4108 30.4653 22.1075 32.7146 16.9108C34.7988 12.0958 42.2146 7.41078 42.2146 7.41078C42.2146 7.41078 42.435 13.3795 43.7146 16.9108C44.6969 19.6213 47.2146 23.4108 47.2146 23.4108C47.2146 23.4108 47.9603 13.7565 51.7146 9.41078C55.5399 4.98295 65.2146 2.91078 65.2146 2.91078V11.4108V21.4108C65.2146 21.4108 69.4179 5.56723 75.7146 2.91078C80.5721 0.861523 89.2146 2.91078 89.2146 2.91078C89.2146 2.91078 85.1997 6.36352 84.2146 9.41078C83.3137 12.1977 84.2146 16.9108 84.2146 16.9108C84.2146 16.9108 91.138 10.5552 96.7146 9.41078C102.314 8.26171 111.215 11.4108 111.215 11.4108C111.215 11.4108 104.068 13.2323 102.215 16.9108C100.633 20.0495 102.215 25.9108 102.215 25.9108C102.215 25.9108 110.158 21.3469 115.715 21.4108C121.087 21.4725 128.715 25.9108 128.715 25.9108C128.715 25.9108 125.888 27.6216 124.215 28.9108C120.385 31.8617 115.715 37.9108 115.715 37.9108C115.715 37.9108 125.693 35.4301 131.215 37.9108C136.001 40.061 140.715 47.4108 140.715 47.4108C140.715 47.4108 136.087 46.8364 133.215 47.4108C129.361 48.1814 124.215 51.9108 124.215 51.9108C124.215 51.9108 139.596 52.4649 144.215 59.4108C146.785 63.2755 147.215 70.9108 147.215 70.9108C147.215 70.9108 140.229 69.0426 135.715 69.4108C132.928 69.6381 128.715 70.9108 128.715 70.9108C128.715 70.9108 136.442 73.6442 139.715 77.4108C144.343 82.7375 144.215 94.9108 144.215 94.9108L128.715 85.4108Z" fill="#C7BCBC"/>
</g>
<path d="M128.715 85.4108H18.7146C18.7146 85.4108 11.5966 84.6024 8.21464 81.9108C4.38598 78.8636 3.0791 75.7271 2.21464 70.9108C1.7317 68.2201 2.21464 63.9108 2.21464 63.9108C2.21464 63.9108 5.53251 67.0525 8.21464 67.9108C11.1902 68.863 16.2146 67.9108 16.2146 67.9108C16.2146 67.9108 9.50206 58.777 8.21464 51.9108C7.35101 47.3048 8.21464 39.9108 8.21464 39.9108C8.21464 39.9108 12.5147 45.2544 16.2146 47.4108C18.4078 48.689 22.2146 49.9108 22.2146 49.9108C22.2146 49.9108 15.693 41.5168 16.2146 35.4108C16.6683 30.1005 22.7146 23.4108 22.7146 23.4108C22.7146 23.4108 23.9233 28.8852 26.2146 31.4108C28.2174 33.6182 32.7146 35.4108 32.7146 35.4108V31.4108C32.7146 31.4108 30.4653 22.1075 32.7146 16.9108C34.7988 12.0958 42.2146 7.41078 42.2146 7.41078C42.2146 7.41078 42.435 13.3795 43.7146 16.9108C44.6969 19.6213 47.2146 23.4108 47.2146 23.4108C47.2146 23.4108 47.9603 13.7565 51.7146 9.41078C55.5399 4.98295 65.2146 2.91078 65.2146 2.91078V11.4108V21.4108C65.2146 21.4108 69.4179 5.56723 75.7146 2.91078C80.5721 0.861523 89.2146 2.91078 89.2146 2.91078C89.2146 2.91078 85.1997 6.36352 84.2146 9.41078C83.3137 12.1977 84.2146 16.9108 84.2146 16.9108C84.2146 16.9108 91.138 10.5552 96.7146 9.41078C102.314 8.26171 111.215 11.4108 111.215 11.4108C111.215 11.4108 104.068 13.2323 102.215 16.9108C100.633 20.0495 102.215 25.9108 102.215 25.9108C102.215 25.9108 110.158 21.3469 115.715 21.4108C121.087 21.4725 128.715 25.9108 128.715 25.9108C128.715 25.9108 125.888 27.6216 124.215 28.9108C120.385 31.8617 115.715 37.9108 115.715 37.9108C115.715 37.9108 125.693 35.4301 131.215 37.9108C136.001 40.061 140.715 47.4108 140.715 47.4108C140.715 47.4108 136.087 46.8364 133.215 47.4108C129.361 48.1814 124.215 51.9108 124.215 51.9108C124.215 51.9108 139.596 52.4649 144.215 59.4108C146.785 63.2755 147.215 70.9108 147.215 70.9108C147.215 70.9108 140.229 69.0426 135.715 69.4108C132.928 69.6381 128.715 70.9108 128.715 70.9108C128.715 70.9108 136.442 73.6442 139.715 77.4108C144.343 82.7375 144.215 94.9108 144.215 94.9108L128.715 85.4108Z" stroke="black" stroke-width="3" stroke-linecap="round"/>
<g filter="url(#filter1_di_430_412)">
<path d="M112.133 83.3538C109.003 88.2077 35.6254 83.3538 35.6254 83.3538C35.6254 83.3538 30.6746 82.7883 28.3224 80.9053C25.6595 78.7735 24.7505 76.5792 24.1493 73.2097C23.8134 71.3273 24.1493 68.3125 24.1493 68.3125C24.1493 68.3125 26.4569 70.5105 28.3224 71.1109C30.392 71.7771 33.8866 71.1109 33.8866 71.1109C33.8866 71.1109 29.2179 64.721 28.3224 59.9174C27.7217 56.695 28.3224 51.5222 28.3224 51.5222C28.3224 51.5222 31.3132 55.2606 33.8866 56.7692C35.412 57.6634 38.0597 58.5182 38.0597 58.5182C38.0597 58.5182 33.5238 52.6458 33.8866 48.374C34.2021 44.659 38.4075 39.9789 38.4075 39.9789C38.4075 39.9789 39.2481 43.8088 40.8418 45.5757C42.2348 47.12 45.3627 48.374 45.3627 48.374V45.5757C45.3627 45.5757 43.7983 39.0671 45.3627 35.4315C46.8123 32.063 51.9702 28.7854 51.9702 28.7854C51.9702 28.7854 52.1234 32.9611 53.0135 35.4315C53.6966 37.3278 55.4478 39.9789 55.4478 39.9789C55.4478 39.9789 55.9664 33.2248 58.5776 30.1846C61.2382 27.0869 67.9672 25.6372 67.9672 25.6372V31.5837V38.5797C67.9672 38.5797 70.8906 27.4956 75.2702 25.6372C78.6487 24.2035 84.6597 25.6372 84.6597 25.6372C84.6597 25.6372 81.8673 28.0527 81.1821 30.1846C80.5555 32.1343 81.1821 35.4315 81.1821 35.4315C81.1821 35.4315 85.9975 30.9851 89.8761 30.1846C93.7707 29.3807 99.9612 31.5837 99.9612 31.5837C99.9612 31.5837 94.9907 32.8581 93.7015 35.4315C92.6015 37.6274 93.7015 41.7279 93.7015 41.7279C93.7015 41.7279 99.2261 38.535 103.091 38.5797C106.827 38.6229 112.133 41.7279 112.133 41.7279C112.133 41.7279 110.167 42.9248 109.003 43.8267C106.34 45.8911 103.091 50.123 103.091 50.123C103.091 50.123 110.031 48.3876 113.872 50.123C117.2 51.6273 120.479 56.7692 120.479 56.7692C120.479 56.7692 117.26 56.3673 115.263 56.7692C112.583 57.3083 109.003 59.9174 109.003 59.9174C109.003 59.9174 119.701 60.305 122.913 65.1643C124.701 67.8681 125 73.2097 125 73.2097C125 73.2097 118.402 66.7424 115.263 67C115.263 67 107.266 63.0656 112.133 73.2097C117 83.3538 112.133 83.3538 112.133 83.3538Z" fill="#8B7E7E"/>
<path d="M112.133 83.3538C109.003 88.2077 35.6254 83.3538 35.6254 83.3538C35.6254 83.3538 30.6746 82.7883 28.3224 80.9053C25.6595 78.7735 24.7505 76.5792 24.1493 73.2097C23.8134 71.3273 24.1493 68.3125 24.1493 68.3125C24.1493 68.3125 26.4569 70.5105 28.3224 71.1109C30.392 71.7771 33.8866 71.1109 33.8866 71.1109C33.8866 71.1109 29.2179 64.721 28.3224 59.9174C27.7217 56.695 28.3224 51.5222 28.3224 51.5222C28.3224 51.5222 31.3132 55.2606 33.8866 56.7692C35.412 57.6634 38.0597 58.5182 38.0597 58.5182C38.0597 58.5182 33.5238 52.6458 33.8866 48.374C34.2021 44.659 38.4075 39.9789 38.4075 39.9789C38.4075 39.9789 39.2481 43.8088 40.8418 45.5757C42.2348 47.12 45.3627 48.374 45.3627 48.374V45.5757C45.3627 45.5757 43.7983 39.0671 45.3627 35.4315C46.8123 32.063 51.9702 28.7854 51.9702 28.7854C51.9702 28.7854 52.1234 32.9611 53.0135 35.4315C53.6966 37.3278 55.4478 39.9789 55.4478 39.9789C55.4478 39.9789 55.9664 33.2248 58.5776 30.1846C61.2382 27.0869 67.9672 25.6372 67.9672 25.6372V31.5837V38.5797C67.9672 38.5797 70.8906 27.4956 75.2702 25.6372C78.6487 24.2035 84.6597 25.6372 84.6597 25.6372C84.6597 25.6372 81.8673 28.0527 81.1821 30.1846C80.5555 32.1343 81.1821 35.4315 81.1821 35.4315C81.1821 35.4315 85.9975 30.9851 89.8761 30.1846C93.7707 29.3807 99.9612 31.5837 99.9612 31.5837C99.9612 31.5837 94.9907 32.8581 93.7015 35.4315C92.6015 37.6274 93.7015 41.7279 93.7015 41.7279C93.7015 41.7279 99.2261 38.535 103.091 38.5797C106.827 38.6229 112.133 41.7279 112.133 41.7279C112.133 41.7279 110.167 42.9248 109.003 43.8267C106.34 45.8911 103.091 50.123 103.091 50.123C103.091 50.123 110.031 48.3876 113.872 50.123C117.2 51.6273 120.479 56.7692 120.479 56.7692C120.479 56.7692 117.26 56.3673 115.263 56.7692C112.583 57.3083 109.003 59.9174 109.003 59.9174C109.003 59.9174 119.701 60.305 122.913 65.1643C124.701 67.8681 125 73.2097 125 73.2097C125 73.2097 118.402 66.7424 115.263 67C115.263 67 107.266 63.0656 112.133 73.2097C117 83.3538 112.133 83.3538 112.133 83.3538Z" stroke="black" stroke-width="3" stroke-linecap="round"/>
</g>
<path d="M74.4995 66C70.6183 65.73 67.8625 66.3657 64.9995 69C60.9126 72.7606 62.4995 83 62.4995 83L82.9995 83.5C82.9995 83.5 84.1362 80.8165 84.4995 79C85.0739 76.128 85.6731 74.1836 84.4995 71.5C82.7137 67.4165 78.9457 66.3093 74.4995 66Z" fill="#443E3E" stroke="black" stroke-width="3" stroke-linecap="round"/>
<path d="M73.8901 73.0326C72.032 72.8788 70.7126 73.2408 69.342 74.7413C67.3854 76.8832 68.1452 82.7152 68.1452 82.7152L77.9593 83C77.9593 83 78.5035 81.4715 78.6775 80.4369C78.9524 78.8011 79.2393 77.6936 78.6775 76.1652C77.8225 73.8393 76.0186 73.2087 73.8901 73.0326Z" fill="black" stroke="black" stroke-width="3" stroke-linecap="round"/>
<defs>
<filter id="filter0_i_430_412" x="0.5" y="0.499756" width="148.329" height="101.073" filterUnits="userSpaceOnUse" color-interpolation-filters="sRGB">
<feFlood flood-opacity="0" result="BackgroundImageFix"/>
<feBlend mode="normal" in="SourceGraphic" in2="BackgroundImageFix" result="shape"/>
<feColorMatrix in="SourceAlpha" type="matrix" values="0 0 0 0 0 0 0 0 0 0 0 0 0 0 0 0 0 0 127 0" result="hardAlpha"/>
<feOffset dy="4"/>
<feGaussianBlur stdDeviation="5"/>
<feComposite in2="hardAlpha" operator="arithmetic" k2="-1" k3="1"/>
<feColorMatrix type="matrix" values="0 0 0 0 0 0 0 0 0 0 0 0 0 0 0 0 0 0 0.8 0"/>
<feBlend mode="normal" in2="shape" result="effect1_innerShadow_430_412"/>
</filter>
<filter id="filter1_di_430_412" x="18.5" y="23.4998" width="112.214" height="71.5112" filterUnits="userSpaceOnUse" color-interpolation-filters="sRGB">
<feFlood flood-opacity="0" result="BackgroundImageFix"/>
<feColorMatrix in="SourceAlpha" type="matrix" values="0 0 0 0 0 0 0 0 0 0 0 0 0 0 0 0 0 0 127 0" result="hardAlpha"/>
<feOffset dy="4"/>
<feGaussianBlur stdDeviation="2"/>
<feComposite in2="hardAlpha" operator="out"/>
<feColorMatrix type="matrix" values="0 0 0 0 0 0 0 0 0 0 0 0 0 0 0 0 0 0 0.25 0"/>
<feBlend mode="normal" in2="BackgroundImageFix" result="effect1_dropShadow_430_412"/>
<feBlend mode="normal" in="SourceGraphic" in2="effect1_dropShadow_430_412" result="shape"/>
<feColorMatrix in="SourceAlpha" type="matrix" values="0 0 0 0 0 0 0 0 0 0 0 0 0 0 0 0 0 0 127 0" result="hardAlpha"/>
<feOffset dy="4"/>
<feGaussianBlur stdDeviation="5"/>
<feComposite in2="hardAlpha" operator="arithmetic" k2="-1" k3="1"/>
<feColorMatrix type="matrix" values="0 0 0 0 0 0 0 0 0 0 0 0 0 0 0 0 0 0 0.8 0"/>
<feBlend mode="normal" in2="shape" result="effect2_innerShadow_430_412"/>
</filter>
</defs>
</svg>
