<svg width="394" height="230" viewBox="0 0 394 230" fill="none" xmlns="http://www.w3.org/2000/svg">
<g filter="url(#filter0_i_435_555)">
<path d="M293 83.5103L173 156.011L169 146.011L165 135.01C165 135.01 294 44.5097 297.5 61.0103C301 77.5108 293 83.5103 293 83.5103Z" fill="#928D8D"/>
</g>
<path d="M293 83.5103L173 156.011L169 146.011L165 135.01C165 135.01 294 44.5097 297.5 61.0103C301 77.5108 293 83.5103 293 83.5103Z" stroke="black" stroke-width="3" stroke-linecap="round"/>
<g filter="url(#filter1_i_435_555)">
<path d="M186.5 218.025H3C3 218.025 3.71005 172.469 16.5 147.525C28.9181 123.305 39.5937 108.571 64 96.5246C94.4668 81.4873 122.363 78.2416 151 96.5246C171.454 109.583 178.779 124.519 186.5 147.525C195.26 173.626 186.5 218.025 186.5 218.025Z" fill="#928D8D"/>
</g>
<path d="M186.5 218.025H3C3 218.025 3.71005 172.469 16.5 147.525C28.9181 123.305 39.5937 108.571 64 96.5246C94.4668 81.4873 122.363 78.2416 151 96.5246C171.454 109.583 178.779 124.519 186.5 147.525C195.26 173.626 186.5 218.025 186.5 218.025Z" stroke="black" stroke-width="3" stroke-linecap="round"/>
<g filter="url(#filter2_i_435_555)">
<path d="M186 228H2V204H189L186 228Z" fill="#464444"/>
</g>
<path d="M186 228H2V204H189L186 228Z" stroke="black" stroke-width="3" stroke-linecap="round"/>
<g filter="url(#filter3_i_435_555)">
<path d="M330 78.5649C319 76.5648 296 81.5649 296 81.5649C296 81.5649 299.3 75.6923 299.5 69.5C299.666 64.3706 297 58.5 297 58.5C297 58.5 355.5 20.0649 366 15.0649C376.5 10.0648 377.389 12.0056 383.5 15.0649C396.102 21.3733 395.087 50.6488 381 51.0649C375.814 51.2181 373.684 46.3614 368.5 46.5649C358.839 46.9441 360.713 61.6321 351.5 64.5649C345.732 66.4009 341.034 61.2036 336 64.5649C331.053 67.8679 341 80.5649 330 78.5649Z" fill="#6A2020"/>
</g>
<path d="M330 78.5649C319 76.5648 296 81.5649 296 81.5649C296 81.5649 299.3 75.6923 299.5 69.5C299.666 64.3706 297 58.5 297 58.5C297 58.5 355.5 20.0649 366 15.0649C376.5 10.0648 377.389 12.0056 383.5 15.0649C396.102 21.3733 395.087 50.6488 381 51.0649C375.814 51.2181 373.684 46.3614 368.5 46.5649C358.839 46.9441 360.713 61.6321 351.5 64.5649C345.732 66.4009 341.034 61.2036 336 64.5649C331.053 67.8679 341 80.5649 330 78.5649Z" stroke="black" stroke-width="3" stroke-linecap="round"/>
<g filter="url(#filter4_i_435_555)">
<path d="M289.796 32.9972C285.033 43.1395 282.291 60.6905 282.291 60.6905L265.642 68.3928C265.642 68.3928 270.669 40.3125 281.395 26.5226C291.374 13.6929 315.024 2.00005 315.024 2.00005C315.024 2.00005 296.43 18.8698 289.796 32.9972Z" fill="#928D8D"/>
</g>
<path d="M289.796 32.9972C285.033 43.1395 282.291 60.6905 282.291 60.6905L265.642 68.3928C265.642 68.3928 270.669 40.3125 281.395 26.5226C291.374 13.6929 315.024 2.00005 315.024 2.00005C315.024 2.00005 296.43 18.8698 289.796 32.9972Z" stroke="black" stroke-width="3" stroke-linecap="round"/>
<g filter="url(#filter5_di_435_555)">
<path d="M28.5 180L31 183.365V189.615L27.5 192.5H23L20 189.615V183.365L23 180H28.5Z" fill="#D9D9D9"/>
<path d="M28.5 180L31 183.365V189.615L27.5 192.5H23L20 189.615V183.365L23 180H28.5Z" stroke="black" stroke-width="2" stroke-linecap="round"/>
</g>
<g filter="url(#filter6_d_435_555)">
<ellipse cx="25.5" cy="186.25" rx="3" ry="2.88462" fill="#3B3A3A"/>
<path d="M28 186.25C28 187.549 26.8994 188.635 25.5 188.635C24.1006 188.635 23 187.549 23 186.25C23 184.951 24.1006 183.865 25.5 183.865C26.8994 183.865 28 184.951 28 186.25Z" stroke="black"/>
</g>
<g filter="url(#filter7_di_435_555)">
<path d="M175.5 180L178 183.365V189.615L174.5 192.5H170L167 189.615V183.365L170 180H175.5Z" fill="#D9D9D9"/>
<path d="M175.5 180L178 183.365V189.615L174.5 192.5H170L167 189.615V183.365L170 180H175.5Z" stroke="black" stroke-width="2" stroke-linecap="round"/>
</g>
<g filter="url(#filter8_d_435_555)">
<ellipse cx="172.5" cy="186.25" rx="3" ry="2.88462" fill="#3B3A3A"/>
<path d="M175 186.25C175 187.549 173.899 188.635 172.5 188.635C171.101 188.635 170 187.549 170 186.25C170 184.951 171.101 183.865 172.5 183.865C173.899 183.865 175 184.951 175 186.25Z" stroke="black"/>
</g>
<g filter="url(#filter9_di_435_555)">
<path d="M48.5 128L51 131.365V137.615L47.5 140.5H43L40 137.615V131.365L43 128H48.5Z" fill="#D9D9D9"/>
<path d="M48.5 128L51 131.365V137.615L47.5 140.5H43L40 137.615V131.365L43 128H48.5Z" stroke="black" stroke-width="2" stroke-linecap="round"/>
</g>
<g filter="url(#filter10_d_435_555)">
<ellipse cx="45.5" cy="134.25" rx="3" ry="2.88462" fill="#3B3A3A"/>
<path d="M48 134.25C48 135.549 46.8994 136.635 45.5 136.635C44.1006 136.635 43 135.549 43 134.25C43 132.951 44.1006 131.865 45.5 131.865C46.8994 131.865 48 132.951 48 134.25Z" stroke="black"/>
</g>
<g filter="url(#filter11_di_435_555)">
<path d="M110.5 99L113 102.365V108.615L109.5 111.5H105L102 108.615V102.365L105 99H110.5Z" fill="#D9D9D9"/>
<path d="M110.5 99L113 102.365V108.615L109.5 111.5H105L102 108.615V102.365L105 99H110.5Z" stroke="black" stroke-width="2" stroke-linecap="round"/>
</g>
<g filter="url(#filter12_d_435_555)">
<ellipse cx="107.5" cy="105.25" rx="3" ry="2.88462" fill="#3B3A3A"/>
<path d="M110 105.25C110 106.549 108.899 107.635 107.5 107.635C106.101 107.635 105 106.549 105 105.25C105 103.951 106.101 102.865 107.5 102.865C108.899 102.865 110 103.951 110 105.25Z" stroke="black"/>
</g>
<g filter="url(#filter13_di_435_555)">
<path d="M164.5 128L167 131.365V137.615L163.5 140.5H159L156 137.615V131.365L159 128H164.5Z" fill="#D9D9D9"/>
<path d="M164.5 128L167 131.365V137.615L163.5 140.5H159L156 137.615V131.365L159 128H164.5Z" stroke="black" stroke-width="2" stroke-linecap="round"/>
</g>
<g filter="url(#filter14_d_435_555)">
<ellipse cx="161.5" cy="134.25" rx="3" ry="2.88462" fill="#3B3A3A"/>
<path d="M164 134.25C164 135.549 162.899 136.635 161.5 136.635C160.101 136.635 159 135.549 159 134.25C159 132.951 160.101 131.865 161.5 131.865C162.899 131.865 164 132.951 164 134.25Z" stroke="black"/>
</g>
<path d="M102.666 178.108C96.9996 178.113 93.0609 179.319 89.1712 183.44C83.6187 189.322 86.9737 204.036 86.9737 204.036L116.809 202.662C116.809 202.662 118.186 198.647 118.527 195.97C119.068 191.739 119.739 188.852 117.759 185.074C114.746 179.324 109.158 178.101 102.666 178.108Z" fill="#443E3E" stroke="black" stroke-width="3" stroke-linecap="round"/>
<path d="M102.501 188.387C99.7855 188.354 97.9058 189.016 96.0682 191.336C93.445 194.648 95.1464 203.044 95.1464 203.044L109.435 202.452C109.435 202.452 110.069 200.175 110.215 198.655C110.447 196.25 110.75 194.611 109.777 192.448C108.297 189.157 105.611 188.425 102.501 188.387Z" fill="black" stroke="black" stroke-width="3" stroke-linecap="round"/>
<path d="M156.438 110.555C148.636 104.104 134 97.1306 134 97.1306C134 97.1306 137.877 96.8368 140.329 97.1306C148.86 98.1527 152.615 102.828 158.74 108.517C162.613 112.115 167.37 118.818 167.37 118.818L176 134C176 134 165.729 118.236 156.438 110.555Z" fill="#CECECE" stroke="#CECECE" stroke-width="0.1" stroke-linecap="round"/>
<path d="M283.5 25C287.824 19.7803 305.5 9 305.5 9C305.5 9 289.559 20.2442 285.5 26C280.21 33.5018 279.5 37.5 279.5 37.5L275.5 40C275.5 40 277.982 31.6604 283.5 25Z" fill="#CECECE" stroke="#CECECE" stroke-width="0.1" stroke-linecap="round"/>
<path d="M216.5 104.5L210 106.244C210 106.244 233.968 91.844 248.5 82C264 71.5 290.5 61 290.5 61C290.5 61 294.995 59.3257 296 61C296.603 62.0046 296.5 65 296.5 65C296.5 65 295.077 61.1349 278 70.5C264.787 77.746 216.5 104.5 216.5 104.5Z" fill="#D9D9D9" stroke="#CECECE" stroke-width="0.1" stroke-linecap="round"/>
<path d="M292 60.5C292.338 60.3876 291 62 291 62L238.009 89.5005L238.509 88.5005C238.509 88.5005 263.494 69.9996 292 60.5Z" fill="#E9E9E9" stroke="#CECECE" stroke-width="0.1" stroke-linecap="round"/>
<path d="M275.5 40L278 38.5C278 38.5 277.922 35.7049 278.5 34C279.944 29.7428 281.85 27.7068 285 24.5C286.945 22.5202 290.5 19.5 290.5 19.5L298.5 13.5C298.5 13.5 289.886 18.614 285.5 23C281.114 27.386 281.81 26.7103 280 29.5C277.572 33.2428 275.5 40 275.5 40Z" fill="#E8E7E7" stroke="#CECECE" stroke-width="0.1" stroke-linecap="round"/>
<defs>
<filter id="filter0_i_435_555" x="163.197" y="57.5001" width="136.688" height="104.708" filterUnits="userSpaceOnUse" color-interpolation-filters="sRGB">
<feFlood flood-opacity="0" result="BackgroundImageFix"/>
<feBlend mode="normal" in="SourceGraphic" in2="BackgroundImageFix" result="shape"/>
<feColorMatrix in="SourceAlpha" type="matrix" values="0 0 0 0 0 0 0 0 0 0 0 0 0 0 0 0 0 0 127 0" result="hardAlpha"/>
<feOffset dy="4"/>
<feGaussianBlur stdDeviation="3"/>
<feComposite in2="hardAlpha" operator="arithmetic" k2="-1" k3="1"/>
<feColorMatrix type="matrix" values="0 0 0 0 0 0 0 0 0 0 0 0 0 0 0 0 0 0 0.8 0"/>
<feBlend mode="normal" in2="shape" result="effect1_innerShadow_435_555"/>
</filter>
<filter id="filter1_i_435_555" x="1.47656" y="82.5" width="190.417" height="141.025" filterUnits="userSpaceOnUse" color-interpolation-filters="sRGB">
<feFlood flood-opacity="0" result="BackgroundImageFix"/>
<feBlend mode="normal" in="SourceGraphic" in2="BackgroundImageFix" result="shape"/>
<feColorMatrix in="SourceAlpha" type="matrix" values="0 0 0 0 0 0 0 0 0 0 0 0 0 0 0 0 0 0 127 0" result="hardAlpha"/>
<feOffset dy="4"/>
<feGaussianBlur stdDeviation="3"/>
<feComposite in2="hardAlpha" operator="arithmetic" k2="-1" k3="1"/>
<feColorMatrix type="matrix" values="0 0 0 0 0 0 0 0 0 0 0 0 0 0 0 0 0 0 0.8 0"/>
<feBlend mode="normal" in2="shape" result="effect1_innerShadow_435_555"/>
</filter>
<filter id="filter2_i_435_555" x="0.5" y="202.5" width="190.199" height="31" filterUnits="userSpaceOnUse" color-interpolation-filters="sRGB">
<feFlood flood-opacity="0" result="BackgroundImageFix"/>
<feBlend mode="normal" in="SourceGraphic" in2="BackgroundImageFix" result="shape"/>
<feColorMatrix in="SourceAlpha" type="matrix" values="0 0 0 0 0 0 0 0 0 0 0 0 0 0 0 0 0 0 127 0" result="hardAlpha"/>
<feOffset dy="4"/>
<feGaussianBlur stdDeviation="3.5"/>
<feComposite in2="hardAlpha" operator="arithmetic" k2="-1" k3="1"/>
<feColorMatrix type="matrix" values="0 0 0 0 0 0 0 0 0 0 0 0 0 0 0 0 0 0 0.8 0"/>
<feBlend mode="normal" in2="shape" result="effect1_innerShadow_435_555"/>
</filter>
<filter id="filter3_i_435_555" x="293.057" y="10.5002" width="100.745" height="77.2394" filterUnits="userSpaceOnUse" color-interpolation-filters="sRGB">
<feFlood flood-opacity="0" result="BackgroundImageFix"/>
<feBlend mode="normal" in="SourceGraphic" in2="BackgroundImageFix" result="shape"/>
<feColorMatrix in="SourceAlpha" type="matrix" values="0 0 0 0 0 0 0 0 0 0 0 0 0 0 0 0 0 0 127 0" result="hardAlpha"/>
<feOffset dy="4"/>
<feGaussianBlur stdDeviation="3"/>
<feComposite in2="hardAlpha" operator="arithmetic" k2="-1" k3="1"/>
<feColorMatrix type="matrix" values="0 0 0 0 0 0 0 0 0 0 0 0 0 0 0 0 0 0 0.8 0"/>
<feBlend mode="normal" in2="shape" result="effect1_innerShadow_435_555"/>
</filter>
<filter id="filter4_i_435_555" x="263.659" y="0.655396" width="52.373" height="74.308" filterUnits="userSpaceOnUse" color-interpolation-filters="sRGB">
<feFlood flood-opacity="0" result="BackgroundImageFix"/>
<feBlend mode="normal" in="SourceGraphic" in2="BackgroundImageFix" result="shape"/>
<feColorMatrix in="SourceAlpha" type="matrix" values="0 0 0 0 0 0 0 0 0 0 0 0 0 0 0 0 0 0 127 0" result="hardAlpha"/>
<feOffset dy="4"/>
<feGaussianBlur stdDeviation="3.5"/>
<feComposite in2="hardAlpha" operator="arithmetic" k2="-1" k3="1"/>
<feColorMatrix type="matrix" values="0 0 0 0 0 0 0 0 0 0 0 0 0 0 0 0 0 0 0.8 0"/>
<feBlend mode="normal" in2="shape" result="effect1_innerShadow_435_555"/>
</filter>
<filter id="filter5_di_435_555" x="15" y="179" width="21" height="22.5" filterUnits="userSpaceOnUse" color-interpolation-filters="sRGB">
<feFlood flood-opacity="0" result="BackgroundImageFix"/>
<feColorMatrix in="SourceAlpha" type="matrix" values="0 0 0 0 0 0 0 0 0 0 0 0 0 0 0 0 0 0 127 0" result="hardAlpha"/>
<feOffset dy="4"/>
<feGaussianBlur stdDeviation="2"/>
<feComposite in2="hardAlpha" operator="out"/>
<feColorMatrix type="matrix" values="0 0 0 0 0 0 0 0 0 0 0 0 0 0 0 0 0 0 0.25 0"/>
<feBlend mode="normal" in2="BackgroundImageFix" result="effect1_dropShadow_435_555"/>
<feBlend mode="normal" in="SourceGraphic" in2="effect1_dropShadow_435_555" result="shape"/>
<feColorMatrix in="SourceAlpha" type="matrix" values="0 0 0 0 0 0 0 0 0 0 0 0 0 0 0 0 0 0 127 0" result="hardAlpha"/>
<feOffset dy="4"/>
<feGaussianBlur stdDeviation="3"/>
<feComposite in2="hardAlpha" operator="arithmetic" k2="-1" k3="1"/>
<feColorMatrix type="matrix" values="0 0 0 0 0 0 0 0 0 0 0 0 0 0 0 0 0 0 0.8 0"/>
<feBlend mode="normal" in2="shape" result="effect2_innerShadow_435_555"/>
</filter>
<filter id="filter6_d_435_555" x="18.5" y="183.365" width="14" height="13.7692" filterUnits="userSpaceOnUse" color-interpolation-filters="sRGB">
<feFlood flood-opacity="0" result="BackgroundImageFix"/>
<feColorMatrix in="SourceAlpha" type="matrix" values="0 0 0 0 0 0 0 0 0 0 0 0 0 0 0 0 0 0 127 0" result="hardAlpha"/>
<feOffset dy="4"/>
<feGaussianBlur stdDeviation="2"/>
<feComposite in2="hardAlpha" operator="out"/>
<feColorMatrix type="matrix" values="0 0 0 0 0 0 0 0 0 0 0 0 0 0 0 0 0 0 0.8 0"/>
<feBlend mode="normal" in2="BackgroundImageFix" result="effect1_dropShadow_435_555"/>
<feBlend mode="normal" in="SourceGraphic" in2="effect1_dropShadow_435_555" result="shape"/>
</filter>
<filter id="filter7_di_435_555" x="162" y="179" width="21" height="22.5" filterUnits="userSpaceOnUse" color-interpolation-filters="sRGB">
<feFlood flood-opacity="0" result="BackgroundImageFix"/>
<feColorMatrix in="SourceAlpha" type="matrix" values="0 0 0 0 0 0 0 0 0 0 0 0 0 0 0 0 0 0 127 0" result="hardAlpha"/>
<feOffset dy="4"/>
<feGaussianBlur stdDeviation="2"/>
<feComposite in2="hardAlpha" operator="out"/>
<feColorMatrix type="matrix" values="0 0 0 0 0 0 0 0 0 0 0 0 0 0 0 0 0 0 0.25 0"/>
<feBlend mode="normal" in2="BackgroundImageFix" result="effect1_dropShadow_435_555"/>
<feBlend mode="normal" in="SourceGraphic" in2="effect1_dropShadow_435_555" result="shape"/>
<feColorMatrix in="SourceAlpha" type="matrix" values="0 0 0 0 0 0 0 0 0 0 0 0 0 0 0 0 0 0 127 0" result="hardAlpha"/>
<feOffset dy="4"/>
<feGaussianBlur stdDeviation="3"/>
<feComposite in2="hardAlpha" operator="arithmetic" k2="-1" k3="1"/>
<feColorMatrix type="matrix" values="0 0 0 0 0 0 0 0 0 0 0 0 0 0 0 0 0 0 0.8 0"/>
<feBlend mode="normal" in2="shape" result="effect2_innerShadow_435_555"/>
</filter>
<filter id="filter8_d_435_555" x="165.5" y="183.365" width="14" height="13.7692" filterUnits="userSpaceOnUse" color-interpolation-filters="sRGB">
<feFlood flood-opacity="0" result="BackgroundImageFix"/>
<feColorMatrix in="SourceAlpha" type="matrix" values="0 0 0 0 0 0 0 0 0 0 0 0 0 0 0 0 0 0 127 0" result="hardAlpha"/>
<feOffset dy="4"/>
<feGaussianBlur stdDeviation="2"/>
<feComposite in2="hardAlpha" operator="out"/>
<feColorMatrix type="matrix" values="0 0 0 0 0 0 0 0 0 0 0 0 0 0 0 0 0 0 0.8 0"/>
<feBlend mode="normal" in2="BackgroundImageFix" result="effect1_dropShadow_435_555"/>
<feBlend mode="normal" in="SourceGraphic" in2="effect1_dropShadow_435_555" result="shape"/>
</filter>
<filter id="filter9_di_435_555" x="35" y="127" width="21" height="22.5" filterUnits="userSpaceOnUse" color-interpolation-filters="sRGB">
<feFlood flood-opacity="0" result="BackgroundImageFix"/>
<feColorMatrix in="SourceAlpha" type="matrix" values="0 0 0 0 0 0 0 0 0 0 0 0 0 0 0 0 0 0 127 0" result="hardAlpha"/>
<feOffset dy="4"/>
<feGaussianBlur stdDeviation="2"/>
<feComposite in2="hardAlpha" operator="out"/>
<feColorMatrix type="matrix" values="0 0 0 0 0 0 0 0 0 0 0 0 0 0 0 0 0 0 0.25 0"/>
<feBlend mode="normal" in2="BackgroundImageFix" result="effect1_dropShadow_435_555"/>
<feBlend mode="normal" in="SourceGraphic" in2="effect1_dropShadow_435_555" result="shape"/>
<feColorMatrix in="SourceAlpha" type="matrix" values="0 0 0 0 0 0 0 0 0 0 0 0 0 0 0 0 0 0 127 0" result="hardAlpha"/>
<feOffset dy="4"/>
<feGaussianBlur stdDeviation="3"/>
<feComposite in2="hardAlpha" operator="arithmetic" k2="-1" k3="1"/>
<feColorMatrix type="matrix" values="0 0 0 0 0 0 0 0 0 0 0 0 0 0 0 0 0 0 0.8 0"/>
<feBlend mode="normal" in2="shape" result="effect2_innerShadow_435_555"/>
</filter>
<filter id="filter10_d_435_555" x="38.5" y="131.365" width="14" height="13.7693" filterUnits="userSpaceOnUse" color-interpolation-filters="sRGB">
<feFlood flood-opacity="0" result="BackgroundImageFix"/>
<feColorMatrix in="SourceAlpha" type="matrix" values="0 0 0 0 0 0 0 0 0 0 0 0 0 0 0 0 0 0 127 0" result="hardAlpha"/>
<feOffset dy="4"/>
<feGaussianBlur stdDeviation="2"/>
<feComposite in2="hardAlpha" operator="out"/>
<feColorMatrix type="matrix" values="0 0 0 0 0 0 0 0 0 0 0 0 0 0 0 0 0 0 0.8 0"/>
<feBlend mode="normal" in2="BackgroundImageFix" result="effect1_dropShadow_435_555"/>
<feBlend mode="normal" in="SourceGraphic" in2="effect1_dropShadow_435_555" result="shape"/>
</filter>
<filter id="filter11_di_435_555" x="97" y="98" width="21" height="22.5" filterUnits="userSpaceOnUse" color-interpolation-filters="sRGB">
<feFlood flood-opacity="0" result="BackgroundImageFix"/>
<feColorMatrix in="SourceAlpha" type="matrix" values="0 0 0 0 0 0 0 0 0 0 0 0 0 0 0 0 0 0 127 0" result="hardAlpha"/>
<feOffset dy="4"/>
<feGaussianBlur stdDeviation="2"/>
<feComposite in2="hardAlpha" operator="out"/>
<feColorMatrix type="matrix" values="0 0 0 0 0 0 0 0 0 0 0 0 0 0 0 0 0 0 0.25 0"/>
<feBlend mode="normal" in2="BackgroundImageFix" result="effect1_dropShadow_435_555"/>
<feBlend mode="normal" in="SourceGraphic" in2="effect1_dropShadow_435_555" result="shape"/>
<feColorMatrix in="SourceAlpha" type="matrix" values="0 0 0 0 0 0 0 0 0 0 0 0 0 0 0 0 0 0 127 0" result="hardAlpha"/>
<feOffset dy="4"/>
<feGaussianBlur stdDeviation="3"/>
<feComposite in2="hardAlpha" operator="arithmetic" k2="-1" k3="1"/>
<feColorMatrix type="matrix" values="0 0 0 0 0 0 0 0 0 0 0 0 0 0 0 0 0 0 0.8 0"/>
<feBlend mode="normal" in2="shape" result="effect2_innerShadow_435_555"/>
</filter>
<filter id="filter12_d_435_555" x="100.5" y="102.365" width="14" height="13.7693" filterUnits="userSpaceOnUse" color-interpolation-filters="sRGB">
<feFlood flood-opacity="0" result="BackgroundImageFix"/>
<feColorMatrix in="SourceAlpha" type="matrix" values="0 0 0 0 0 0 0 0 0 0 0 0 0 0 0 0 0 0 127 0" result="hardAlpha"/>
<feOffset dy="4"/>
<feGaussianBlur stdDeviation="2"/>
<feComposite in2="hardAlpha" operator="out"/>
<feColorMatrix type="matrix" values="0 0 0 0 0 0 0 0 0 0 0 0 0 0 0 0 0 0 0.8 0"/>
<feBlend mode="normal" in2="BackgroundImageFix" result="effect1_dropShadow_435_555"/>
<feBlend mode="normal" in="SourceGraphic" in2="effect1_dropShadow_435_555" result="shape"/>
</filter>
<filter id="filter13_di_435_555" x="151" y="127" width="21" height="22.5" filterUnits="userSpaceOnUse" color-interpolation-filters="sRGB">
<feFlood flood-opacity="0" result="BackgroundImageFix"/>
<feColorMatrix in="SourceAlpha" type="matrix" values="0 0 0 0 0 0 0 0 0 0 0 0 0 0 0 0 0 0 127 0" result="hardAlpha"/>
<feOffset dy="4"/>
<feGaussianBlur stdDeviation="2"/>
<feComposite in2="hardAlpha" operator="out"/>
<feColorMatrix type="matrix" values="0 0 0 0 0 0 0 0 0 0 0 0 0 0 0 0 0 0 0.25 0"/>
<feBlend mode="normal" in2="BackgroundImageFix" result="effect1_dropShadow_435_555"/>
<feBlend mode="normal" in="SourceGraphic" in2="effect1_dropShadow_435_555" result="shape"/>
<feColorMatrix in="SourceAlpha" type="matrix" values="0 0 0 0 0 0 0 0 0 0 0 0 0 0 0 0 0 0 127 0" result="hardAlpha"/>
<feOffset dy="4"/>
<feGaussianBlur stdDeviation="3"/>
<feComposite in2="hardAlpha" operator="arithmetic" k2="-1" k3="1"/>
<feColorMatrix type="matrix" values="0 0 0 0 0 0 0 0 0 0 0 0 0 0 0 0 0 0 0.8 0"/>
<feBlend mode="normal" in2="shape" result="effect2_innerShadow_435_555"/>
</filter>
<filter id="filter14_d_435_555" x="154.5" y="131.365" width="14" height="13.7693" filterUnits="userSpaceOnUse" color-interpolation-filters="sRGB">
<feFlood flood-opacity="0" result="BackgroundImageFix"/>
<feColorMatrix in="SourceAlpha" type="matrix" values="0 0 0 0 0 0 0 0 0 0 0 0 0 0 0 0 0 0 127 0" result="hardAlpha"/>
<feOffset dy="4"/>
<feGaussianBlur stdDeviation="2"/>
<feComposite in2="hardAlpha" operator="out"/>
<feColorMatrix type="matrix" values="0 0 0 0 0 0 0 0 0 0 0 0 0 0 0 0 0 0 0.8 0"/>
<feBlend mode="normal" in2="BackgroundImageFix" result="effect1_dropShadow_435_555"/>
<feBlend mode="normal" in="SourceGraphic" in2="effect1_dropShadow_435_555" result="shape"/>
</filter>
</defs>
</svg>
