<svg width="255" height="225" viewBox="0 0 255 225" fill="none" xmlns="http://www.w3.org/2000/svg">
<path d="M228.5 163L235.5 168L228.819 168.395L228.5 163Z" fill="black" stroke="black" stroke-width="3" stroke-linecap="round"/>
<path d="M229 170.5V71.8775L213 73.5V172.466L229 170.5Z" fill="#864D1D"/>
<path d="M78 83.5L82.5 188.5L101 186.227L213 172.466V73.5L78 83.5Z" fill="#532D19"/>
<path d="M101 83.5V186.227M101 186.227L82.5 188.5L78 83.5L213 73.5M101 186.227L213 172.466M213 172.466L229 170.5V71.8775L213 73.5M213 172.466V73.5" stroke="black" stroke-width="3" stroke-linecap="round"/>
<g filter="url(#filter0_di_437_636)">
<path d="M210.5 88L127 183H101.5V162L183.5 77.5L210.5 73.5V88Z" fill="#864D1D"/>
<path d="M210.5 88L127 183H101.5V162L183.5 77.5L210.5 73.5V88Z" stroke="black" stroke-width="3" stroke-linecap="round"/>
</g>
<g filter="url(#filter1_i_437_636)">
<path d="M63.5 175.948L79.5 188L76.5 80.0306L60.5 73L63.5 175.948Z" fill="#5D3412"/>
</g>
<path d="M63.5 175.948L79.5 188L76.5 80.0306L60.5 73L63.5 175.948Z" stroke="black" stroke-width="3" stroke-linecap="round"/>
<path d="M7.5 133L60.6259 174.763L78.5 188.186V221L10.479 164.322L7.5 133Z" fill="#5D3412" stroke="black" stroke-width="3" stroke-linecap="round"/>
<path d="M233.071 200.078L81.5 222V188.863L237.5 170L233.071 200.078Z" fill="#864D1D" stroke="black" stroke-width="3" stroke-linecap="round"/>
<g filter="url(#filter2_i_437_636)">
<path d="M30.5 58.5V148L16 138.5L12 48.5L30.5 58.5Z" fill="#5D3412"/>
</g>
<path d="M30.5 58.5V148L16 138.5L12 48.5L30.5 58.5Z" stroke="black" stroke-width="3" stroke-linecap="round"/>
<g filter="url(#filter3_di_437_636)">
<path d="M60.5 107.5L35.5 151.5L31 150V118L58.5 75.5L60.5 107.5Z" fill="#5D3412"/>
<path d="M60.5 107.5L35.5 151.5L31 150V118L58.5 75.5L60.5 107.5Z" stroke="black" stroke-width="3" stroke-linecap="round"/>
</g>
<g filter="url(#filter4_di_437_636)">
<path d="M79.5 82L5.5 44V23L79.5 52V82Z" fill="#5D3412"/>
<path d="M79.5 82L5.5 44V23L79.5 52V82Z" stroke="black" stroke-width="3" stroke-linecap="round"/>
</g>
<path d="M234 40L80.5 50.5V83.5L238 71L234 40Z" fill="#864D1D" stroke="black" stroke-width="3" stroke-linecap="round"/>
<path d="M76.5 40.7436V46.5897L80.972 50L236.5 40.7436V31L76.5 40.7436Z" fill="#7E4719" stroke="black" stroke-width="3" stroke-linecap="round"/>
<g filter="url(#filter5_i_437_636)">
<path d="M5 13V20.5L77.5 49.5L74 41L5 13Z" fill="#5D3412"/>
</g>
<path d="M5 13V20.5L77.5 49.5L74 41L5 13Z" stroke="black" stroke-width="3" stroke-linecap="round"/>
<path d="M141.5 8L5 12.5L73.5 40L236 30L141.5 8Z" fill="#BB7438" stroke="black" stroke-width="3" stroke-linecap="round"/>
<path d="M14.5 131H9.5L14.5 136V131Z" fill="black" stroke="black" stroke-width="3" stroke-linecap="round"/>
<path d="M82 188L77.5 84.5L101 82.5V185L82 188Z" fill="#864D1D" stroke="black" stroke-width="3" stroke-linecap="round"/>
<g filter="url(#filter6_di_437_636)">
<path d="M58 73.5L33 112.5L31 59L58 73.5Z" fill="#371D0F"/>
<path d="M58 73.5L33 112.5L31 59L58 73.5Z" stroke="black" stroke-width="3" stroke-linecap="round"/>
</g>
<g filter="url(#filter7_di_437_636)">
<path d="M61.5 173L37 152.5L59.5 111L61.5 173Z" fill="#371D0F"/>
<path d="M61.5 173L37 152.5L59.5 111L61.5 173Z" stroke="black" stroke-width="3" stroke-linecap="round"/>
</g>
<path d="M71.5 78.5V48L78.5 51.5V82L71.5 78.5Z" stroke="black" stroke-width="3" stroke-linecap="round"/>
<path d="M69.5 211.5V182L76.5 187.5V218L69.5 211.5Z" stroke="black" stroke-width="3" stroke-linecap="round"/>
<path d="M10.5 162.681V134L17.5 139.347V169L10.5 162.681Z" stroke="black" stroke-width="3" stroke-linecap="round"/>
<path d="M5.5 47.2206V23L12.5 25.7794V50L5.5 47.2206Z" stroke="black" stroke-width="3" stroke-linecap="round"/>
<path d="M125 70L97 73.0012L102.5 68.0012C102.5 68.0012 115.64 70.3412 125 70Z" fill="black" stroke="black" stroke-linecap="round"/>
<path d="M45.0658 107.498L57.0187 82.0001L58.442 89.2956C58.442 89.2956 49.6273 99.318 45.0658 107.498Z" fill="black" stroke="black" stroke-linecap="round"/>
<path d="M207.5 63.5L230 61V58L206 63.5H207.5Z" fill="black" stroke="black" stroke-linecap="round"/>
<g filter="url(#filter8_d_437_636)">
<path d="M141.5 138.5C137.894 143.435 134.5 152.5 134.5 152.5C134.5 152.5 136 139.5 138 138.5C143.57 135.715 145.23 129.502 150 125.5C154.042 122.109 160.5 118.5 160.5 118.5L177 107C177 107 162 120.5 154.5 124C147 127.5 145.987 132.36 141.5 138.5Z" fill="black"/>
<path d="M141.5 138.5C137.894 143.435 134.5 152.5 134.5 152.5C134.5 152.5 136 139.5 138 138.5C143.57 135.715 145.23 129.502 150 125.5C154.042 122.109 160.5 118.5 160.5 118.5L177 107C177 107 162 120.5 154.5 124C147 127.5 145.987 132.36 141.5 138.5Z" stroke="black" stroke-linecap="round"/>
</g>
<g filter="url(#filter9_d_437_636)">
<path d="M168.253 64.3846C164.774 67.4218 161.5 73 161.5 73C161.5 73 162.947 65 164.876 64.3846C170.249 62.6709 171.851 58.8477 176.453 56.3846C180.352 54.2979 186.582 52.0769 186.582 52.0769L202.5 45C202.5 45 188.029 53.3077 180.794 55.4615C173.559 57.6154 172.582 60.6059 168.253 64.3846Z" fill="black"/>
<path d="M168.253 64.3846C164.774 67.4218 161.5 73 161.5 73C161.5 73 162.947 65 164.876 64.3846C170.249 62.6709 171.851 58.8477 176.453 56.3846C180.352 54.2979 186.582 52.0769 186.582 52.0769L202.5 45C202.5 45 188.029 53.3077 180.794 55.4615C173.559 57.6154 172.582 60.6059 168.253 64.3846Z" stroke="black" stroke-linecap="round"/>
</g>
<path d="M120.253 23.7692C116.774 25.6132 113.5 29 113.5 29C113.5 29 114.947 24.1429 116.876 23.7692C122.249 22.7288 123.851 20.4075 128.453 18.9121C132.352 17.6451 138.582 16.2967 138.582 16.2967L154.5 12C154.5 12 140.029 17.044 132.794 18.3516C125.559 19.6593 124.582 21.475 120.253 23.7692Z" fill="black" stroke="black" stroke-linecap="round"/>
<path d="M45.0383 13.4856C41.1417 12.9188 36.4996 13.7182 36.4996 13.7182C36.4996 13.7182 40.536 10.6534 42.3136 11.4914C47.2639 13.8252 49.9272 12.8979 54.524 14.4091C58.4186 15.6895 64.2427 18.2812 64.2427 18.2812L79.6252 24.2151C79.6252 24.2151 64.9691 19.7389 58.3582 16.5208C51.7473 13.3028 49.8864 14.1909 45.0383 13.4856Z" fill="black" stroke="black" stroke-linecap="round"/>
<g filter="url(#filter10_d_437_636)">
<path d="M221.54 155.386C223.17 161.278 228.17 169.565 228.17 169.565C228.17 169.565 218.91 160.319 219.367 158.13C220.642 152.035 216.802 146.876 216.626 140.652C216.477 135.378 217.657 128.075 217.657 128.075L218.885 108C218.885 108 220.156 128.14 218.244 136.193C216.331 144.245 219.512 148.056 221.54 155.386Z" fill="black"/>
<path d="M221.54 155.386C223.17 161.278 228.17 169.565 228.17 169.565C228.17 169.565 218.91 160.319 219.367 158.13C220.642 152.035 216.802 146.876 216.626 140.652C216.477 135.378 217.657 128.075 217.657 128.075L218.885 108C218.885 108 220.156 128.14 218.244 136.193C216.331 144.245 219.512 148.056 221.54 155.386Z" stroke="black" stroke-linecap="round"/>
</g>
<g filter="url(#filter11_d_437_636)">
<path d="M119.901 164.496C121.832 161.458 123.481 156 123.481 156C123.481 156 123.095 163.698 121.958 164.363C118.791 166.212 118.052 169.927 115.401 172.462C113.155 174.609 109.497 176.977 109.497 176.977L100.237 184.366C100.237 184.366 108.539 175.859 112.813 173.515C117.088 171.172 117.498 168.277 119.901 164.496Z" fill="black"/>
<path d="M119.901 164.496C121.832 161.458 123.481 156 123.481 156C123.481 156 123.095 163.698 121.958 164.363C118.791 166.212 118.052 169.927 115.401 172.462C113.155 174.609 109.497 176.977 109.497 176.977L100.237 184.366C100.237 184.366 108.539 175.859 112.813 173.515C117.088 171.172 117.498 168.277 119.901 164.496Z" stroke="black" stroke-linecap="round"/>
</g>
<g filter="url(#filter12_d_437_636)">
<path d="M20.9926 42.019C15.1441 39.9692 5.50011 39.4436 5.50011 39.4436C5.50011 39.4436 18.1867 36.8211 19.8031 38.5092C24.3044 43.2104 30.688 42.903 36.0582 46.4161C40.608 49.3925 46.1834 54.7234 46.1834 54.7234L62.5628 67.619C62.5628 67.619 44.8198 56.8625 38.9925 50.4525C33.1653 44.0426 28.2692 44.5694 20.9926 42.019Z" fill="black"/>
<path d="M20.9926 42.019C15.1441 39.9692 5.50011 39.4436 5.50011 39.4436C5.50011 39.4436 18.1867 36.8211 19.8031 38.5092C24.3044 43.2104 30.688 42.903 36.0582 46.4161C40.608 49.3925 46.1834 54.7234 46.1834 54.7234L62.5628 67.619C62.5628 67.619 44.8198 56.8625 38.9925 50.4525C33.1653 44.0426 28.2692 44.5694 20.9926 42.019Z" stroke="black" stroke-linecap="round"/>
</g>
<g filter="url(#filter13_d_437_636)">
<path d="M35.9588 128.231C34.1768 130.617 32.5 135 32.5 135C32.5 135 33.2412 128.714 34.2294 128.231C36.9814 126.884 37.8017 123.88 40.1588 121.945C42.1558 120.305 45.3471 118.56 45.3471 118.56L53.5 113C53.5 113 46.0882 119.527 42.3824 121.22C38.6765 122.912 38.176 125.262 35.9588 128.231Z" fill="black"/>
<path d="M35.9588 128.231C34.1768 130.617 32.5 135 32.5 135C32.5 135 33.2412 128.714 34.2294 128.231C36.9814 126.884 37.8017 123.88 40.1588 121.945C42.1558 120.305 45.3471 118.56 45.3471 118.56L53.5 113C53.5 113 46.0882 119.527 42.3824 121.22C38.6765 122.912 38.176 125.262 35.9588 128.231Z" stroke="black" stroke-linecap="round"/>
</g>
<g filter="url(#filter14_d_437_636)">
<path d="M90.5 205.5C99 210 109.006 204 116.003 204C123 204.001 120.5 210.001 143 204.001" stroke="black" stroke-width="3" stroke-linecap="round"/>
</g>
<g filter="url(#filter15_d_437_636)">
<path d="M190.5 191.5C207.604 187.031 232.096 180.738 232.096 180.738L187.778 188.786C180.04 190.192 153.934 198.49 153.934 198.49C153.934 198.49 176.698 195.106 190.5 191.5Z" fill="black"/>
<path d="M190.5 191.5C207.604 187.031 232.096 180.738 232.096 180.738L187.778 188.786C180.04 190.192 153.934 198.49 153.934 198.49C153.934 198.49 176.698 195.106 190.5 191.5Z" stroke="black" stroke-linecap="round"/>
</g>
<path d="M217.5 88V75L221.5 73L217.5 88Z" fill="black" stroke="black" stroke-linecap="round"/>
<path d="M207.5 24C207.5 24 205.178 25.2723 200.706 26.3176C196.255 27.3582 187.389 26.9003 178.513 26.8961C178.473 26.8961 178.432 26.8961 178.392 26.8961C193.303 25.9913 207.5 24 207.5 24Z" fill="black"/>
<path d="M164.5 26.8961C173.425 26.8961 186.326 26.8961 178.392 26.8961M178.392 26.8961C187.309 26.8961 196.235 27.3629 200.706 26.3176C205.178 25.2723 207.5 24 207.5 24C207.5 24 193.303 25.9913 178.392 26.8961Z" stroke="black" stroke-width="3" stroke-linecap="round"/>
<defs>
<filter id="filter0_di_437_636" x="97" y="58.7615" width="118" height="129.739" filterUnits="userSpaceOnUse" color-interpolation-filters="sRGB">
<feFlood flood-opacity="0" result="BackgroundImageFix"/>
<feColorMatrix in="SourceAlpha" type="matrix" values="0 0 0 0 0 0 0 0 0 0 0 0 0 0 0 0 0 0 127 0" result="hardAlpha"/>
<feOffset dy="-10"/>
<feGaussianBlur stdDeviation="1.5"/>
<feComposite in2="hardAlpha" operator="out"/>
<feColorMatrix type="matrix" values="0 0 0 0 0.189306 0 0 0 0 0.100292 0 0 0 0 0.0523611 0 0 0 1 0"/>
<feBlend mode="normal" in2="BackgroundImageFix" result="effect1_dropShadow_437_636"/>
<feBlend mode="normal" in="SourceGraphic" in2="effect1_dropShadow_437_636" result="shape"/>
<feColorMatrix in="SourceAlpha" type="matrix" values="0 0 0 0 0 0 0 0 0 0 0 0 0 0 0 0 0 0 127 0" result="hardAlpha"/>
<feOffset dy="4"/>
<feGaussianBlur stdDeviation="7"/>
<feComposite in2="hardAlpha" operator="arithmetic" k2="-1" k3="1"/>
<feColorMatrix type="matrix" values="0 0 0 0 0 0 0 0 0 0 0 0 0 0 0 0 0 0 0.8 0"/>
<feBlend mode="normal" in2="shape" result="effect2_innerShadow_437_636"/>
</filter>
<filter id="filter1_i_437_636" x="58.9316" y="70.6724" width="22.1543" height="124.4" filterUnits="userSpaceOnUse" color-interpolation-filters="sRGB">
<feFlood flood-opacity="0" result="BackgroundImageFix"/>
<feBlend mode="normal" in="SourceGraphic" in2="BackgroundImageFix" result="shape"/>
<feColorMatrix in="SourceAlpha" type="matrix" values="0 0 0 0 0 0 0 0 0 0 0 0 0 0 0 0 0 0 127 0" result="hardAlpha"/>
<feOffset dy="4"/>
<feGaussianBlur stdDeviation="3.5"/>
<feComposite in2="hardAlpha" operator="arithmetic" k2="-1" k3="1"/>
<feColorMatrix type="matrix" values="0 0 0 0 0 0 0 0 0 0 0 0 0 0 0 0 0 0 0.8 0"/>
<feBlend mode="normal" in2="shape" result="effect1_innerShadow_437_636"/>
</filter>
<filter id="filter2_i_437_636" x="10.3838" y="45.9214" width="21.6162" height="108.855" filterUnits="userSpaceOnUse" color-interpolation-filters="sRGB">
<feFlood flood-opacity="0" result="BackgroundImageFix"/>
<feBlend mode="normal" in="SourceGraphic" in2="BackgroundImageFix" result="shape"/>
<feColorMatrix in="SourceAlpha" type="matrix" values="0 0 0 0 0 0 0 0 0 0 0 0 0 0 0 0 0 0 127 0" result="hardAlpha"/>
<feOffset dy="4"/>
<feGaussianBlur stdDeviation="3.5"/>
<feComposite in2="hardAlpha" operator="arithmetic" k2="-1" k3="1"/>
<feColorMatrix type="matrix" values="0 0 0 0 0 0 0 0 0 0 0 0 0 0 0 0 0 0 0.8 0"/>
<feBlend mode="normal" in2="shape" result="effect1_innerShadow_437_636"/>
</filter>
<filter id="filter3_di_437_636" x="25.5" y="60.864" width="40.5249" height="96.4487" filterUnits="userSpaceOnUse" color-interpolation-filters="sRGB">
<feFlood flood-opacity="0" result="BackgroundImageFix"/>
<feColorMatrix in="SourceAlpha" type="matrix" values="0 0 0 0 0 0 0 0 0 0 0 0 0 0 0 0 0 0 127 0" result="hardAlpha"/>
<feOffset dy="-6"/>
<feGaussianBlur stdDeviation="2"/>
<feComposite in2="hardAlpha" operator="out"/>
<feColorMatrix type="matrix" values="0 0 0 0 0.192157 0 0 0 0 0.105882 0 0 0 0 0.054902 0 0 0 1 0"/>
<feBlend mode="normal" in2="BackgroundImageFix" result="effect1_dropShadow_437_636"/>
<feBlend mode="normal" in="SourceGraphic" in2="effect1_dropShadow_437_636" result="shape"/>
<feColorMatrix in="SourceAlpha" type="matrix" values="0 0 0 0 0 0 0 0 0 0 0 0 0 0 0 0 0 0 127 0" result="hardAlpha"/>
<feOffset dy="4"/>
<feGaussianBlur stdDeviation="4"/>
<feComposite in2="hardAlpha" operator="arithmetic" k2="-1" k3="1"/>
<feColorMatrix type="matrix" values="0 0 0 0 0 0 0 0 0 0 0 0 0 0 0 0 0 0 0.8 0"/>
<feBlend mode="normal" in2="shape" result="effect2_innerShadow_437_636"/>
</filter>
<filter id="filter4_di_437_636" x="0" y="20.801" width="85" height="71.6555" filterUnits="userSpaceOnUse" color-interpolation-filters="sRGB">
<feFlood flood-opacity="0" result="BackgroundImageFix"/>
<feColorMatrix in="SourceAlpha" type="matrix" values="0 0 0 0 0 0 0 0 0 0 0 0 0 0 0 0 0 0 127 0" result="hardAlpha"/>
<feOffset dy="4"/>
<feGaussianBlur stdDeviation="2"/>
<feComposite in2="hardAlpha" operator="out"/>
<feColorMatrix type="matrix" values="0 0 0 0 0 0 0 0 0 0 0 0 0 0 0 0 0 0 0.25 0"/>
<feBlend mode="normal" in2="BackgroundImageFix" result="effect1_dropShadow_437_636"/>
<feBlend mode="normal" in="SourceGraphic" in2="effect1_dropShadow_437_636" result="shape"/>
<feColorMatrix in="SourceAlpha" type="matrix" values="0 0 0 0 0 0 0 0 0 0 0 0 0 0 0 0 0 0 127 0" result="hardAlpha"/>
<feOffset dy="4"/>
<feGaussianBlur stdDeviation="3.5"/>
<feComposite in2="hardAlpha" operator="arithmetic" k2="-1" k3="1"/>
<feColorMatrix type="matrix" values="0 0 0 0 0 0 0 0 0 0 0 0 0 0 0 0 0 0 0.9 0"/>
<feBlend mode="normal" in2="shape" result="effect2_innerShadow_437_636"/>
</filter>
<filter id="filter5_i_437_636" x="3.5" y="10.7725" width="76.7383" height="45.4385" filterUnits="userSpaceOnUse" color-interpolation-filters="sRGB">
<feFlood flood-opacity="0" result="BackgroundImageFix"/>
<feBlend mode="normal" in="SourceGraphic" in2="BackgroundImageFix" result="shape"/>
<feColorMatrix in="SourceAlpha" type="matrix" values="0 0 0 0 0 0 0 0 0 0 0 0 0 0 0 0 0 0 127 0" result="hardAlpha"/>
<feOffset dy="4"/>
<feGaussianBlur stdDeviation="4"/>
<feComposite in2="hardAlpha" operator="arithmetic" k2="-1" k3="1"/>
<feColorMatrix type="matrix" values="0 0 0 0 0 0 0 0 0 0 0 0 0 0 0 0 0 0 0.9 0"/>
<feBlend mode="normal" in2="shape" result="effect1_innerShadow_437_636"/>
</filter>
<filter id="filter6_di_437_636" x="22.4033" y="53.4399" width="44.7339" height="74.8989" filterUnits="userSpaceOnUse" color-interpolation-filters="sRGB">
<feFlood flood-opacity="0" result="BackgroundImageFix"/>
<feColorMatrix in="SourceAlpha" type="matrix" values="0 0 0 0 0 0 0 0 0 0 0 0 0 0 0 0 0 0 127 0" result="hardAlpha"/>
<feOffset dy="4"/>
<feGaussianBlur stdDeviation="3.5"/>
<feComposite in2="hardAlpha" operator="out"/>
<feColorMatrix type="matrix" values="0 0 0 0 0 0 0 0 0 0 0 0 0 0 0 0 0 0 0.8 0"/>
<feBlend mode="normal" in2="BackgroundImageFix" result="effect1_dropShadow_437_636"/>
<feBlend mode="normal" in="SourceGraphic" in2="effect1_dropShadow_437_636" result="shape"/>
<feColorMatrix in="SourceAlpha" type="matrix" values="0 0 0 0 0 0 0 0 0 0 0 0 0 0 0 0 0 0 127 0" result="hardAlpha"/>
<feOffset dy="4"/>
<feGaussianBlur stdDeviation="3"/>
<feComposite in2="hardAlpha" operator="arithmetic" k2="-1" k3="1"/>
<feColorMatrix type="matrix" values="0 0 0 0 0 0 0 0 0 0 0 0 0 0 0 0 0 0 0.7 0"/>
<feBlend mode="normal" in2="shape" result="effect2_innerShadow_437_636"/>
</filter>
<filter id="filter7_di_437_636" x="28.0967" y="102.417" width="42.0107" height="84.8838" filterUnits="userSpaceOnUse" color-interpolation-filters="sRGB">
<feFlood flood-opacity="0" result="BackgroundImageFix"/>
<feColorMatrix in="SourceAlpha" type="matrix" values="0 0 0 0 0 0 0 0 0 0 0 0 0 0 0 0 0 0 127 0" result="hardAlpha"/>
<feOffset dy="4"/>
<feGaussianBlur stdDeviation="3.5"/>
<feComposite in2="hardAlpha" operator="out"/>
<feColorMatrix type="matrix" values="0 0 0 0 0 0 0 0 0 0 0 0 0 0 0 0 0 0 0.8 0"/>
<feBlend mode="normal" in2="BackgroundImageFix" result="effect1_dropShadow_437_636"/>
<feBlend mode="normal" in="SourceGraphic" in2="effect1_dropShadow_437_636" result="shape"/>
<feColorMatrix in="SourceAlpha" type="matrix" values="0 0 0 0 0 0 0 0 0 0 0 0 0 0 0 0 0 0 127 0" result="hardAlpha"/>
<feOffset dy="4"/>
<feGaussianBlur stdDeviation="3"/>
<feComposite in2="hardAlpha" operator="arithmetic" k2="-1" k3="1"/>
<feColorMatrix type="matrix" values="0 0 0 0 0 0 0 0 0 0 0 0 0 0 0 0 0 0 0.7 0"/>
<feBlend mode="normal" in2="shape" result="effect2_innerShadow_437_636"/>
</filter>
<filter id="filter8_d_437_636" x="130.003" y="106.59" width="51.332" height="54.0854" filterUnits="userSpaceOnUse" color-interpolation-filters="sRGB">
<feFlood flood-opacity="0" result="BackgroundImageFix"/>
<feColorMatrix in="SourceAlpha" type="matrix" values="0 0 0 0 0 0 0 0 0 0 0 0 0 0 0 0 0 0 127 0" result="hardAlpha"/>
<feOffset dy="4"/>
<feGaussianBlur stdDeviation="2"/>
<feComposite in2="hardAlpha" operator="out"/>
<feColorMatrix type="matrix" values="0 0 0 0 0 0 0 0 0 0 0 0 0 0 0 0 0 0 0.25 0"/>
<feBlend mode="normal" in2="BackgroundImageFix" result="effect1_dropShadow_437_636"/>
<feBlend mode="normal" in="SourceGraphic" in2="effect1_dropShadow_437_636" result="shape"/>
</filter>
<filter id="filter9_d_437_636" x="157.008" y="44.5432" width="49.7412" height="36.71" filterUnits="userSpaceOnUse" color-interpolation-filters="sRGB">
<feFlood flood-opacity="0" result="BackgroundImageFix"/>
<feColorMatrix in="SourceAlpha" type="matrix" values="0 0 0 0 0 0 0 0 0 0 0 0 0 0 0 0 0 0 127 0" result="hardAlpha"/>
<feOffset dy="4"/>
<feGaussianBlur stdDeviation="2"/>
<feComposite in2="hardAlpha" operator="out"/>
<feColorMatrix type="matrix" values="0 0 0 0 0 0 0 0 0 0 0 0 0 0 0 0 0 0 0.25 0"/>
<feBlend mode="normal" in2="BackgroundImageFix" result="effect1_dropShadow_437_636"/>
<feBlend mode="normal" in="SourceGraphic" in2="effect1_dropShadow_437_636" result="shape"/>
</filter>
<filter id="filter10_d_437_636" x="212.113" y="107.969" width="20.4844" height="69.9507" filterUnits="userSpaceOnUse" color-interpolation-filters="sRGB">
<feFlood flood-opacity="0" result="BackgroundImageFix"/>
<feColorMatrix in="SourceAlpha" type="matrix" values="0 0 0 0 0 0 0 0 0 0 0 0 0 0 0 0 0 0 127 0" result="hardAlpha"/>
<feOffset dy="4"/>
<feGaussianBlur stdDeviation="2"/>
<feComposite in2="hardAlpha" operator="out"/>
<feColorMatrix type="matrix" values="0 0 0 0 0 0 0 0 0 0 0 0 0 0 0 0 0 0 0.25 0"/>
<feBlend mode="normal" in2="BackgroundImageFix" result="effect1_dropShadow_437_636"/>
<feBlend mode="normal" in="SourceGraphic" in2="effect1_dropShadow_437_636" result="shape"/>
</filter>
<filter id="filter11_d_437_636" x="95.8799" y="155.855" width="32.1006" height="36.9019" filterUnits="userSpaceOnUse" color-interpolation-filters="sRGB">
<feFlood flood-opacity="0" result="BackgroundImageFix"/>
<feColorMatrix in="SourceAlpha" type="matrix" values="0 0 0 0 0 0 0 0 0 0 0 0 0 0 0 0 0 0 127 0" result="hardAlpha"/>
<feOffset dy="4"/>
<feGaussianBlur stdDeviation="2"/>
<feComposite in2="hardAlpha" operator="out"/>
<feColorMatrix type="matrix" values="0 0 0 0 0 0 0 0 0 0 0 0 0 0 0 0 0 0 0.25 0"/>
<feBlend mode="normal" in2="BackgroundImageFix" result="effect1_dropShadow_437_636"/>
<feBlend mode="normal" in="SourceGraphic" in2="effect1_dropShadow_437_636" result="shape"/>
</filter>
<filter id="filter12_d_437_636" x="1.39893" y="37.4426" width="65.4731" height="38.604" filterUnits="userSpaceOnUse" color-interpolation-filters="sRGB">
<feFlood flood-opacity="0" result="BackgroundImageFix"/>
<feColorMatrix in="SourceAlpha" type="matrix" values="0 0 0 0 0 0 0 0 0 0 0 0 0 0 0 0 0 0 127 0" result="hardAlpha"/>
<feOffset dy="4"/>
<feGaussianBlur stdDeviation="2"/>
<feComposite in2="hardAlpha" operator="out"/>
<feColorMatrix type="matrix" values="0 0 0 0 0 0 0 0 0 0 0 0 0 0 0 0 0 0 0.25 0"/>
<feBlend mode="normal" in2="BackgroundImageFix" result="effect1_dropShadow_437_636"/>
<feBlend mode="normal" in="SourceGraphic" in2="effect1_dropShadow_437_636" result="shape"/>
</filter>
<filter id="filter13_d_437_636" x="28.0034" y="112.587" width="29.8271" height="30.5918" filterUnits="userSpaceOnUse" color-interpolation-filters="sRGB">
<feFlood flood-opacity="0" result="BackgroundImageFix"/>
<feColorMatrix in="SourceAlpha" type="matrix" values="0 0 0 0 0 0 0 0 0 0 0 0 0 0 0 0 0 0 127 0" result="hardAlpha"/>
<feOffset dy="4"/>
<feGaussianBlur stdDeviation="2"/>
<feComposite in2="hardAlpha" operator="out"/>
<feColorMatrix type="matrix" values="0 0 0 0 0 0 0 0 0 0 0 0 0 0 0 0 0 0 0.25 0"/>
<feBlend mode="normal" in2="BackgroundImageFix" result="effect1_dropShadow_437_636"/>
<feBlend mode="normal" in="SourceGraphic" in2="effect1_dropShadow_437_636" result="shape"/>
</filter>
<filter id="filter14_d_437_636" x="84.9995" y="202.5" width="63.5005" height="14.1733" filterUnits="userSpaceOnUse" color-interpolation-filters="sRGB">
<feFlood flood-opacity="0" result="BackgroundImageFix"/>
<feColorMatrix in="SourceAlpha" type="matrix" values="0 0 0 0 0 0 0 0 0 0 0 0 0 0 0 0 0 0 127 0" result="hardAlpha"/>
<feOffset dy="4"/>
<feGaussianBlur stdDeviation="2"/>
<feComposite in2="hardAlpha" operator="out"/>
<feColorMatrix type="matrix" values="0 0 0 0 0 0 0 0 0 0 0 0 0 0 0 0 0 0 0.25 0"/>
<feBlend mode="normal" in2="BackgroundImageFix" result="effect1_dropShadow_437_636"/>
<feBlend mode="normal" in="SourceGraphic" in2="effect1_dropShadow_437_636" result="shape"/>
</filter>
<filter id="filter15_d_437_636" x="149.782" y="180.247" width="86.4385" height="26.7375" filterUnits="userSpaceOnUse" color-interpolation-filters="sRGB">
<feFlood flood-opacity="0" result="BackgroundImageFix"/>
<feColorMatrix in="SourceAlpha" type="matrix" values="0 0 0 0 0 0 0 0 0 0 0 0 0 0 0 0 0 0 127 0" result="hardAlpha"/>
<feOffset dy="4"/>
<feGaussianBlur stdDeviation="2"/>
<feComposite in2="hardAlpha" operator="out"/>
<feColorMatrix type="matrix" values="0 0 0 0 0 0 0 0 0 0 0 0 0 0 0 0 0 0 0.25 0"/>
<feBlend mode="normal" in2="BackgroundImageFix" result="effect1_dropShadow_437_636"/>
<feBlend mode="normal" in="SourceGraphic" in2="effect1_dropShadow_437_636" result="shape"/>
</filter>
</defs>
</svg>
