<svg width="170" height="117" viewBox="0 0 170 117" fill="none" xmlns="http://www.w3.org/2000/svg">
<path d="M9 27V25.4706V1H1V27H9Z" fill="#4E5C6D" stroke="black" stroke-width="2" stroke-linecap="round"/>
<path d="M169 111V109.353V83H162V111H169Z" fill="#4E5C6D" stroke="black" stroke-width="2" stroke-linecap="round"/>
<path d="M86 83L86 84.6471L86 111L93 111L93 83L86 83Z" stroke="black" stroke-width="2" stroke-linecap="round"/>
<path d="M53.5 3H9V24C9 24 51.5 22 51.5 24C51.5 26 51 42 51 42V79.5C51 87.5 49.7523 91.7466 53.5 98C56.9334 103.729 62.5 107 67 108.5C71.5 110 161.5 108.5 161.5 108.5V85.5H74H71V22.5C71 22.5 69.8365 14.8162 67 11C63.3443 6.08157 53.5 3 53.5 3Z" fill="#4E5C6D" stroke="black" stroke-width="2" stroke-linecap="round"/>
<path d="M48 45L49.5294 45L74 45L74 37L48 37L48 45Z" fill="#4E5C6D" stroke="black" stroke-width="2" stroke-linecap="round"/>
<path d="M86 83L86 84.7059L86 112L94 112L94 83L86 83Z" fill="#4E5C6D" stroke="black" stroke-width="2" stroke-linecap="round"/>
<path d="M2.5 2.5V13L4.5 11.5L7 6.5V2.5H2.5Z" fill="#2D3845" stroke="#2D3845" stroke-width="0.8" stroke-linecap="round"/>
<circle cx="51.5" cy="41.5" r="1.1" fill="#D9D9D9" stroke="black" stroke-width="0.8"/>
<path d="M90.5 110.5H87.5V94L89 97.5V100.5C89 100.5 90.5 101 90.5 103.5V110.5Z" fill="#2D3845" stroke="#2D3845" stroke-width="0.8" stroke-linecap="round"/>
<path d="M69.3986 34.9963H64.5821H56.8757L62.1739 33.4965C62.1739 33.4965 64.8255 31.4332 65.5454 29.497C66.6479 26.5319 67.472 24.9975 66.5087 21.498C65.5454 17.9984 66.027 19.4982 62.1739 13.9989C58.3207 8.49957 54 5 54 5C54 5 61.4782 7.28119 64.5821 10.4993C67.2767 13.2931 68.3542 16.1964 69.3986 19.9981C70.3785 23.5655 69.5 24.5007 69.5 30C69.5 35.4993 69.3986 34.9963 69.3986 34.9963Z" fill="#2D3845" stroke="#2D3845" stroke-width="0.8" stroke-linecap="round"/>
<path d="M72.4986 38.5V43.5C72.4986 43.5 51.9973 44.6142 54.4986 43.5C57 42.3858 63.4986 38.5 63.4986 38.5H72.4986Z" fill="#2D3845" stroke="#2D3845" stroke-width="0.8" stroke-linecap="round"/>
<path d="M65 52.5C64.3009 50.0598 61 47 61 47H69.5V87H84.5V93.5H83.5C83.5 93.5 79.5 99 76.5 100C74.1789 100.774 76.5 99.5 70.5 96.5C64.5 93.5 65.897 95.7425 65 93.5C64 91 62.5 86 62.5 86L65 70.5C65 70.5 66.6672 58.319 65 52.5Z" fill="#2D3845" stroke="#2D3845" stroke-width="0.8" stroke-linecap="round"/>
<circle cx="69.5" cy="41.5" r="1.1" fill="#D9D9D9" stroke="black" stroke-width="0.8"/>
<circle cx="60.5" cy="41.5" r="1.1" fill="#D9D9D9" stroke="black" stroke-width="0.8"/>
<g filter="url(#filter0_d_445_869)">
<circle cx="90" cy="88" r="2" fill="#D9D9D9"/>
<circle cx="90" cy="88" r="1.6" stroke="black" stroke-width="0.8"/>
</g>
<g filter="url(#filter1_d_445_869)">
<circle cx="90" cy="107" r="2" fill="#D9D9D9"/>
<circle cx="90" cy="107" r="1.6" stroke="black" stroke-width="0.8"/>
</g>
<g filter="url(#filter2_d_445_869)">
<circle cx="90" cy="98" r="2" fill="#D9D9D9"/>
<circle cx="90" cy="98" r="1.6" stroke="black" stroke-width="0.8"/>
</g>
<path d="M116.5 92.5H95.5V87H160.5V107.5H140.5L143 106.5L152.5 104L155 101C155 101 154.544 97.7511 153.5 96C151.78 93.1143 149.493 92.5258 146.5 91C143.914 89.6816 139.5 88.5 139.5 88.5H127L116.5 92.5Z" fill="#2D3845" stroke="#2D3845" stroke-width="0.8" stroke-linecap="round"/>
<path d="M167.5 109.5H163.5V94.5L164 95C164 95 164.13 96.8715 164.5 98C164.991 99.4958 166.125 99.9712 166.5 101.5C166.826 102.827 166.5 105 166.5 105L167.5 109.5Z" fill="#2D3845" stroke="#2D3845" stroke-width="0.8" stroke-linecap="round"/>
<circle cx="165.5" cy="88.5" r="1.1" fill="#D9D9D9" stroke="black" stroke-width="0.8"/>
<circle cx="165.5" cy="106.5" r="1.1" fill="#D9D9D9" stroke="black" stroke-width="0.8"/>
<circle cx="165.5" cy="97.5" r="1.1" fill="#D9D9D9" stroke="black" stroke-width="0.8"/>
<path d="M10.5 22.5001V6.00008V4.50008C10.5 4.50008 11.4297 4.36641 12 4.50008C14.0476 4.97998 14 7.50017 14 9.50008C14 11.5 13.7003 12.5504 15 14.5C16.6569 16.9853 21 16.5 21 16.5L54.5 17.0001C54.5 17.0001 55.5 20 57.5 22.5001C59.5 25.0002 54.5 26.5001 54.5 26.5001C54.5 26.5001 54.1498 23.7089 53 22.5001C52.2153 21.6751 52.3873 21.0001 50.5 21.0001H14V22.5001H10.5Z" fill="#2D3845" stroke="#2D3845" stroke-width="0.8" stroke-linecap="round"/>
<circle cx="4.5" cy="5.5" r="1.1" fill="#D9D9D9" stroke="black" stroke-width="0.8"/>
<circle cx="4.5" cy="14.5" r="1.1" fill="#D9D9D9" stroke="black" stroke-width="0.8"/>
<circle cx="4.5" cy="22.5" r="1.1" fill="#D9D9D9" stroke="black" stroke-width="0.8"/>
<defs>
<filter id="filter0_d_445_869" x="84" y="86" width="12" height="12" filterUnits="userSpaceOnUse" color-interpolation-filters="sRGB">
<feFlood flood-opacity="0" result="BackgroundImageFix"/>
<feColorMatrix in="SourceAlpha" type="matrix" values="0 0 0 0 0 0 0 0 0 0 0 0 0 0 0 0 0 0 127 0" result="hardAlpha"/>
<feOffset dy="4"/>
<feGaussianBlur stdDeviation="2"/>
<feComposite in2="hardAlpha" operator="out"/>
<feColorMatrix type="matrix" values="0 0 0 0 0 0 0 0 0 0 0 0 0 0 0 0 0 0 0.25 0"/>
<feBlend mode="normal" in2="BackgroundImageFix" result="effect1_dropShadow_445_869"/>
<feBlend mode="normal" in="SourceGraphic" in2="effect1_dropShadow_445_869" result="shape"/>
</filter>
<filter id="filter1_d_445_869" x="84" y="105" width="12" height="12" filterUnits="userSpaceOnUse" color-interpolation-filters="sRGB">
<feFlood flood-opacity="0" result="BackgroundImageFix"/>
<feColorMatrix in="SourceAlpha" type="matrix" values="0 0 0 0 0 0 0 0 0 0 0 0 0 0 0 0 0 0 127 0" result="hardAlpha"/>
<feOffset dy="4"/>
<feGaussianBlur stdDeviation="2"/>
<feComposite in2="hardAlpha" operator="out"/>
<feColorMatrix type="matrix" values="0 0 0 0 0 0 0 0 0 0 0 0 0 0 0 0 0 0 0.25 0"/>
<feBlend mode="normal" in2="BackgroundImageFix" result="effect1_dropShadow_445_869"/>
<feBlend mode="normal" in="SourceGraphic" in2="effect1_dropShadow_445_869" result="shape"/>
</filter>
<filter id="filter2_d_445_869" x="84" y="96" width="12" height="12" filterUnits="userSpaceOnUse" color-interpolation-filters="sRGB">
<feFlood flood-opacity="0" result="BackgroundImageFix"/>
<feColorMatrix in="SourceAlpha" type="matrix" values="0 0 0 0 0 0 0 0 0 0 0 0 0 0 0 0 0 0 127 0" result="hardAlpha"/>
<feOffset dy="4"/>
<feGaussianBlur stdDeviation="2"/>
<feComposite in2="hardAlpha" operator="out"/>
<feColorMatrix type="matrix" values="0 0 0 0 0 0 0 0 0 0 0 0 0 0 0 0 0 0 0.25 0"/>
<feBlend mode="normal" in2="BackgroundImageFix" result="effect1_dropShadow_445_869"/>
<feBlend mode="normal" in="SourceGraphic" in2="effect1_dropShadow_445_869" result="shape"/>
</filter>
</defs>
</svg>
