<svg width="283" height="66" viewBox="0 0 283 66" fill="none" xmlns="http://www.w3.org/2000/svg">
<g filter="url(#filter0_d_448_954)">
<g filter="url(#filter1_i_448_954)">
<path d="M36 12H51H248V21H36V12Z" fill="#928D8D"/>
</g>
<path d="M36 12H51H248V21H36V12Z" stroke="black" stroke-width="3" stroke-linecap="round"/>
<g filter="url(#filter2_di_448_954)">
<path d="M48.4998 14L49.5998 15.4808V18.2308L48.0598 19.5H46.0798L44.7598 18.2308V15.4808L46.0798 14H48.4998Z" fill="#D9D9D9"/>
<path d="M48.4998 14L49.5998 15.4808V18.2308L48.0598 19.5H46.0798L44.7598 18.2308V15.4808L46.0798 14H48.4998Z" stroke="black" stroke-linecap="round"/>
</g>
<g filter="url(#filter3_d_448_954)">
<ellipse cx="47.1799" cy="16.7499" rx="1.32" ry="1.26923" fill="#3B3A3A"/>
<path d="M47.9999 16.7499C47.9999 17.1565 47.6514 17.5192 47.1799 17.5192C46.7083 17.5192 46.3599 17.1565 46.3599 16.7499C46.3599 16.3434 46.7083 15.9807 47.1799 15.9807C47.6514 15.9807 47.9999 16.3434 47.9999 16.7499Z" stroke="black"/>
</g>
<g filter="url(#filter4_di_448_954)">
<path d="M86.74 14L87.84 15.4808V18.2308L86.3 19.5H84.32L83 18.2308V15.4808L84.32 14H86.74Z" fill="#D9D9D9"/>
<path d="M86.74 14L87.84 15.4808V18.2308L86.3 19.5H84.32L83 18.2308V15.4808L84.32 14H86.74Z" stroke="black" stroke-linecap="round"/>
</g>
<g filter="url(#filter5_d_448_954)">
<ellipse cx="85.4201" cy="16.7499" rx="1.32" ry="1.26923" fill="#3B3A3A"/>
<path d="M86.2401 16.7499C86.2401 17.1565 85.8916 17.5192 85.4201 17.5192C84.9486 17.5192 84.6001 17.1565 84.6001 16.7499C84.6001 16.3434 84.9486 15.9807 85.4201 15.9807C85.8916 15.9807 86.2401 16.3434 86.2401 16.7499Z" stroke="black"/>
</g>
<g filter="url(#filter6_di_448_954)">
<path d="M122.74 14L123.84 15.4808V18.2308L122.3 19.5H120.32L119 18.2308V15.4808L120.32 14H122.74Z" fill="#D9D9D9"/>
<path d="M122.74 14L123.84 15.4808V18.2308L122.3 19.5H120.32L119 18.2308V15.4808L120.32 14H122.74Z" stroke="black" stroke-linecap="round"/>
</g>
<g filter="url(#filter7_d_448_954)">
<ellipse cx="121.42" cy="16.7499" rx="1.32" ry="1.26923" fill="#3B3A3A"/>
<path d="M122.24 16.7499C122.24 17.1565 121.892 17.5192 121.42 17.5192C120.949 17.5192 120.6 17.1565 120.6 16.7499C120.6 16.3434 120.949 15.9807 121.42 15.9807C121.892 15.9807 122.24 16.3434 122.24 16.7499Z" stroke="black"/>
</g>
<g filter="url(#filter8_di_448_954)">
<path d="M160.74 14L161.84 15.4808V18.2308L160.3 19.5H158.32L157 18.2308V15.4808L158.32 14H160.74Z" fill="#D9D9D9"/>
<path d="M160.74 14L161.84 15.4808V18.2308L160.3 19.5H158.32L157 18.2308V15.4808L158.32 14H160.74Z" stroke="black" stroke-linecap="round"/>
</g>
<g filter="url(#filter9_d_448_954)">
<ellipse cx="159.42" cy="16.7499" rx="1.32" ry="1.26923" fill="#3B3A3A"/>
<path d="M160.24 16.7499C160.24 17.1565 159.892 17.5192 159.42 17.5192C158.949 17.5192 158.6 17.1565 158.6 16.7499C158.6 16.3434 158.949 15.9807 159.42 15.9807C159.892 15.9807 160.24 16.3434 160.24 16.7499Z" stroke="black"/>
</g>
<g filter="url(#filter10_di_448_954)">
<path d="M198.74 14L199.84 15.4808V18.2308L198.3 19.5H196.32L195 18.2308V15.4808L196.32 14H198.74Z" fill="#D9D9D9"/>
<path d="M198.74 14L199.84 15.4808V18.2308L198.3 19.5H196.32L195 18.2308V15.4808L196.32 14H198.74Z" stroke="black" stroke-linecap="round"/>
</g>
<g filter="url(#filter11_d_448_954)">
<ellipse cx="197.42" cy="16.7499" rx="1.32" ry="1.26923" fill="#3B3A3A"/>
<path d="M198.24 16.7499C198.24 17.1565 197.892 17.5192 197.42 17.5192C196.949 17.5192 196.6 17.1565 196.6 16.7499C196.6 16.3434 196.949 15.9807 197.42 15.9807C197.892 15.9807 198.24 16.3434 198.24 16.7499Z" stroke="black"/>
</g>
<g filter="url(#filter12_di_448_954)">
<path d="M236.74 14L237.84 15.4808V18.2308L236.3 19.5H234.32L233 18.2308V15.4808L234.32 14H236.74Z" fill="#D9D9D9"/>
<path d="M236.74 14L237.84 15.4808V18.2308L236.3 19.5H234.32L233 18.2308V15.4808L234.32 14H236.74Z" stroke="black" stroke-linecap="round"/>
</g>
<g filter="url(#filter13_d_448_954)">
<ellipse cx="235.42" cy="16.7499" rx="1.32" ry="1.26923" fill="#3B3A3A"/>
<path d="M236.24 16.7499C236.24 17.1565 235.892 17.5192 235.42 17.5192C234.949 17.5192 234.6 17.1565 234.6 16.7499C234.6 16.3434 234.949 15.9807 235.42 15.9807C235.892 15.9807 236.24 16.3434 236.24 16.7499Z" stroke="black"/>
</g>
<g filter="url(#filter14_i_448_954)">
<path d="M22 24H38.9104H261V34.1462H22V24Z" fill="#736C6C"/>
</g>
<path d="M22 24H38.9104H261V34.1462H22V24Z" stroke="black" stroke-width="3" stroke-linecap="round"/>
<g filter="url(#filter15_di_448_954)">
<path d="M36.0918 26.2546L37.3319 27.924V31.0242L35.5958 32.4551H33.3636L31.8755 31.0242V27.924L33.3636 26.2546H36.0918Z" fill="#D9D9D9"/>
<path d="M36.0918 26.2546L37.3319 27.924V31.0242L35.5958 32.4551H33.3636L31.8755 31.0242V27.924L33.3636 26.2546H36.0918Z" stroke="black" stroke-linecap="round"/>
</g>
<g filter="url(#filter16_d_448_954)">
<ellipse cx="34.6038" cy="29.3547" rx="1.48811" ry="1.43088" fill="#3B3A3A"/>
<path d="M35.5919 29.3547C35.5919 29.8505 35.1682 30.2856 34.6038 30.2856C34.0395 30.2856 33.6157 29.8505 33.6157 29.3547C33.6157 28.8589 34.0395 28.4238 34.6038 28.4238C35.1682 28.4238 35.5919 28.8589 35.5919 29.3547Z" stroke="black"/>
</g>
<g filter="url(#filter17_di_448_954)">
<path d="M79.2022 26.2546L80.4423 27.924V31.0242L78.7061 32.4551H76.474L74.9858 31.0242V27.924L76.474 26.2546H79.2022Z" fill="#D9D9D9"/>
<path d="M79.2022 26.2546L80.4423 27.924V31.0242L78.7061 32.4551H76.474L74.9858 31.0242V27.924L76.474 26.2546H79.2022Z" stroke="black" stroke-linecap="round"/>
</g>
<g filter="url(#filter18_d_448_954)">
<ellipse cx="77.7142" cy="29.3547" rx="1.48811" ry="1.43088" fill="#3B3A3A"/>
<path d="M78.7023 29.3547C78.7023 29.8505 78.2786 30.2856 77.7142 30.2856C77.1498 30.2856 76.7261 29.8505 76.7261 29.3547C76.7261 28.8589 77.1498 28.4238 77.7142 28.4238C78.2786 28.4238 78.7023 28.8589 78.7023 29.3547Z" stroke="black"/>
</g>
<g filter="url(#filter19_di_448_954)">
<path d="M119.787 26.2546L121.027 27.924V31.0242L119.291 32.4551H117.059L115.571 31.0242V27.924L117.059 26.2546H119.787Z" fill="#D9D9D9"/>
<path d="M119.787 26.2546L121.027 27.924V31.0242L119.291 32.4551H117.059L115.571 31.0242V27.924L117.059 26.2546H119.787Z" stroke="black" stroke-linecap="round"/>
</g>
<g filter="url(#filter20_d_448_954)">
<ellipse cx="118.299" cy="29.3547" rx="1.48811" ry="1.43088" fill="#3B3A3A"/>
<path d="M119.287 29.3547C119.287 29.8505 118.864 30.2856 118.299 30.2856C117.735 30.2856 117.311 29.8505 117.311 29.3547C117.311 28.8589 117.735 28.4238 118.299 28.4238C118.864 28.4238 119.287 28.8589 119.287 29.3547Z" stroke="black"/>
</g>
<g filter="url(#filter21_di_448_954)">
<path d="M162.626 26.2546L163.867 27.924V31.0242L162.13 32.4551H159.898L158.41 31.0242V27.924L159.898 26.2546H162.626Z" fill="#D9D9D9"/>
<path d="M162.626 26.2546L163.867 27.924V31.0242L162.13 32.4551H159.898L158.41 31.0242V27.924L159.898 26.2546H162.626Z" stroke="black" stroke-linecap="round"/>
</g>
<g filter="url(#filter22_d_448_954)">
<ellipse cx="161.139" cy="29.3547" rx="1.48811" ry="1.43088" fill="#3B3A3A"/>
<path d="M162.127 29.3547C162.127 29.8505 161.703 30.2856 161.139 30.2856C160.574 30.2856 160.15 29.8505 160.15 29.3547C160.15 28.8589 160.574 28.4238 161.139 28.4238C161.703 28.4238 162.127 28.8589 162.127 29.3547Z" stroke="black"/>
</g>
<g filter="url(#filter23_di_448_954)">
<path d="M205.466 26.2546L206.706 27.924V31.0242L204.97 32.4551H202.738L201.25 31.0242V27.924L202.738 26.2546H205.466Z" fill="#D9D9D9"/>
<path d="M205.466 26.2546L206.706 27.924V31.0242L204.97 32.4551H202.738L201.25 31.0242V27.924L202.738 26.2546H205.466Z" stroke="black" stroke-linecap="round"/>
</g>
<g filter="url(#filter24_d_448_954)">
<ellipse cx="203.978" cy="29.3547" rx="1.48811" ry="1.43088" fill="#3B3A3A"/>
<path d="M204.966 29.3547C204.966 29.8505 204.543 30.2856 203.978 30.2856C203.414 30.2856 202.99 29.8505 202.99 29.3547C202.99 28.8589 203.414 28.4238 203.978 28.4238C204.543 28.4238 204.966 28.8589 204.966 29.3547Z" stroke="black"/>
</g>
<g filter="url(#filter25_di_448_954)">
<path d="M248.306 26.2546L249.546 27.924V31.0242L247.81 32.4551H245.578L244.09 31.0242V27.924L245.578 26.2546H248.306Z" fill="#D9D9D9"/>
<path d="M248.306 26.2546L249.546 27.924V31.0242L247.81 32.4551H245.578L244.09 31.0242V27.924L245.578 26.2546H248.306Z" stroke="black" stroke-linecap="round"/>
</g>
<g filter="url(#filter26_d_448_954)">
<ellipse cx="246.818" cy="29.3547" rx="1.48811" ry="1.43088" fill="#3B3A3A"/>
<path d="M247.806 29.3547C247.806 29.8505 247.382 30.2856 246.818 30.2856C246.253 30.2856 245.83 29.8505 245.83 29.3547C245.83 28.8589 246.253 28.4238 246.818 28.4238C247.382 28.4238 247.806 28.8589 247.806 29.3547Z" stroke="black"/>
</g>
</g>
<defs>
<filter id="filter0_d_448_954" x="0.5" y="0.5" width="282" height="65.1462" filterUnits="userSpaceOnUse" color-interpolation-filters="sRGB">
<feFlood flood-opacity="0" result="BackgroundImageFix"/>
<feColorMatrix in="SourceAlpha" type="matrix" values="0 0 0 0 0 0 0 0 0 0 0 0 0 0 0 0 0 0 127 0" result="hardAlpha"/>
<feOffset dy="10"/>
<feGaussianBlur stdDeviation="10"/>
<feComposite in2="hardAlpha" operator="out"/>
<feColorMatrix type="matrix" values="0 0 0 0 0 0 0 0 0 0 0 0 0 0 0 0 0 0 0.9 0"/>
<feBlend mode="normal" in2="BackgroundImageFix" result="effect1_dropShadow_448_954"/>
<feBlend mode="normal" in="SourceGraphic" in2="effect1_dropShadow_448_954" result="shape"/>
</filter>
<filter id="filter1_i_448_954" x="34.5" y="10.5" width="215" height="16" filterUnits="userSpaceOnUse" color-interpolation-filters="sRGB">
<feFlood flood-opacity="0" result="BackgroundImageFix"/>
<feBlend mode="normal" in="SourceGraphic" in2="BackgroundImageFix" result="shape"/>
<feColorMatrix in="SourceAlpha" type="matrix" values="0 0 0 0 0 0 0 0 0 0 0 0 0 0 0 0 0 0 127 0" result="hardAlpha"/>
<feOffset dy="4"/>
<feGaussianBlur stdDeviation="2"/>
<feComposite in2="hardAlpha" operator="arithmetic" k2="-1" k3="1"/>
<feColorMatrix type="matrix" values="0 0 0 0 0 0 0 0 0 0 0 0 0 0 0 0 0 0 0.25 0"/>
<feBlend mode="normal" in2="shape" result="effect1_innerShadow_448_954"/>
</filter>
<filter id="filter2_di_448_954" x="40.2598" y="13.5" width="13.8398" height="14.5" filterUnits="userSpaceOnUse" color-interpolation-filters="sRGB">
<feFlood flood-opacity="0" result="BackgroundImageFix"/>
<feColorMatrix in="SourceAlpha" type="matrix" values="0 0 0 0 0 0 0 0 0 0 0 0 0 0 0 0 0 0 127 0" result="hardAlpha"/>
<feOffset dy="4"/>
<feGaussianBlur stdDeviation="2"/>
<feComposite in2="hardAlpha" operator="out"/>
<feColorMatrix type="matrix" values="0 0 0 0 0 0 0 0 0 0 0 0 0 0 0 0 0 0 0.25 0"/>
<feBlend mode="normal" in2="BackgroundImageFix" result="effect1_dropShadow_448_954"/>
<feBlend mode="normal" in="SourceGraphic" in2="effect1_dropShadow_448_954" result="shape"/>
<feColorMatrix in="SourceAlpha" type="matrix" values="0 0 0 0 0 0 0 0 0 0 0 0 0 0 0 0 0 0 127 0" result="hardAlpha"/>
<feOffset dy="4"/>
<feGaussianBlur stdDeviation="3"/>
<feComposite in2="hardAlpha" operator="arithmetic" k2="-1" k3="1"/>
<feColorMatrix type="matrix" values="0 0 0 0 0 0 0 0 0 0 0 0 0 0 0 0 0 0 0.8 0"/>
<feBlend mode="normal" in2="shape" result="effect2_innerShadow_448_954"/>
</filter>
<filter id="filter3_d_448_954" x="41.8599" y="15.4807" width="10.6401" height="10.5386" filterUnits="userSpaceOnUse" color-interpolation-filters="sRGB">
<feFlood flood-opacity="0" result="BackgroundImageFix"/>
<feColorMatrix in="SourceAlpha" type="matrix" values="0 0 0 0 0 0 0 0 0 0 0 0 0 0 0 0 0 0 127 0" result="hardAlpha"/>
<feOffset dy="4"/>
<feGaussianBlur stdDeviation="2"/>
<feComposite in2="hardAlpha" operator="out"/>
<feColorMatrix type="matrix" values="0 0 0 0 0 0 0 0 0 0 0 0 0 0 0 0 0 0 0.8 0"/>
<feBlend mode="normal" in2="BackgroundImageFix" result="effect1_dropShadow_448_954"/>
<feBlend mode="normal" in="SourceGraphic" in2="effect1_dropShadow_448_954" result="shape"/>
</filter>
<filter id="filter4_di_448_954" x="78.5" y="13.5" width="13.8398" height="14.5" filterUnits="userSpaceOnUse" color-interpolation-filters="sRGB">
<feFlood flood-opacity="0" result="BackgroundImageFix"/>
<feColorMatrix in="SourceAlpha" type="matrix" values="0 0 0 0 0 0 0 0 0 0 0 0 0 0 0 0 0 0 127 0" result="hardAlpha"/>
<feOffset dy="4"/>
<feGaussianBlur stdDeviation="2"/>
<feComposite in2="hardAlpha" operator="out"/>
<feColorMatrix type="matrix" values="0 0 0 0 0 0 0 0 0 0 0 0 0 0 0 0 0 0 0.25 0"/>
<feBlend mode="normal" in2="BackgroundImageFix" result="effect1_dropShadow_448_954"/>
<feBlend mode="normal" in="SourceGraphic" in2="effect1_dropShadow_448_954" result="shape"/>
<feColorMatrix in="SourceAlpha" type="matrix" values="0 0 0 0 0 0 0 0 0 0 0 0 0 0 0 0 0 0 127 0" result="hardAlpha"/>
<feOffset dy="4"/>
<feGaussianBlur stdDeviation="3"/>
<feComposite in2="hardAlpha" operator="arithmetic" k2="-1" k3="1"/>
<feColorMatrix type="matrix" values="0 0 0 0 0 0 0 0 0 0 0 0 0 0 0 0 0 0 0.8 0"/>
<feBlend mode="normal" in2="shape" result="effect2_innerShadow_448_954"/>
</filter>
<filter id="filter5_d_448_954" x="80.1001" y="15.4807" width="10.6401" height="10.5386" filterUnits="userSpaceOnUse" color-interpolation-filters="sRGB">
<feFlood flood-opacity="0" result="BackgroundImageFix"/>
<feColorMatrix in="SourceAlpha" type="matrix" values="0 0 0 0 0 0 0 0 0 0 0 0 0 0 0 0 0 0 127 0" result="hardAlpha"/>
<feOffset dy="4"/>
<feGaussianBlur stdDeviation="2"/>
<feComposite in2="hardAlpha" operator="out"/>
<feColorMatrix type="matrix" values="0 0 0 0 0 0 0 0 0 0 0 0 0 0 0 0 0 0 0.8 0"/>
<feBlend mode="normal" in2="BackgroundImageFix" result="effect1_dropShadow_448_954"/>
<feBlend mode="normal" in="SourceGraphic" in2="effect1_dropShadow_448_954" result="shape"/>
</filter>
<filter id="filter6_di_448_954" x="114.5" y="13.5" width="13.8398" height="14.5" filterUnits="userSpaceOnUse" color-interpolation-filters="sRGB">
<feFlood flood-opacity="0" result="BackgroundImageFix"/>
<feColorMatrix in="SourceAlpha" type="matrix" values="0 0 0 0 0 0 0 0 0 0 0 0 0 0 0 0 0 0 127 0" result="hardAlpha"/>
<feOffset dy="4"/>
<feGaussianBlur stdDeviation="2"/>
<feComposite in2="hardAlpha" operator="out"/>
<feColorMatrix type="matrix" values="0 0 0 0 0 0 0 0 0 0 0 0 0 0 0 0 0 0 0.25 0"/>
<feBlend mode="normal" in2="BackgroundImageFix" result="effect1_dropShadow_448_954"/>
<feBlend mode="normal" in="SourceGraphic" in2="effect1_dropShadow_448_954" result="shape"/>
<feColorMatrix in="SourceAlpha" type="matrix" values="0 0 0 0 0 0 0 0 0 0 0 0 0 0 0 0 0 0 127 0" result="hardAlpha"/>
<feOffset dy="4"/>
<feGaussianBlur stdDeviation="3"/>
<feComposite in2="hardAlpha" operator="arithmetic" k2="-1" k3="1"/>
<feColorMatrix type="matrix" values="0 0 0 0 0 0 0 0 0 0 0 0 0 0 0 0 0 0 0.8 0"/>
<feBlend mode="normal" in2="shape" result="effect2_innerShadow_448_954"/>
</filter>
<filter id="filter7_d_448_954" x="116.1" y="15.4807" width="10.6401" height="10.5386" filterUnits="userSpaceOnUse" color-interpolation-filters="sRGB">
<feFlood flood-opacity="0" result="BackgroundImageFix"/>
<feColorMatrix in="SourceAlpha" type="matrix" values="0 0 0 0 0 0 0 0 0 0 0 0 0 0 0 0 0 0 127 0" result="hardAlpha"/>
<feOffset dy="4"/>
<feGaussianBlur stdDeviation="2"/>
<feComposite in2="hardAlpha" operator="out"/>
<feColorMatrix type="matrix" values="0 0 0 0 0 0 0 0 0 0 0 0 0 0 0 0 0 0 0.8 0"/>
<feBlend mode="normal" in2="BackgroundImageFix" result="effect1_dropShadow_448_954"/>
<feBlend mode="normal" in="SourceGraphic" in2="effect1_dropShadow_448_954" result="shape"/>
</filter>
<filter id="filter8_di_448_954" x="152.5" y="13.5" width="13.8398" height="14.5" filterUnits="userSpaceOnUse" color-interpolation-filters="sRGB">
<feFlood flood-opacity="0" result="BackgroundImageFix"/>
<feColorMatrix in="SourceAlpha" type="matrix" values="0 0 0 0 0 0 0 0 0 0 0 0 0 0 0 0 0 0 127 0" result="hardAlpha"/>
<feOffset dy="4"/>
<feGaussianBlur stdDeviation="2"/>
<feComposite in2="hardAlpha" operator="out"/>
<feColorMatrix type="matrix" values="0 0 0 0 0 0 0 0 0 0 0 0 0 0 0 0 0 0 0.25 0"/>
<feBlend mode="normal" in2="BackgroundImageFix" result="effect1_dropShadow_448_954"/>
<feBlend mode="normal" in="SourceGraphic" in2="effect1_dropShadow_448_954" result="shape"/>
<feColorMatrix in="SourceAlpha" type="matrix" values="0 0 0 0 0 0 0 0 0 0 0 0 0 0 0 0 0 0 127 0" result="hardAlpha"/>
<feOffset dy="4"/>
<feGaussianBlur stdDeviation="3"/>
<feComposite in2="hardAlpha" operator="arithmetic" k2="-1" k3="1"/>
<feColorMatrix type="matrix" values="0 0 0 0 0 0 0 0 0 0 0 0 0 0 0 0 0 0 0.8 0"/>
<feBlend mode="normal" in2="shape" result="effect2_innerShadow_448_954"/>
</filter>
<filter id="filter9_d_448_954" x="154.1" y="15.4807" width="10.6401" height="10.5386" filterUnits="userSpaceOnUse" color-interpolation-filters="sRGB">
<feFlood flood-opacity="0" result="BackgroundImageFix"/>
<feColorMatrix in="SourceAlpha" type="matrix" values="0 0 0 0 0 0 0 0 0 0 0 0 0 0 0 0 0 0 127 0" result="hardAlpha"/>
<feOffset dy="4"/>
<feGaussianBlur stdDeviation="2"/>
<feComposite in2="hardAlpha" operator="out"/>
<feColorMatrix type="matrix" values="0 0 0 0 0 0 0 0 0 0 0 0 0 0 0 0 0 0 0.8 0"/>
<feBlend mode="normal" in2="BackgroundImageFix" result="effect1_dropShadow_448_954"/>
<feBlend mode="normal" in="SourceGraphic" in2="effect1_dropShadow_448_954" result="shape"/>
</filter>
<filter id="filter10_di_448_954" x="190.5" y="13.5" width="13.8398" height="14.5" filterUnits="userSpaceOnUse" color-interpolation-filters="sRGB">
<feFlood flood-opacity="0" result="BackgroundImageFix"/>
<feColorMatrix in="SourceAlpha" type="matrix" values="0 0 0 0 0 0 0 0 0 0 0 0 0 0 0 0 0 0 127 0" result="hardAlpha"/>
<feOffset dy="4"/>
<feGaussianBlur stdDeviation="2"/>
<feComposite in2="hardAlpha" operator="out"/>
<feColorMatrix type="matrix" values="0 0 0 0 0 0 0 0 0 0 0 0 0 0 0 0 0 0 0.25 0"/>
<feBlend mode="normal" in2="BackgroundImageFix" result="effect1_dropShadow_448_954"/>
<feBlend mode="normal" in="SourceGraphic" in2="effect1_dropShadow_448_954" result="shape"/>
<feColorMatrix in="SourceAlpha" type="matrix" values="0 0 0 0 0 0 0 0 0 0 0 0 0 0 0 0 0 0 127 0" result="hardAlpha"/>
<feOffset dy="4"/>
<feGaussianBlur stdDeviation="3"/>
<feComposite in2="hardAlpha" operator="arithmetic" k2="-1" k3="1"/>
<feColorMatrix type="matrix" values="0 0 0 0 0 0 0 0 0 0 0 0 0 0 0 0 0 0 0.8 0"/>
<feBlend mode="normal" in2="shape" result="effect2_innerShadow_448_954"/>
</filter>
<filter id="filter11_d_448_954" x="192.1" y="15.4807" width="10.6401" height="10.5386" filterUnits="userSpaceOnUse" color-interpolation-filters="sRGB">
<feFlood flood-opacity="0" result="BackgroundImageFix"/>
<feColorMatrix in="SourceAlpha" type="matrix" values="0 0 0 0 0 0 0 0 0 0 0 0 0 0 0 0 0 0 127 0" result="hardAlpha"/>
<feOffset dy="4"/>
<feGaussianBlur stdDeviation="2"/>
<feComposite in2="hardAlpha" operator="out"/>
<feColorMatrix type="matrix" values="0 0 0 0 0 0 0 0 0 0 0 0 0 0 0 0 0 0 0.8 0"/>
<feBlend mode="normal" in2="BackgroundImageFix" result="effect1_dropShadow_448_954"/>
<feBlend mode="normal" in="SourceGraphic" in2="effect1_dropShadow_448_954" result="shape"/>
</filter>
<filter id="filter12_di_448_954" x="228.5" y="13.5" width="13.8398" height="14.5" filterUnits="userSpaceOnUse" color-interpolation-filters="sRGB">
<feFlood flood-opacity="0" result="BackgroundImageFix"/>
<feColorMatrix in="SourceAlpha" type="matrix" values="0 0 0 0 0 0 0 0 0 0 0 0 0 0 0 0 0 0 127 0" result="hardAlpha"/>
<feOffset dy="4"/>
<feGaussianBlur stdDeviation="2"/>
<feComposite in2="hardAlpha" operator="out"/>
<feColorMatrix type="matrix" values="0 0 0 0 0 0 0 0 0 0 0 0 0 0 0 0 0 0 0.25 0"/>
<feBlend mode="normal" in2="BackgroundImageFix" result="effect1_dropShadow_448_954"/>
<feBlend mode="normal" in="SourceGraphic" in2="effect1_dropShadow_448_954" result="shape"/>
<feColorMatrix in="SourceAlpha" type="matrix" values="0 0 0 0 0 0 0 0 0 0 0 0 0 0 0 0 0 0 127 0" result="hardAlpha"/>
<feOffset dy="4"/>
<feGaussianBlur stdDeviation="3"/>
<feComposite in2="hardAlpha" operator="arithmetic" k2="-1" k3="1"/>
<feColorMatrix type="matrix" values="0 0 0 0 0 0 0 0 0 0 0 0 0 0 0 0 0 0 0.8 0"/>
<feBlend mode="normal" in2="shape" result="effect2_innerShadow_448_954"/>
</filter>
<filter id="filter13_d_448_954" x="230.1" y="15.4807" width="10.6401" height="10.5386" filterUnits="userSpaceOnUse" color-interpolation-filters="sRGB">
<feFlood flood-opacity="0" result="BackgroundImageFix"/>
<feColorMatrix in="SourceAlpha" type="matrix" values="0 0 0 0 0 0 0 0 0 0 0 0 0 0 0 0 0 0 127 0" result="hardAlpha"/>
<feOffset dy="4"/>
<feGaussianBlur stdDeviation="2"/>
<feComposite in2="hardAlpha" operator="out"/>
<feColorMatrix type="matrix" values="0 0 0 0 0 0 0 0 0 0 0 0 0 0 0 0 0 0 0.8 0"/>
<feBlend mode="normal" in2="BackgroundImageFix" result="effect1_dropShadow_448_954"/>
<feBlend mode="normal" in="SourceGraphic" in2="effect1_dropShadow_448_954" result="shape"/>
</filter>
<filter id="filter14_i_448_954" x="20.5" y="22.5" width="242" height="17.1462" filterUnits="userSpaceOnUse" color-interpolation-filters="sRGB">
<feFlood flood-opacity="0" result="BackgroundImageFix"/>
<feBlend mode="normal" in="SourceGraphic" in2="BackgroundImageFix" result="shape"/>
<feColorMatrix in="SourceAlpha" type="matrix" values="0 0 0 0 0 0 0 0 0 0 0 0 0 0 0 0 0 0 127 0" result="hardAlpha"/>
<feOffset dy="4"/>
<feGaussianBlur stdDeviation="2"/>
<feComposite in2="hardAlpha" operator="arithmetic" k2="-1" k3="1"/>
<feColorMatrix type="matrix" values="0 0 0 0 0 0 0 0 0 0 0 0 0 0 0 0 0 0 0.25 0"/>
<feBlend mode="normal" in2="shape" result="effect1_innerShadow_448_954"/>
</filter>
<filter id="filter15_di_448_954" x="27.3755" y="25.7546" width="14.4565" height="15.2004" filterUnits="userSpaceOnUse" color-interpolation-filters="sRGB">
<feFlood flood-opacity="0" result="BackgroundImageFix"/>
<feColorMatrix in="SourceAlpha" type="matrix" values="0 0 0 0 0 0 0 0 0 0 0 0 0 0 0 0 0 0 127 0" result="hardAlpha"/>
<feOffset dy="4"/>
<feGaussianBlur stdDeviation="2"/>
<feComposite in2="hardAlpha" operator="out"/>
<feColorMatrix type="matrix" values="0 0 0 0 0 0 0 0 0 0 0 0 0 0 0 0 0 0 0.25 0"/>
<feBlend mode="normal" in2="BackgroundImageFix" result="effect1_dropShadow_448_954"/>
<feBlend mode="normal" in="SourceGraphic" in2="effect1_dropShadow_448_954" result="shape"/>
<feColorMatrix in="SourceAlpha" type="matrix" values="0 0 0 0 0 0 0 0 0 0 0 0 0 0 0 0 0 0 127 0" result="hardAlpha"/>
<feOffset dy="4"/>
<feGaussianBlur stdDeviation="3"/>
<feComposite in2="hardAlpha" operator="arithmetic" k2="-1" k3="1"/>
<feColorMatrix type="matrix" values="0 0 0 0 0 0 0 0 0 0 0 0 0 0 0 0 0 0 0.8 0"/>
<feBlend mode="normal" in2="shape" result="effect2_innerShadow_448_954"/>
</filter>
<filter id="filter16_d_448_954" x="29.1157" y="27.9238" width="10.9761" height="10.8618" filterUnits="userSpaceOnUse" color-interpolation-filters="sRGB">
<feFlood flood-opacity="0" result="BackgroundImageFix"/>
<feColorMatrix in="SourceAlpha" type="matrix" values="0 0 0 0 0 0 0 0 0 0 0 0 0 0 0 0 0 0 127 0" result="hardAlpha"/>
<feOffset dy="4"/>
<feGaussianBlur stdDeviation="2"/>
<feComposite in2="hardAlpha" operator="out"/>
<feColorMatrix type="matrix" values="0 0 0 0 0 0 0 0 0 0 0 0 0 0 0 0 0 0 0.8 0"/>
<feBlend mode="normal" in2="BackgroundImageFix" result="effect1_dropShadow_448_954"/>
<feBlend mode="normal" in="SourceGraphic" in2="effect1_dropShadow_448_954" result="shape"/>
</filter>
<filter id="filter17_di_448_954" x="70.4858" y="25.7546" width="14.4565" height="15.2004" filterUnits="userSpaceOnUse" color-interpolation-filters="sRGB">
<feFlood flood-opacity="0" result="BackgroundImageFix"/>
<feColorMatrix in="SourceAlpha" type="matrix" values="0 0 0 0 0 0 0 0 0 0 0 0 0 0 0 0 0 0 127 0" result="hardAlpha"/>
<feOffset dy="4"/>
<feGaussianBlur stdDeviation="2"/>
<feComposite in2="hardAlpha" operator="out"/>
<feColorMatrix type="matrix" values="0 0 0 0 0 0 0 0 0 0 0 0 0 0 0 0 0 0 0.25 0"/>
<feBlend mode="normal" in2="BackgroundImageFix" result="effect1_dropShadow_448_954"/>
<feBlend mode="normal" in="SourceGraphic" in2="effect1_dropShadow_448_954" result="shape"/>
<feColorMatrix in="SourceAlpha" type="matrix" values="0 0 0 0 0 0 0 0 0 0 0 0 0 0 0 0 0 0 127 0" result="hardAlpha"/>
<feOffset dy="4"/>
<feGaussianBlur stdDeviation="3"/>
<feComposite in2="hardAlpha" operator="arithmetic" k2="-1" k3="1"/>
<feColorMatrix type="matrix" values="0 0 0 0 0 0 0 0 0 0 0 0 0 0 0 0 0 0 0.8 0"/>
<feBlend mode="normal" in2="shape" result="effect2_innerShadow_448_954"/>
</filter>
<filter id="filter18_d_448_954" x="72.2261" y="27.9238" width="10.9761" height="10.8618" filterUnits="userSpaceOnUse" color-interpolation-filters="sRGB">
<feFlood flood-opacity="0" result="BackgroundImageFix"/>
<feColorMatrix in="SourceAlpha" type="matrix" values="0 0 0 0 0 0 0 0 0 0 0 0 0 0 0 0 0 0 127 0" result="hardAlpha"/>
<feOffset dy="4"/>
<feGaussianBlur stdDeviation="2"/>
<feComposite in2="hardAlpha" operator="out"/>
<feColorMatrix type="matrix" values="0 0 0 0 0 0 0 0 0 0 0 0 0 0 0 0 0 0 0.8 0"/>
<feBlend mode="normal" in2="BackgroundImageFix" result="effect1_dropShadow_448_954"/>
<feBlend mode="normal" in="SourceGraphic" in2="effect1_dropShadow_448_954" result="shape"/>
</filter>
<filter id="filter19_di_448_954" x="111.071" y="25.7546" width="14.4565" height="15.2004" filterUnits="userSpaceOnUse" color-interpolation-filters="sRGB">
<feFlood flood-opacity="0" result="BackgroundImageFix"/>
<feColorMatrix in="SourceAlpha" type="matrix" values="0 0 0 0 0 0 0 0 0 0 0 0 0 0 0 0 0 0 127 0" result="hardAlpha"/>
<feOffset dy="4"/>
<feGaussianBlur stdDeviation="2"/>
<feComposite in2="hardAlpha" operator="out"/>
<feColorMatrix type="matrix" values="0 0 0 0 0 0 0 0 0 0 0 0 0 0 0 0 0 0 0.25 0"/>
<feBlend mode="normal" in2="BackgroundImageFix" result="effect1_dropShadow_448_954"/>
<feBlend mode="normal" in="SourceGraphic" in2="effect1_dropShadow_448_954" result="shape"/>
<feColorMatrix in="SourceAlpha" type="matrix" values="0 0 0 0 0 0 0 0 0 0 0 0 0 0 0 0 0 0 127 0" result="hardAlpha"/>
<feOffset dy="4"/>
<feGaussianBlur stdDeviation="3"/>
<feComposite in2="hardAlpha" operator="arithmetic" k2="-1" k3="1"/>
<feColorMatrix type="matrix" values="0 0 0 0 0 0 0 0 0 0 0 0 0 0 0 0 0 0 0.8 0"/>
<feBlend mode="normal" in2="shape" result="effect2_innerShadow_448_954"/>
</filter>
<filter id="filter20_d_448_954" x="112.811" y="27.9238" width="10.9761" height="10.8618" filterUnits="userSpaceOnUse" color-interpolation-filters="sRGB">
<feFlood flood-opacity="0" result="BackgroundImageFix"/>
<feColorMatrix in="SourceAlpha" type="matrix" values="0 0 0 0 0 0 0 0 0 0 0 0 0 0 0 0 0 0 127 0" result="hardAlpha"/>
<feOffset dy="4"/>
<feGaussianBlur stdDeviation="2"/>
<feComposite in2="hardAlpha" operator="out"/>
<feColorMatrix type="matrix" values="0 0 0 0 0 0 0 0 0 0 0 0 0 0 0 0 0 0 0.8 0"/>
<feBlend mode="normal" in2="BackgroundImageFix" result="effect1_dropShadow_448_954"/>
<feBlend mode="normal" in="SourceGraphic" in2="effect1_dropShadow_448_954" result="shape"/>
</filter>
<filter id="filter21_di_448_954" x="153.91" y="25.7546" width="14.4565" height="15.2004" filterUnits="userSpaceOnUse" color-interpolation-filters="sRGB">
<feFlood flood-opacity="0" result="BackgroundImageFix"/>
<feColorMatrix in="SourceAlpha" type="matrix" values="0 0 0 0 0 0 0 0 0 0 0 0 0 0 0 0 0 0 127 0" result="hardAlpha"/>
<feOffset dy="4"/>
<feGaussianBlur stdDeviation="2"/>
<feComposite in2="hardAlpha" operator="out"/>
<feColorMatrix type="matrix" values="0 0 0 0 0 0 0 0 0 0 0 0 0 0 0 0 0 0 0.25 0"/>
<feBlend mode="normal" in2="BackgroundImageFix" result="effect1_dropShadow_448_954"/>
<feBlend mode="normal" in="SourceGraphic" in2="effect1_dropShadow_448_954" result="shape"/>
<feColorMatrix in="SourceAlpha" type="matrix" values="0 0 0 0 0 0 0 0 0 0 0 0 0 0 0 0 0 0 127 0" result="hardAlpha"/>
<feOffset dy="4"/>
<feGaussianBlur stdDeviation="3"/>
<feComposite in2="hardAlpha" operator="arithmetic" k2="-1" k3="1"/>
<feColorMatrix type="matrix" values="0 0 0 0 0 0 0 0 0 0 0 0 0 0 0 0 0 0 0.8 0"/>
<feBlend mode="normal" in2="shape" result="effect2_innerShadow_448_954"/>
</filter>
<filter id="filter22_d_448_954" x="155.65" y="27.9238" width="10.9761" height="10.8618" filterUnits="userSpaceOnUse" color-interpolation-filters="sRGB">
<feFlood flood-opacity="0" result="BackgroundImageFix"/>
<feColorMatrix in="SourceAlpha" type="matrix" values="0 0 0 0 0 0 0 0 0 0 0 0 0 0 0 0 0 0 127 0" result="hardAlpha"/>
<feOffset dy="4"/>
<feGaussianBlur stdDeviation="2"/>
<feComposite in2="hardAlpha" operator="out"/>
<feColorMatrix type="matrix" values="0 0 0 0 0 0 0 0 0 0 0 0 0 0 0 0 0 0 0.8 0"/>
<feBlend mode="normal" in2="BackgroundImageFix" result="effect1_dropShadow_448_954"/>
<feBlend mode="normal" in="SourceGraphic" in2="effect1_dropShadow_448_954" result="shape"/>
</filter>
<filter id="filter23_di_448_954" x="196.75" y="25.7546" width="14.4565" height="15.2004" filterUnits="userSpaceOnUse" color-interpolation-filters="sRGB">
<feFlood flood-opacity="0" result="BackgroundImageFix"/>
<feColorMatrix in="SourceAlpha" type="matrix" values="0 0 0 0 0 0 0 0 0 0 0 0 0 0 0 0 0 0 127 0" result="hardAlpha"/>
<feOffset dy="4"/>
<feGaussianBlur stdDeviation="2"/>
<feComposite in2="hardAlpha" operator="out"/>
<feColorMatrix type="matrix" values="0 0 0 0 0 0 0 0 0 0 0 0 0 0 0 0 0 0 0.25 0"/>
<feBlend mode="normal" in2="BackgroundImageFix" result="effect1_dropShadow_448_954"/>
<feBlend mode="normal" in="SourceGraphic" in2="effect1_dropShadow_448_954" result="shape"/>
<feColorMatrix in="SourceAlpha" type="matrix" values="0 0 0 0 0 0 0 0 0 0 0 0 0 0 0 0 0 0 127 0" result="hardAlpha"/>
<feOffset dy="4"/>
<feGaussianBlur stdDeviation="3"/>
<feComposite in2="hardAlpha" operator="arithmetic" k2="-1" k3="1"/>
<feColorMatrix type="matrix" values="0 0 0 0 0 0 0 0 0 0 0 0 0 0 0 0 0 0 0.8 0"/>
<feBlend mode="normal" in2="shape" result="effect2_innerShadow_448_954"/>
</filter>
<filter id="filter24_d_448_954" x="198.49" y="27.9238" width="10.9761" height="10.8618" filterUnits="userSpaceOnUse" color-interpolation-filters="sRGB">
<feFlood flood-opacity="0" result="BackgroundImageFix"/>
<feColorMatrix in="SourceAlpha" type="matrix" values="0 0 0 0 0 0 0 0 0 0 0 0 0 0 0 0 0 0 127 0" result="hardAlpha"/>
<feOffset dy="4"/>
<feGaussianBlur stdDeviation="2"/>
<feComposite in2="hardAlpha" operator="out"/>
<feColorMatrix type="matrix" values="0 0 0 0 0 0 0 0 0 0 0 0 0 0 0 0 0 0 0.8 0"/>
<feBlend mode="normal" in2="BackgroundImageFix" result="effect1_dropShadow_448_954"/>
<feBlend mode="normal" in="SourceGraphic" in2="effect1_dropShadow_448_954" result="shape"/>
</filter>
<filter id="filter25_di_448_954" x="239.59" y="25.7546" width="14.4565" height="15.2004" filterUnits="userSpaceOnUse" color-interpolation-filters="sRGB">
<feFlood flood-opacity="0" result="BackgroundImageFix"/>
<feColorMatrix in="SourceAlpha" type="matrix" values="0 0 0 0 0 0 0 0 0 0 0 0 0 0 0 0 0 0 127 0" result="hardAlpha"/>
<feOffset dy="4"/>
<feGaussianBlur stdDeviation="2"/>
<feComposite in2="hardAlpha" operator="out"/>
<feColorMatrix type="matrix" values="0 0 0 0 0 0 0 0 0 0 0 0 0 0 0 0 0 0 0.25 0"/>
<feBlend mode="normal" in2="BackgroundImageFix" result="effect1_dropShadow_448_954"/>
<feBlend mode="normal" in="SourceGraphic" in2="effect1_dropShadow_448_954" result="shape"/>
<feColorMatrix in="SourceAlpha" type="matrix" values="0 0 0 0 0 0 0 0 0 0 0 0 0 0 0 0 0 0 127 0" result="hardAlpha"/>
<feOffset dy="4"/>
<feGaussianBlur stdDeviation="3"/>
<feComposite in2="hardAlpha" operator="arithmetic" k2="-1" k3="1"/>
<feColorMatrix type="matrix" values="0 0 0 0 0 0 0 0 0 0 0 0 0 0 0 0 0 0 0.8 0"/>
<feBlend mode="normal" in2="shape" result="effect2_innerShadow_448_954"/>
</filter>
<filter id="filter26_d_448_954" x="241.33" y="27.9238" width="10.9761" height="10.8618" filterUnits="userSpaceOnUse" color-interpolation-filters="sRGB">
<feFlood flood-opacity="0" result="BackgroundImageFix"/>
<feColorMatrix in="SourceAlpha" type="matrix" values="0 0 0 0 0 0 0 0 0 0 0 0 0 0 0 0 0 0 127 0" result="hardAlpha"/>
<feOffset dy="4"/>
<feGaussianBlur stdDeviation="2"/>
<feComposite in2="hardAlpha" operator="out"/>
<feColorMatrix type="matrix" values="0 0 0 0 0 0 0 0 0 0 0 0 0 0 0 0 0 0 0.8 0"/>
<feBlend mode="normal" in2="BackgroundImageFix" result="effect1_dropShadow_448_954"/>
<feBlend mode="normal" in="SourceGraphic" in2="effect1_dropShadow_448_954" result="shape"/>
</filter>
</defs>
</svg>
