<svg width="85" height="252" viewBox="0 0 85 252" fill="none" xmlns="http://www.w3.org/2000/svg">
<g filter="url(#filter0_i_448_906)">
<path d="M12 77.5L8.5 75L8 44C8 44 7.5 16.5 9 11C9.20551 10.2465 11 11 11 11V9.5L12 7.5H13V4.5L13.5 3.5L28 2.5L43 3.5L44 12.5L44.5 3.5L57 2L61 12.5L65 11V20L67 21V3.5L78 4.5L81 14.5C81 14.5 83.6123 22.0112 83 27.5C82.498 32 80.1018 34.6847 79 39.5C77.3398 46.7555 77.6808 51.0591 77.5 58.5C77.4194 61.8185 77.5 67 77.5 67L72.5 70L79 72C79 72 78.3165 89.6954 79 101C79.6168 111.202 81.4152 116.796 82 127C82.581 137.137 82 153 82 153L79 155.5L82 157L81 199L76.5 206V208.5L75 211L75.5 218L81 236.5V247H65.5V242L64 234.5L63.5 239L62.5 242V247H56V242L57 233.5L54 225.5L52 233.5L54 247L27.5 249.5L25.5 238L23.5 220.5V233.5V249.5H8L5.5 216.5L10 211L4.99805 212C4.99805 212 3.99797 194 4 190.5C4.00204 187 5.5 175 5.5 175L10 173L5.5 168L10 124L12 121.5L8.5 117.5L9 79L12 77.5Z" fill="#B87038"/>
</g>
<path d="M54 225.5L52 233.5L54 247L27.5 249.5L25.5 238L23.5 220.5V233.5V249.5H8L5.5 216.5L10 211L4.99805 212C4.99805 212 3.99797 194 4 190.5C4.00204 187 5.5 175 5.5 175L10 173L5.5 168L10 124L12 121.5L8.5 117.5L9 79L12 77.5L8.5 75L8 44C8 44 7.5 16.5 9 11C9.20551 10.2465 11 11 11 11V9.5L12 7.5H13V4.5L13.5 3.5L28 2.5L43 3.5L44 12.5M54 225.5L52 215L54 211M54 225.5L57 233.5L56 242V247H62.5V242L63.5 239L64 234.5M64 234.5V227L65.5 220.5M64 234.5L65.5 242V247H81V236.5L75.5 218L75 211L76.5 208.5V206L81 199L82 157L79 155.5L82 153C82 153 82.581 137.137 82 127C81.4152 116.796 79.6168 111.202 79 101C78.3165 89.6954 79 72 79 72L72.5 70L77.5 67C77.5 67 77.4194 61.8185 77.5 58.5C77.6808 51.0591 77.3398 46.7555 79 39.5C80.1018 34.6847 82.498 32 83 27.5C83.6123 22.0112 81 14.5 81 14.5L78 4.5L67 3.5V21L65 20V11L61 12.5M61 12.5L60.5 20M61 12.5L57 2L44.5 3.5L44 12.5M44 12.5L44.5 22.5L44.4545 23M44 12.5L44.4545 23M44 28L44.4545 23" stroke="black" stroke-width="3" stroke-linecap="round"/>
<g filter="url(#filter1_d_448_906)">
<path d="M55.9647 193.769C54.4373 201.254 53 215 53 215C53 215 53.6353 195.286 54.4824 193.769C56.8412 189.546 57.5443 180.125 59.5647 174.055C61.2764 168.913 64.0118 163.44 64.0118 163.44L71 146C71 146 64.6471 166.473 61.4706 171.78C58.2941 177.088 57.8651 184.457 55.9647 193.769Z" fill="black"/>
<path d="M55.9647 193.769C54.4373 201.254 53 215 53 215C53 215 53.6353 195.286 54.4824 193.769C56.8412 189.546 57.5443 180.125 59.5647 174.055C61.2764 168.913 64.0118 163.44 64.0118 163.44L71 146C71 146 64.6471 166.473 61.4706 171.78C58.2941 177.088 57.8651 184.457 55.9647 193.769Z" stroke="black" stroke-linecap="round"/>
</g>
<g filter="url(#filter2_d_448_906)">
<path d="M20.1393 207.741C19.9091 212.514 20.7355 220.95 20.7355 220.95C20.7355 220.95 18.2483 209.195 18.7858 208.098C20.2825 205.044 19.4586 199.33 20.359 195.27C21.1219 191.831 22.7679 187.95 22.7679 187.95L26.4353 176C26.4353 176 23.8199 189.581 21.7453 193.471C19.6708 197.362 20.4257 201.802 20.1393 207.741Z" fill="black"/>
<path d="M20.1393 207.741C19.9091 212.514 20.7355 220.95 20.7355 220.95C20.7355 220.95 18.2483 209.195 18.7858 208.098C20.2825 205.044 19.4586 199.33 20.359 195.27C21.1219 191.831 22.7679 187.95 22.7679 187.95L26.4353 176C26.4353 176 23.8199 189.581 21.7453 193.471C19.6708 197.362 20.4257 201.802 20.1393 207.741Z" stroke="black" stroke-linecap="round"/>
</g>
<g filter="url(#filter3_d_448_906)">
<path d="M29.0401 53.3863C30.6702 59.2776 35.6696 67.5655 35.6696 67.5655C35.6696 67.5655 26.4095 58.3188 26.8673 56.1301C28.1419 50.0349 24.302 44.8765 24.1258 38.652C23.9766 33.3784 25.1569 26.0747 25.1569 26.0747L26.3851 6.00009C26.3851 6.00009 27.656 26.1405 25.7436 34.193C23.8313 42.2455 27.012 46.0565 29.0401 53.3863Z" fill="black"/>
<path d="M29.0401 53.3863C30.6702 59.2776 35.6696 67.5655 35.6696 67.5655C35.6696 67.5655 26.4095 58.3188 26.8673 56.1301C28.1419 50.0349 24.302 44.8765 24.1258 38.652C23.9766 33.3784 25.1569 26.0747 25.1569 26.0747L26.3851 6.00009C26.3851 6.00009 27.656 26.1405 25.7436 34.193C23.8313 42.2455 27.012 46.0565 29.0401 53.3863Z" stroke="black" stroke-linecap="round"/>
</g>
<g filter="url(#filter4_d_448_906)">
<path d="M60.1412 84.9231C59.038 91.6482 58 104 58 104C58 104 58.4588 86.2857 59.0706 84.9231C60.7742 81.1284 61.282 72.6627 62.7412 67.2088C63.9774 62.5881 65.9529 57.6703 65.9529 57.6703L71 42C71 42 66.4118 60.3956 64.1176 65.1648C61.8235 69.9341 61.5137 76.5558 60.1412 84.9231Z" fill="black"/>
<path d="M60.1412 84.9231C59.038 91.6482 58 104 58 104C58 104 58.4588 86.2857 59.0706 84.9231C60.7742 81.1284 61.282 72.6627 62.7412 67.2088C63.9774 62.5881 65.9529 57.6703 65.9529 57.6703L71 42C71 42 66.4118 60.3956 64.1176 65.1648C61.8235 69.9341 61.5137 76.5558 60.1412 84.9231Z" stroke="black" stroke-linecap="round"/>
</g>
<g filter="url(#filter5_d_448_906)">
<path d="M37.0648 139.446C40.5283 146.751 48.4993 158.663 48.4993 158.663C48.4993 158.663 35.3898 143.149 35.3206 141.077C35.1278 135.307 29.3329 127.453 27.4439 120.668C25.8434 114.92 25.2151 107.797 25.2151 107.797L21.1797 87C21.1797 87 28.0944 109.377 28.0875 116.861C28.0806 124.346 32.7557 130.356 37.0648 139.446Z" fill="black"/>
<path d="M37.0648 139.446C40.5283 146.751 48.4993 158.663 48.4993 158.663C48.4993 158.663 35.3898 143.149 35.3206 141.077C35.1278 135.307 29.3329 127.453 27.4439 120.668C25.8434 114.92 25.2151 107.797 25.2151 107.797L21.1797 87C21.1797 87 28.0944 109.377 28.0875 116.861C28.0806 124.346 32.7557 130.356 37.0648 139.446Z" stroke="black" stroke-linecap="round"/>
</g>
<defs>
<filter id="filter0_i_448_906" x="2.5" y="0.371094" width="82.0928" height="254.752" filterUnits="userSpaceOnUse" color-interpolation-filters="sRGB">
<feFlood flood-opacity="0" result="BackgroundImageFix"/>
<feBlend mode="normal" in="SourceGraphic" in2="BackgroundImageFix" result="shape"/>
<feColorMatrix in="SourceAlpha" type="matrix" values="0 0 0 0 0 0 0 0 0 0 0 0 0 0 0 0 0 0 127 0" result="hardAlpha"/>
<feOffset dy="4"/>
<feGaussianBlur stdDeviation="10"/>
<feComposite in2="hardAlpha" operator="arithmetic" k2="-1" k3="1"/>
<feColorMatrix type="matrix" values="0 0 0 0 0.4 0 0 0 0 0.262745 0 0 0 0 0.133333 0 0 0 1 0"/>
<feBlend mode="normal" in2="shape" result="effect1_innerShadow_448_906"/>
</filter>
<filter id="filter1_d_448_906" x="48.5" y="145.814" width="26.9775" height="77.238" filterUnits="userSpaceOnUse" color-interpolation-filters="sRGB">
<feFlood flood-opacity="0" result="BackgroundImageFix"/>
<feColorMatrix in="SourceAlpha" type="matrix" values="0 0 0 0 0 0 0 0 0 0 0 0 0 0 0 0 0 0 127 0" result="hardAlpha"/>
<feOffset dy="4"/>
<feGaussianBlur stdDeviation="2"/>
<feComposite in2="hardAlpha" operator="out"/>
<feColorMatrix type="matrix" values="0 0 0 0 0 0 0 0 0 0 0 0 0 0 0 0 0 0 0.25 0"/>
<feBlend mode="normal" in2="BackgroundImageFix" result="effect1_dropShadow_448_906"/>
<feBlend mode="normal" in="SourceGraphic" in2="effect1_dropShadow_448_906" result="shape"/>
</filter>
<filter id="filter2_d_448_906" x="14.21" y="175.853" width="16.7158" height="53.2002" filterUnits="userSpaceOnUse" color-interpolation-filters="sRGB">
<feFlood flood-opacity="0" result="BackgroundImageFix"/>
<feColorMatrix in="SourceAlpha" type="matrix" values="0 0 0 0 0 0 0 0 0 0 0 0 0 0 0 0 0 0 127 0" result="hardAlpha"/>
<feOffset dy="4"/>
<feGaussianBlur stdDeviation="2"/>
<feComposite in2="hardAlpha" operator="out"/>
<feColorMatrix type="matrix" values="0 0 0 0 0 0 0 0 0 0 0 0 0 0 0 0 0 0 0.25 0"/>
<feBlend mode="normal" in2="BackgroundImageFix" result="effect1_dropShadow_448_906"/>
<feBlend mode="normal" in="SourceGraphic" in2="effect1_dropShadow_448_906" result="shape"/>
</filter>
<filter id="filter3_d_448_906" x="19.6133" y="5.96851" width="20.4844" height="69.9507" filterUnits="userSpaceOnUse" color-interpolation-filters="sRGB">
<feFlood flood-opacity="0" result="BackgroundImageFix"/>
<feColorMatrix in="SourceAlpha" type="matrix" values="0 0 0 0 0 0 0 0 0 0 0 0 0 0 0 0 0 0 127 0" result="hardAlpha"/>
<feOffset dy="4"/>
<feGaussianBlur stdDeviation="2"/>
<feComposite in2="hardAlpha" operator="out"/>
<feColorMatrix type="matrix" values="0 0 0 0 0 0 0 0 0 0 0 0 0 0 0 0 0 0 0.25 0"/>
<feBlend mode="normal" in2="BackgroundImageFix" result="effect1_dropShadow_448_906"/>
<feBlend mode="normal" in="SourceGraphic" in2="effect1_dropShadow_448_906" result="shape"/>
</filter>
<filter id="filter4_d_448_906" x="53.5" y="41.8467" width="21.9854" height="70.1953" filterUnits="userSpaceOnUse" color-interpolation-filters="sRGB">
<feFlood flood-opacity="0" result="BackgroundImageFix"/>
<feColorMatrix in="SourceAlpha" type="matrix" values="0 0 0 0 0 0 0 0 0 0 0 0 0 0 0 0 0 0 127 0" result="hardAlpha"/>
<feOffset dy="4"/>
<feGaussianBlur stdDeviation="2"/>
<feComposite in2="hardAlpha" operator="out"/>
<feColorMatrix type="matrix" values="0 0 0 0 0 0 0 0 0 0 0 0 0 0 0 0 0 0 0.25 0"/>
<feBlend mode="normal" in2="BackgroundImageFix" result="effect1_dropShadow_448_906"/>
<feBlend mode="normal" in="SourceGraphic" in2="effect1_dropShadow_448_906" result="shape"/>
</filter>
<filter id="filter5_d_448_906" x="16.6885" y="86.8523" width="36.2266" height="80.1338" filterUnits="userSpaceOnUse" color-interpolation-filters="sRGB">
<feFlood flood-opacity="0" result="BackgroundImageFix"/>
<feColorMatrix in="SourceAlpha" type="matrix" values="0 0 0 0 0 0 0 0 0 0 0 0 0 0 0 0 0 0 127 0" result="hardAlpha"/>
<feOffset dy="4"/>
<feGaussianBlur stdDeviation="2"/>
<feComposite in2="hardAlpha" operator="out"/>
<feColorMatrix type="matrix" values="0 0 0 0 0 0 0 0 0 0 0 0 0 0 0 0 0 0 0.25 0"/>
<feBlend mode="normal" in2="BackgroundImageFix" result="effect1_dropShadow_448_906"/>
<feBlend mode="normal" in="SourceGraphic" in2="effect1_dropShadow_448_906" result="shape"/>
</filter>
</defs>
</svg>
