<svg width="326" height="19" viewBox="0 0 326 19" fill="none" xmlns="http://www.w3.org/2000/svg">
<path d="M2.56 15.12C2.05333 15.12 1.63333 14.96 1.3 14.64C0.98 14.3067 0.82 13.8867 0.82 13.38C0.82 12.86 0.98 12.44 1.3 12.12C1.63333 11.8 2.05333 11.64 2.56 11.64C3.06667 11.64 3.48 11.8 3.8 12.12C4.12 12.44 4.28 12.86 4.28 13.38C4.28 13.8867 4.11333 14.3067 3.78 14.64C3.46 14.96 3.05333 15.12 2.56 15.12ZM7.89203 15.12C7.38536 15.12 6.96536 14.96 6.63203 14.64C6.31203 14.3067 6.15203 13.8867 6.15203 13.38C6.15203 12.86 6.31203 12.44 6.63203 12.12C6.96536 11.8 7.38536 11.64 7.89203 11.64C8.3987 11.64 8.81203 11.8 9.13203 12.12C9.45203 12.44 9.61203 12.86 9.61203 13.38C9.61203 13.8867 9.44536 14.3067 9.11203 14.64C8.79203 14.96 8.38536 15.12 7.89203 15.12ZM13.2241 15.12C12.7174 15.12 12.2974 14.96 11.9641 14.64C11.6441 14.3067 11.4841 13.8867 11.4841 13.38C11.4841 12.86 11.6441 12.44 11.9641 12.12C12.2974 11.8 12.7174 11.64 13.2241 11.64C13.7307 11.64 14.1441 11.8 14.4641 12.12C14.7841 12.44 14.9441 12.86 14.9441 13.38C14.9441 13.8867 14.7774 14.3067 14.4441 14.64C14.1241 14.96 13.7174 15.12 13.2241 15.12ZM16.1353 18.98C16.0953 18.98 16.062 18.9533 16.0353 18.9C16.0086 18.86 15.9953 18.8067 15.9953 18.74V16.5C15.9953 16.34 16.0686 16.26 16.2153 16.26C17.0686 16.26 17.682 16.18 18.0553 16.02C18.4286 15.86 18.6553 15.54 18.7353 15.06C18.7486 15.0333 18.7486 14.9933 18.7353 14.94L15.5153 4.92C15.502 4.89333 15.4953 4.86 15.4953 4.82C15.4953 4.7 15.5686 4.64 15.7153 4.64H18.7353C18.8686 4.64 18.9553 4.70667 18.9953 4.84L20.3753 10.76C20.3886 10.8133 20.4086 10.84 20.4353 10.84C20.462 10.84 20.482 10.8133 20.4953 10.76L21.8753 4.84C21.9153 4.70667 22.002 4.64 22.1353 4.64H25.0953C25.1753 4.64 25.2353 4.66667 25.2753 4.72C25.3153 4.76 25.322 4.82667 25.2953 4.92L21.9153 15.2C21.582 16.2 21.2286 16.9533 20.8553 17.46C20.4953 17.98 19.962 18.36 19.2553 18.6C18.562 18.8533 17.5686 18.98 16.2753 18.98H16.1353ZM30.4042 15.16C29.2042 15.16 28.1842 14.84 27.3442 14.2C26.5042 13.56 25.9442 12.6933 25.6642 11.6C25.5042 11.0533 25.4242 10.4533 25.4242 9.8C25.4242 9.06667 25.5109 8.42 25.6842 7.86C25.9909 6.80667 26.5576 5.98667 27.3842 5.4C28.2242 4.8 29.2376 4.5 30.4242 4.5C31.5976 4.5 32.5909 4.8 33.4042 5.4C34.2176 5.98667 34.7842 6.8 35.1042 7.84C35.2909 8.44 35.3842 9.08 35.3842 9.76C35.3842 10.3733 35.3109 10.96 35.1642 11.52C34.8842 12.64 34.3242 13.5267 33.4842 14.18C32.6442 14.8333 31.6176 15.16 30.4042 15.16ZM30.4042 12.32C30.7909 12.32 31.1109 12.2 31.3642 11.96C31.6176 11.7067 31.8042 11.3667 31.9242 10.94C32.0042 10.5933 32.0442 10.2133 32.0442 9.8C32.0442 9.4 31.9976 9.01333 31.9042 8.64C31.7976 8.22667 31.6176 7.90667 31.3642 7.68C31.1109 7.45333 30.7909 7.34 30.4042 7.34C29.6309 7.34 29.1242 7.77333 28.8842 8.64C28.8042 8.96 28.7642 9.34667 28.7642 9.8C28.7642 10.2133 28.8042 10.5933 28.8842 10.94C28.9909 11.3667 29.1709 11.7067 29.4242 11.96C29.6909 12.2 30.0176 12.32 30.4042 12.32ZM42.7966 4.9C42.7966 4.83333 42.8166 4.78 42.8566 4.74C42.9099 4.68667 42.9699 4.66 43.0366 4.66H45.8766C45.9432 4.66 45.9966 4.68667 46.0366 4.74C46.0899 4.78 46.1166 4.83333 46.1166 4.9V14.76C46.1166 14.8267 46.0899 14.8867 46.0366 14.94C45.9966 14.98 45.9432 15 45.8766 15H43.0366C42.9699 15 42.9099 14.98 42.8566 14.94C42.8166 14.8867 42.7966 14.8267 42.7966 14.76V14.06C42.7966 14.02 42.7832 13.9933 42.7566 13.98C42.7299 13.9667 42.7032 13.98 42.6766 14.02C42.1432 14.78 41.3032 15.16 40.1566 15.16C39.1432 15.16 38.3232 14.84 37.6966 14.2C37.0699 13.56 36.7566 12.6667 36.7566 11.52V4.9C36.7566 4.83333 36.7766 4.78 36.8166 4.74C36.8699 4.68667 36.9299 4.66 36.9966 4.66H39.8366C39.9032 4.66 39.9566 4.68667 39.9966 4.74C40.0499 4.78 40.0766 4.83333 40.0766 4.9V10.76C40.0766 11.2267 40.1966 11.6 40.4366 11.88C40.6766 12.16 41.0032 12.3 41.4166 12.3C41.7899 12.3 42.0966 12.1867 42.3366 11.96C42.5899 11.7333 42.7432 11.4333 42.7966 11.06V4.9ZM52.037 15C51.9704 15 51.9104 14.98 51.857 14.94C51.817 14.8867 51.797 14.8267 51.797 14.76V1.24C51.797 1.17333 51.817 1.12 51.857 1.08C51.9104 1.02667 51.9704 0.999999 52.037 0.999999H54.877C54.9437 0.999999 54.997 1.02667 55.037 1.08C55.0904 1.12 55.117 1.17333 55.117 1.24V7.46C55.117 7.5 55.1304 7.52667 55.157 7.54C55.1837 7.54 55.2104 7.52667 55.237 7.5L57.417 4.8C57.497 4.70667 57.597 4.66 57.717 4.66H60.977C61.1104 4.66 61.177 4.70667 61.177 4.8C61.177 4.84 61.157 4.89333 61.117 4.96L58.497 8.34C58.4704 8.38 58.4704 8.42667 58.497 8.48L61.477 14.72C61.5037 14.7733 61.517 14.8133 61.517 14.84C61.517 14.9467 61.4437 15 61.297 15H58.337C58.2037 15 58.1104 14.94 58.057 14.82L56.237 10.56C56.2237 10.5333 56.197 10.52 56.157 10.52C56.1304 10.5067 56.1104 10.5133 56.097 10.54L55.157 11.88C55.1304 11.9333 55.117 11.9733 55.117 12V14.76C55.117 14.8267 55.0904 14.8867 55.037 14.94C54.997 14.98 54.9437 15 54.877 15H52.037ZM68.5155 4.5C69.5555 4.5 70.4088 4.83333 71.0755 5.5C71.7421 6.15333 72.0755 7.04667 72.0755 8.18V14.76C72.0755 14.8267 72.0488 14.8867 71.9955 14.94C71.9555 14.98 71.9021 15 71.8355 15H68.9955C68.9288 15 68.8688 14.98 68.8155 14.94C68.7755 14.8867 68.7555 14.8267 68.7555 14.76V8.9C68.7555 8.44667 68.6288 8.07333 68.3755 7.78C68.1221 7.48667 67.7955 7.34 67.3955 7.34C66.9821 7.34 66.6488 7.48667 66.3955 7.78C66.1421 8.06 66.0155 8.43333 66.0155 8.9V14.76C66.0155 14.8267 65.9888 14.8867 65.9355 14.94C65.8955 14.98 65.8421 15 65.7755 15H62.9355C62.8688 15 62.8088 14.98 62.7555 14.94C62.7155 14.8867 62.6955 14.8267 62.6955 14.76V4.9C62.6955 4.83333 62.7155 4.78 62.7555 4.74C62.8088 4.68667 62.8688 4.66 62.9355 4.66H65.7755C65.8421 4.66 65.8955 4.68667 65.9355 4.74C65.9888 4.78 66.0155 4.83333 66.0155 4.9V5.64C66.0155 5.69333 66.0221 5.72667 66.0355 5.74C66.0621 5.74 66.0888 5.72 66.1155 5.68C66.6221 4.89333 67.4221 4.5 68.5155 4.5ZM78.412 15.16C77.212 15.16 76.192 14.84 75.352 14.2C74.512 13.56 73.952 12.6933 73.672 11.6C73.512 11.0533 73.432 10.4533 73.432 9.8C73.432 9.06667 73.5187 8.42 73.692 7.86C73.9987 6.80667 74.5654 5.98667 75.392 5.4C76.232 4.8 77.2454 4.5 78.432 4.5C79.6054 4.5 80.5987 4.8 81.412 5.4C82.2254 5.98667 82.792 6.8 83.112 7.84C83.2987 8.44 83.392 9.08 83.392 9.76C83.392 10.3733 83.3187 10.96 83.172 11.52C82.892 12.64 82.332 13.5267 81.492 14.18C80.652 14.8333 79.6254 15.16 78.412 15.16ZM78.412 12.32C78.7987 12.32 79.1187 12.2 79.372 11.96C79.6254 11.7067 79.812 11.3667 79.932 10.94C80.012 10.5933 80.052 10.2133 80.052 9.8C80.052 9.4 80.0054 9.01333 79.912 8.64C79.8054 8.22667 79.6254 7.90667 79.372 7.68C79.1187 7.45333 78.7987 7.34 78.412 7.34C77.6387 7.34 77.132 7.77333 76.892 8.64C76.812 8.96 76.772 9.34667 76.772 9.8C76.772 10.2133 76.812 10.5933 76.892 10.94C76.9987 11.3667 77.1787 11.7067 77.432 11.96C77.6987 12.2 78.0254 12.32 78.412 12.32ZM86.8994 15C86.766 15 86.6794 14.9333 86.6394 14.8L83.7394 4.92L83.7194 4.84C83.7194 4.70667 83.7927 4.64 83.9394 4.64H86.8794C87.026 4.64 87.1127 4.71333 87.1394 4.86L88.3394 10.28C88.3527 10.3333 88.3727 10.36 88.3994 10.36C88.426 10.36 88.446 10.3333 88.4594 10.28L89.7594 4.84C89.7994 4.70667 89.886 4.64 90.0194 4.64H92.5794C92.726 4.64 92.8194 4.70667 92.8594 4.84L94.2194 10.3C94.2327 10.34 94.2527 10.36 94.2794 10.36C94.306 10.36 94.326 10.34 94.3394 10.3L95.6794 4.84C95.7194 4.70667 95.8127 4.64 95.9594 4.64L98.8794 4.68C98.9594 4.68 99.0127 4.70667 99.0394 4.76C99.0794 4.8 99.0927 4.86 99.0794 4.94L96.1394 14.8C96.0994 14.9333 96.0127 15 95.8794 15H92.9394C92.7927 15 92.6994 14.9333 92.6594 14.8L91.3394 10.14C91.326 10.1 91.306 10.08 91.2794 10.08C91.2527 10.08 91.2327 10.1 91.2194 10.14L90.0994 14.8C90.0594 14.9333 89.9727 15 89.8394 15H86.8994ZM99.6686 17.1C99.4953 17.1 99.4219 17.0133 99.4486 16.84L100.049 12.04C100.062 11.8933 100.142 11.82 100.289 11.82H102.749C102.922 11.82 102.989 11.9067 102.949 12.08L101.689 16.9C101.649 17.0333 101.555 17.1 101.409 17.1H99.6686ZM110.665 3.74C110.159 3.74 109.739 3.58 109.405 3.26C109.085 2.92667 108.925 2.50667 108.925 2C108.925 1.48 109.085 1.06 109.405 0.739999C109.739 0.419999 110.159 0.259999 110.665 0.259999C111.172 0.259999 111.585 0.419999 111.905 0.739999C112.239 1.06 112.405 1.48 112.405 2C112.405 2.49333 112.239 2.90667 111.905 3.24C111.585 3.57333 111.172 3.74 110.665 3.74ZM109.225 15C109.159 15 109.099 14.98 109.045 14.94C109.005 14.8867 108.985 14.8267 108.985 14.76V4.9C108.985 4.83333 109.005 4.78 109.045 4.74C109.099 4.68667 109.159 4.66 109.225 4.66H112.065C112.132 4.66 112.185 4.68667 112.225 4.74C112.279 4.78 112.305 4.83333 112.305 4.9V14.76C112.305 14.8267 112.279 14.8867 112.225 14.94C112.185 14.98 112.132 15 112.065 15H109.225ZM119.844 4.5C120.884 4.5 121.737 4.83333 122.404 5.5C123.07 6.15333 123.404 7.04667 123.404 8.18V14.76C123.404 14.8267 123.377 14.8867 123.324 14.94C123.284 14.98 123.23 15 123.164 15H120.324C120.257 15 120.197 14.98 120.144 14.94C120.104 14.8867 120.084 14.8267 120.084 14.76V8.9C120.084 8.44667 119.957 8.07333 119.704 7.78C119.45 7.48667 119.124 7.34 118.724 7.34C118.31 7.34 117.977 7.48667 117.724 7.78C117.47 8.06 117.344 8.43333 117.344 8.9V14.76C117.344 14.8267 117.317 14.8867 117.264 14.94C117.224 14.98 117.17 15 117.104 15H114.264C114.197 15 114.137 14.98 114.084 14.94C114.044 14.8867 114.024 14.8267 114.024 14.76V4.9C114.024 4.83333 114.044 4.78 114.084 4.74C114.137 4.68667 114.197 4.66 114.264 4.66H117.104C117.17 4.66 117.224 4.68667 117.264 4.74C117.317 4.78 117.344 4.83333 117.344 4.9V5.64C117.344 5.69333 117.35 5.72667 117.364 5.74C117.39 5.74 117.417 5.72 117.444 5.68C117.95 4.89333 118.75 4.5 119.844 4.5ZM133.784 15.16C132.69 15.16 131.73 14.8867 130.904 14.34C130.09 13.7933 129.51 13.04 129.164 12.08C128.91 11.44 128.784 10.6733 128.784 9.78C128.784 8.88667 128.91 8.12 129.164 7.48C129.497 6.54667 130.077 5.82 130.904 5.3C131.73 4.76667 132.69 4.5 133.784 4.5C134.89 4.5 135.864 4.77333 136.704 5.32C137.544 5.86667 138.11 6.56 138.404 7.4C138.497 7.64 138.557 7.9 138.584 8.18C138.584 8.32667 138.51 8.41333 138.364 8.44L135.584 8.86H135.544C135.424 8.86 135.344 8.79333 135.304 8.66L135.264 8.48C135.237 8.37333 135.21 8.28 135.184 8.2C135.064 7.94667 134.877 7.74 134.624 7.58C134.384 7.42 134.097 7.34 133.764 7.34C133.057 7.34 132.59 7.65333 132.364 8.28C132.217 8.65333 132.144 9.16 132.144 9.8C132.144 10.3733 132.21 10.8733 132.344 11.3C132.597 11.98 133.07 12.32 133.764 12.32C134.11 12.32 134.41 12.2333 134.664 12.06C134.917 11.8733 135.097 11.6133 135.204 11.28C135.217 11.2533 135.224 11.2133 135.224 11.16C135.237 11.1467 135.244 11.12 135.244 11.08C135.284 10.92 135.377 10.8533 135.524 10.88L138.324 11.32C138.457 11.3467 138.524 11.42 138.524 11.54C138.524 11.74 138.484 11.96 138.404 12.2C138.084 13.1333 137.504 13.86 136.664 14.38C135.837 14.9 134.877 15.16 133.784 15.16ZM144.223 4.5C145.116 4.5 145.923 4.65333 146.643 4.96C147.363 5.25333 147.929 5.66667 148.343 6.2C148.756 6.72 148.963 7.3 148.963 7.94V14.76C148.963 14.8267 148.936 14.8867 148.883 14.94C148.843 14.98 148.789 15 148.723 15H145.883C145.816 15 145.756 14.98 145.703 14.94C145.663 14.8867 145.643 14.8267 145.643 14.76V14.06C145.643 14.0067 145.629 13.98 145.603 13.98C145.576 13.9667 145.549 13.9867 145.523 14.04C145.016 14.7867 144.149 15.16 142.923 15.16C141.856 15.16 141.003 14.9133 140.363 14.42C139.736 13.9133 139.423 13.1733 139.423 12.2C139.423 11.1733 139.776 10.38 140.483 9.82C141.203 9.26 142.243 8.98 143.603 8.98H145.543C145.609 8.98 145.643 8.94667 145.643 8.88V8.5C145.643 8.14 145.523 7.86 145.283 7.66C145.043 7.44667 144.709 7.34 144.283 7.34C143.963 7.34 143.683 7.4 143.443 7.52C143.216 7.64 143.069 7.79333 143.003 7.98C142.936 8.12667 142.843 8.19333 142.723 8.18L139.843 7.8C139.683 7.77333 139.603 7.71333 139.603 7.62C139.656 7.03333 139.883 6.50667 140.283 6.04C140.696 5.56 141.243 5.18667 141.923 4.92C142.616 4.64 143.383 4.5 144.223 4.5ZM143.903 12.78C144.409 12.78 144.823 12.6533 145.143 12.4C145.476 12.1333 145.643 11.7867 145.643 11.36V10.88C145.643 10.8133 145.609 10.78 145.543 10.78H144.342C143.836 10.78 143.443 10.8667 143.163 11.04C142.896 11.2133 142.763 11.4733 142.763 11.82C142.763 12.1133 142.863 12.3467 143.063 12.52C143.263 12.6933 143.543 12.78 143.903 12.78ZM155.006 15.16C154.059 15.16 153.232 15.0333 152.526 14.78C151.819 14.5133 151.272 14.1467 150.886 13.68C150.512 13.2 150.326 12.6533 150.326 12.04V11.82C150.326 11.7533 150.346 11.7 150.386 11.66C150.439 11.6067 150.499 11.58 150.566 11.58H153.266C153.332 11.58 153.386 11.6067 153.426 11.66C153.479 11.7 153.506 11.7533 153.506 11.82C153.506 12.0733 153.646 12.2867 153.926 12.46C154.206 12.62 154.559 12.7 154.986 12.7C155.359 12.7 155.652 12.64 155.866 12.52C156.092 12.3867 156.206 12.2133 156.206 12C156.206 11.7867 156.086 11.6333 155.846 11.54C155.619 11.4333 155.246 11.3333 154.726 11.24C153.886 11.08 153.206 10.8867 152.686 10.66C152.006 10.38 151.466 10.0333 151.066 9.62C150.666 9.19333 150.466 8.61333 150.466 7.88C150.466 6.84 150.866 6.02 151.666 5.42C152.479 4.80667 153.546 4.5 154.866 4.5C155.759 4.5 156.539 4.64667 157.206 4.94C157.886 5.22 158.412 5.62 158.786 6.14C159.159 6.66 159.346 7.26 159.346 7.94C159.346 8.00667 159.319 8.06667 159.266 8.12C159.226 8.16 159.172 8.18 159.106 8.18H156.486C156.419 8.18 156.359 8.16 156.306 8.12C156.266 8.06667 156.246 8.00667 156.246 7.94C156.246 7.68667 156.126 7.48 155.886 7.32C155.646 7.16 155.319 7.08 154.906 7.08C154.532 7.08 154.226 7.14667 153.986 7.28C153.759 7.4 153.646 7.57333 153.646 7.8C153.646 8.02667 153.772 8.19333 154.026 8.3C154.279 8.39333 154.706 8.5 155.306 8.62C156.079 8.78 156.619 8.90667 156.926 9C157.752 9.26667 158.392 9.62667 158.846 10.08C159.312 10.5333 159.546 11.14 159.546 11.9C159.546 12.94 159.132 13.7467 158.306 14.32C157.492 14.88 156.392 15.16 155.006 15.16ZM170.4 8.92C170.467 9.32 170.487 9.84667 170.46 10.5C170.447 10.66 170.36 10.74 170.2 10.74H164.1C164.074 10.74 164.047 10.7533 164.02 10.78C163.994 10.7933 163.987 10.8133 164 10.84C164.027 10.9867 164.094 11.18 164.2 11.42C164.36 11.7 164.6 11.9267 164.92 12.1C165.24 12.2733 165.634 12.36 166.1 12.36C166.94 12.36 167.6 12.0867 168.08 11.54C168.134 11.4733 168.194 11.44 168.26 11.44C168.327 11.44 168.38 11.4667 168.42 11.52L169.96 13.28C170.014 13.32 170.04 13.3733 170.04 13.44C170.04 13.4933 170.014 13.5467 169.96 13.6C169.494 14.1067 168.914 14.4933 168.22 14.76C167.54 15.0267 166.794 15.16 165.98 15.16C164.767 15.16 163.734 14.9 162.88 14.38C162.04 13.8467 161.434 13.1067 161.06 12.16C160.78 11.4933 160.64 10.66 160.64 9.66C160.64 8.96667 160.747 8.3 160.96 7.66C161.307 6.67333 161.874 5.9 162.66 5.34C163.46 4.76667 164.407 4.48 165.5 4.48C166.38 4.48 167.167 4.67333 167.86 5.06C168.554 5.43333 169.114 5.96 169.54 6.64C169.98 7.30667 170.267 8.06667 170.4 8.92ZM165.5 7.34C164.807 7.34 164.347 7.66667 164.12 8.32C164.067 8.46667 164.034 8.60667 164.02 8.74C163.994 8.80667 164.02 8.84 164.1 8.84H166.94C166.994 8.84 167.02 8.81333 167.02 8.76C167.02 8.65333 166.994 8.52 166.94 8.36C166.847 8.02667 166.674 7.77333 166.42 7.6C166.18 7.42667 165.874 7.34 165.5 7.34ZM175.92 18.98C175.88 18.98 175.847 18.9533 175.82 18.9C175.794 18.86 175.78 18.8067 175.78 18.74V16.5C175.78 16.34 175.854 16.26 176 16.26C176.854 16.26 177.467 16.18 177.84 16.02C178.214 15.86 178.44 15.54 178.52 15.06C178.534 15.0333 178.534 14.9933 178.52 14.94L175.3 4.92C175.287 4.89333 175.28 4.86 175.28 4.82C175.28 4.7 175.354 4.64 175.5 4.64H178.52C178.654 4.64 178.74 4.70667 178.78 4.84L180.16 10.76C180.174 10.8133 180.194 10.84 180.22 10.84C180.247 10.84 180.267 10.8133 180.28 10.76L181.66 4.84C181.7 4.70667 181.787 4.64 181.92 4.64H184.88C184.96 4.64 185.02 4.66667 185.06 4.72C185.1 4.76 185.107 4.82667 185.08 4.92L181.7 15.2C181.367 16.2 181.014 16.9533 180.64 17.46C180.28 17.98 179.747 18.36 179.04 18.6C178.347 18.8533 177.354 18.98 176.06 18.98H175.92ZM190.189 15.16C188.989 15.16 187.969 14.84 187.129 14.2C186.289 13.56 185.729 12.6933 185.449 11.6C185.289 11.0533 185.209 10.4533 185.209 9.8C185.209 9.06667 185.296 8.42 185.469 7.86C185.776 6.80667 186.343 5.98667 187.169 5.4C188.009 4.8 189.023 4.5 190.209 4.5C191.383 4.5 192.376 4.8 193.189 5.4C194.003 5.98667 194.569 6.8 194.889 7.84C195.076 8.44 195.169 9.08 195.169 9.76C195.169 10.3733 195.096 10.96 194.949 11.52C194.669 12.64 194.109 13.5267 193.269 14.18C192.429 14.8333 191.403 15.16 190.189 15.16ZM190.189 12.32C190.576 12.32 190.896 12.2 191.149 11.96C191.403 11.7067 191.589 11.3667 191.709 10.94C191.789 10.5933 191.829 10.2133 191.829 9.8C191.829 9.4 191.783 9.01333 191.689 8.64C191.583 8.22667 191.403 7.90667 191.149 7.68C190.896 7.45333 190.576 7.34 190.189 7.34C189.416 7.34 188.909 7.77333 188.669 8.64C188.589 8.96 188.549 9.34667 188.549 9.8C188.549 10.2133 188.589 10.5933 188.669 10.94C188.776 11.3667 188.956 11.7067 189.209 11.96C189.476 12.2 189.803 12.32 190.189 12.32ZM202.582 4.9C202.582 4.83333 202.602 4.78 202.642 4.74C202.695 4.68667 202.755 4.66 202.822 4.66H205.662C205.728 4.66 205.782 4.68667 205.822 4.74C205.875 4.78 205.902 4.83333 205.902 4.9V14.76C205.902 14.8267 205.875 14.8867 205.822 14.94C205.782 14.98 205.728 15 205.662 15H202.822C202.755 15 202.695 14.98 202.642 14.94C202.602 14.8867 202.582 14.8267 202.582 14.76V14.06C202.582 14.02 202.568 13.9933 202.542 13.98C202.515 13.9667 202.488 13.98 202.462 14.02C201.928 14.78 201.088 15.16 199.942 15.16C198.928 15.16 198.108 14.84 197.482 14.2C196.855 13.56 196.542 12.6667 196.542 11.52V4.9C196.542 4.83333 196.562 4.78 196.602 4.74C196.655 4.68667 196.715 4.66 196.782 4.66H199.622C199.688 4.66 199.742 4.68667 199.782 4.74C199.835 4.78 199.862 4.83333 199.862 4.9V10.76C199.862 11.2267 199.982 11.6 200.222 11.88C200.462 12.16 200.788 12.3 201.202 12.3C201.575 12.3 201.882 12.1867 202.122 11.96C202.375 11.7333 202.528 11.4333 202.582 11.06V4.9ZM217.982 1.24C217.982 1.17333 218.002 1.12 218.042 1.08C218.096 1.02667 218.156 0.999999 218.222 0.999999H221.062C221.129 0.999999 221.182 1.02667 221.222 1.08C221.276 1.12 221.302 1.17333 221.302 1.24V14.76C221.302 14.8267 221.276 14.8867 221.222 14.94C221.182 14.98 221.129 15 221.062 15H218.222C218.156 15 218.096 14.98 218.042 14.94C218.002 14.8867 217.982 14.8267 217.982 14.76V14.1C217.982 14.06 217.969 14.04 217.942 14.04C217.916 14.0267 217.889 14.0333 217.862 14.06C217.329 14.7933 216.562 15.16 215.562 15.16C214.656 15.16 213.849 14.8867 213.142 14.34C212.449 13.7933 211.956 13.0467 211.662 12.1C211.449 11.38 211.342 10.6067 211.342 9.78C211.342 8.84667 211.482 8.00667 211.762 7.26C212.069 6.43333 212.556 5.76667 213.222 5.26C213.902 4.75333 214.722 4.5 215.682 4.5C216.642 4.5 217.369 4.81333 217.862 5.44C217.889 5.48 217.916 5.49333 217.942 5.48C217.969 5.46667 217.982 5.44 217.982 5.4V1.24ZM217.642 11.54C217.869 11.1133 217.982 10.5467 217.982 9.84C217.982 9.06667 217.856 8.46667 217.602 8.04C217.322 7.57333 216.929 7.34 216.422 7.34C215.876 7.34 215.469 7.58 215.202 8.06C214.936 8.51333 214.802 9.10667 214.802 9.84C214.802 10.5467 214.922 11.12 215.162 11.56C215.442 12.0667 215.862 12.32 216.422 12.32C216.956 12.32 217.362 12.06 217.642 11.54ZM224.767 3.74C224.26 3.74 223.84 3.58 223.507 3.26C223.187 2.92667 223.027 2.50667 223.027 2C223.027 1.48 223.187 1.06 223.507 0.739999C223.84 0.419999 224.26 0.259999 224.767 0.259999C225.274 0.259999 225.687 0.419999 226.007 0.739999C226.34 1.06 226.507 1.48 226.507 2C226.507 2.49333 226.34 2.90667 226.007 3.24C225.687 3.57333 225.274 3.74 224.767 3.74ZM223.327 15C223.26 15 223.2 14.98 223.147 14.94C223.107 14.8867 223.087 14.8267 223.087 14.76V4.9C223.087 4.83333 223.107 4.78 223.147 4.74C223.2 4.68667 223.26 4.66 223.327 4.66H226.167C226.234 4.66 226.287 4.68667 226.327 4.74C226.38 4.78 226.407 4.83333 226.407 4.9V14.76C226.407 14.8267 226.38 14.8867 226.327 14.94C226.287 14.98 226.234 15 226.167 15H223.327ZM234.525 1.24C234.525 1.17333 234.545 1.12 234.585 1.08C234.638 1.02667 234.698 0.999999 234.765 0.999999H237.605C237.672 0.999999 237.725 1.02667 237.765 1.08C237.818 1.12 237.845 1.17333 237.845 1.24V14.76C237.845 14.8267 237.818 14.8867 237.765 14.94C237.725 14.98 237.672 15 237.605 15H234.765C234.698 15 234.638 14.98 234.585 14.94C234.545 14.8867 234.525 14.8267 234.525 14.76V14.1C234.525 14.06 234.512 14.04 234.485 14.04C234.458 14.0267 234.432 14.0333 234.405 14.06C233.872 14.7933 233.105 15.16 232.105 15.16C231.198 15.16 230.392 14.8867 229.685 14.34C228.992 13.7933 228.498 13.0467 228.205 12.1C227.992 11.38 227.885 10.6067 227.885 9.78C227.885 8.84667 228.025 8.00667 228.305 7.26C228.612 6.43333 229.098 5.76667 229.765 5.26C230.445 4.75333 231.265 4.5 232.225 4.5C233.185 4.5 233.912 4.81333 234.405 5.44C234.432 5.48 234.458 5.49333 234.485 5.48C234.512 5.46667 234.525 5.44 234.525 5.4V1.24ZM234.185 11.54C234.412 11.1133 234.525 10.5467 234.525 9.84C234.525 9.06667 234.398 8.46667 234.145 8.04C233.865 7.57333 233.472 7.34 232.965 7.34C232.418 7.34 232.012 7.58 231.745 8.06C231.478 8.51333 231.345 9.10667 231.345 9.84C231.345 10.5467 231.465 11.12 231.705 11.56C231.985 12.0667 232.405 12.32 232.965 12.32C233.498 12.32 233.905 12.06 234.185 11.54ZM245.41 4.5C246.45 4.5 247.303 4.83333 247.97 5.5C248.637 6.15333 248.97 7.04667 248.97 8.18V14.76C248.97 14.8267 248.943 14.8867 248.89 14.94C248.85 14.98 248.797 15 248.73 15H245.89C245.823 15 245.763 14.98 245.71 14.94C245.67 14.8867 245.65 14.8267 245.65 14.76V8.9C245.65 8.44667 245.523 8.07333 245.27 7.78C245.017 7.48667 244.69 7.34 244.29 7.34C243.877 7.34 243.543 7.48667 243.29 7.78C243.037 8.06 242.91 8.43333 242.91 8.9V14.76C242.91 14.8267 242.883 14.8867 242.83 14.94C242.79 14.98 242.737 15 242.67 15H239.83C239.763 15 239.703 14.98 239.65 14.94C239.61 14.8867 239.59 14.8267 239.59 14.76V4.9C239.59 4.83333 239.61 4.78 239.65 4.74C239.703 4.68667 239.763 4.66 239.83 4.66H242.67C242.737 4.66 242.79 4.68667 242.83 4.74C242.883 4.78 242.91 4.83333 242.91 4.9V5.64C242.91 5.69333 242.917 5.72667 242.93 5.74C242.957 5.74 242.983 5.72 243.01 5.68C243.517 4.89333 244.317 4.5 245.41 4.5ZM253.634 0.999999C253.727 0.999999 253.787 1.02667 253.814 1.08C253.841 1.13333 253.841 1.2 253.814 1.28L252.114 5.48C252.074 5.6 251.981 5.66 251.834 5.66H249.694C249.507 5.66 249.434 5.57333 249.474 5.4L250.534 1.2C250.574 1.06667 250.667 0.999999 250.814 0.999999H253.634ZM260.814 7.08C260.814 7.14667 260.787 7.20667 260.734 7.26C260.694 7.3 260.64 7.32 260.574 7.32H258.754C258.687 7.32 258.654 7.35333 258.654 7.42V11.06C258.654 11.82 258.96 12.2 259.574 12.2H260.314C260.38 12.2 260.434 12.2267 260.474 12.28C260.527 12.32 260.554 12.3733 260.554 12.44V14.76C260.554 14.9067 260.474 14.9933 260.314 15.02C259.674 15.0467 259.207 15.06 258.914 15.06C257.754 15.06 256.894 14.88 256.334 14.52C255.774 14.1467 255.487 13.4467 255.474 12.42V7.42C255.474 7.35333 255.44 7.32 255.374 7.32H254.234C254.167 7.32 254.107 7.3 254.054 7.26C254.014 7.20667 253.994 7.14667 253.994 7.08V4.9C253.994 4.83333 254.014 4.78 254.054 4.74C254.107 4.68667 254.167 4.66 254.234 4.66H255.374C255.44 4.66 255.474 4.62667 255.474 4.56V2.14C255.474 2.07333 255.494 2.02 255.534 1.98C255.587 1.92667 255.647 1.9 255.714 1.9H258.414C258.48 1.9 258.534 1.92667 258.574 1.98C258.627 2.02 258.654 2.07333 258.654 2.14V4.56C258.654 4.62667 258.687 4.66 258.754 4.66H260.574C260.64 4.66 260.694 4.68667 260.734 4.74C260.787 4.78 260.814 4.83333 260.814 4.9V7.08ZM271.973 4.5C273.013 4.5 273.866 4.83333 274.533 5.5C275.199 6.15333 275.533 7.04667 275.533 8.18V14.76C275.533 14.8267 275.506 14.8867 275.453 14.94C275.413 14.98 275.359 15 275.293 15H272.453C272.386 15 272.326 14.98 272.273 14.94C272.233 14.8867 272.213 14.8267 272.213 14.76V8.9C272.213 8.44667 272.086 8.07333 271.833 7.78C271.579 7.48667 271.253 7.34 270.853 7.34C270.439 7.34 270.106 7.48667 269.853 7.78C269.599 8.06 269.473 8.43333 269.473 8.9V14.76C269.473 14.8267 269.446 14.8867 269.393 14.94C269.353 14.98 269.299 15 269.233 15H266.393C266.326 15 266.266 14.98 266.213 14.94C266.173 14.8867 266.153 14.8267 266.153 14.76V4.9C266.153 4.83333 266.173 4.78 266.213 4.74C266.266 4.68667 266.326 4.66 266.393 4.66H269.233C269.299 4.66 269.353 4.68667 269.393 4.74C269.446 4.78 269.473 4.83333 269.473 4.9V5.64C269.473 5.69333 269.479 5.72667 269.493 5.74C269.519 5.74 269.546 5.72 269.573 5.68C270.079 4.89333 270.879 4.5 271.973 4.5ZM281.869 15.16C280.669 15.16 279.649 14.84 278.809 14.2C277.969 13.56 277.409 12.6933 277.129 11.6C276.969 11.0533 276.889 10.4533 276.889 9.8C276.889 9.06667 276.976 8.42 277.149 7.86C277.456 6.80667 278.022 5.98667 278.849 5.4C279.689 4.8 280.702 4.5 281.889 4.5C283.062 4.5 284.056 4.8 284.869 5.4C285.682 5.98667 286.249 6.8 286.569 7.84C286.756 8.44 286.849 9.08 286.849 9.76C286.849 10.3733 286.776 10.96 286.629 11.52C286.349 12.64 285.789 13.5267 284.949 14.18C284.109 14.8333 283.082 15.16 281.869 15.16ZM281.869 12.32C282.256 12.32 282.576 12.2 282.829 11.96C283.082 11.7067 283.269 11.3667 283.389 10.94C283.469 10.5933 283.509 10.2133 283.509 9.8C283.509 9.4 283.462 9.01333 283.369 8.64C283.262 8.22667 283.082 7.90667 282.829 7.68C282.576 7.45333 282.256 7.34 281.869 7.34C281.096 7.34 280.589 7.77333 280.349 8.64C280.269 8.96 280.229 9.34667 280.229 9.8C280.229 10.2133 280.269 10.5933 280.349 10.94C280.456 11.3667 280.636 11.7067 280.889 11.96C281.156 12.2 281.482 12.32 281.869 12.32ZM294.329 7.08C294.329 7.14667 294.303 7.20667 294.249 7.26C294.209 7.3 294.156 7.32 294.089 7.32H292.269C292.203 7.32 292.169 7.35333 292.169 7.42V11.06C292.169 11.82 292.476 12.2 293.089 12.2H293.829C293.896 12.2 293.949 12.2267 293.989 12.28C294.043 12.32 294.069 12.3733 294.069 12.44V14.76C294.069 14.9067 293.989 14.9933 293.829 15.02C293.189 15.0467 292.723 15.06 292.429 15.06C291.269 15.06 290.409 14.88 289.849 14.52C289.289 14.1467 289.003 13.4467 288.989 12.42V7.42C288.989 7.35333 288.956 7.32 288.889 7.32H287.749C287.683 7.32 287.623 7.3 287.569 7.26C287.529 7.20667 287.509 7.14667 287.509 7.08V4.9C287.509 4.83333 287.529 4.78 287.569 4.74C287.623 4.68667 287.683 4.66 287.749 4.66H288.889C288.956 4.66 288.989 4.62667 288.989 4.56V2.14C288.989 2.07333 289.009 2.02 289.049 1.98C289.103 1.92667 289.163 1.9 289.229 1.9H291.929C291.996 1.9 292.049 1.92667 292.089 1.98C292.143 2.02 292.169 2.07333 292.169 2.14V4.56C292.169 4.62667 292.203 4.66 292.269 4.66H294.089C294.156 4.66 294.209 4.68667 294.249 4.74C294.303 4.78 294.329 4.83333 294.329 4.9V7.08ZM297.384 3.74C296.878 3.74 296.458 3.58 296.124 3.26C295.804 2.92667 295.644 2.50667 295.644 2C295.644 1.48 295.804 1.06 296.124 0.739999C296.458 0.419999 296.878 0.259999 297.384 0.259999C297.891 0.259999 298.304 0.419999 298.624 0.739999C298.958 1.06 299.124 1.48 299.124 2C299.124 2.49333 298.958 2.90667 298.624 3.24C298.304 3.57333 297.891 3.74 297.384 3.74ZM295.944 15C295.878 15 295.818 14.98 295.764 14.94C295.724 14.8867 295.704 14.8267 295.704 14.76V4.9C295.704 4.83333 295.724 4.78 295.764 4.74C295.818 4.68667 295.878 4.66 295.944 4.66H298.784C298.851 4.66 298.904 4.68667 298.944 4.74C298.998 4.78 299.024 4.83333 299.024 4.9V14.76C299.024 14.8267 298.998 14.8867 298.944 14.94C298.904 14.98 298.851 15 298.784 15H295.944ZM305.502 15.16C304.409 15.16 303.449 14.8867 302.622 14.34C301.809 13.7933 301.229 13.04 300.882 12.08C300.629 11.44 300.502 10.6733 300.502 9.78C300.502 8.88667 300.629 8.12 300.882 7.48C301.216 6.54667 301.796 5.82 302.622 5.3C303.449 4.76667 304.409 4.5 305.502 4.5C306.609 4.5 307.582 4.77333 308.422 5.32C309.262 5.86667 309.829 6.56 310.122 7.4C310.216 7.64 310.276 7.9 310.302 8.18C310.302 8.32667 310.229 8.41333 310.082 8.44L307.302 8.86H307.262C307.142 8.86 307.062 8.79333 307.022 8.66L306.982 8.48C306.956 8.37333 306.929 8.28 306.902 8.2C306.782 7.94667 306.596 7.74 306.342 7.58C306.102 7.42 305.816 7.34 305.482 7.34C304.776 7.34 304.309 7.65333 304.082 8.28C303.936 8.65333 303.862 9.16 303.862 9.8C303.862 10.3733 303.929 10.8733 304.062 11.3C304.316 11.98 304.789 12.32 305.482 12.32C305.829 12.32 306.129 12.2333 306.382 12.06C306.636 11.8733 306.816 11.6133 306.922 11.28C306.936 11.2533 306.942 11.2133 306.942 11.16C306.956 11.1467 306.962 11.12 306.962 11.08C307.002 10.92 307.096 10.8533 307.242 10.88L310.042 11.32C310.176 11.3467 310.242 11.42 310.242 11.54C310.242 11.74 310.202 11.96 310.122 12.2C309.802 13.1333 309.222 13.86 308.382 14.38C307.556 14.9 306.596 15.16 305.502 15.16ZM321.045 8.92C321.112 9.32 321.132 9.84667 321.105 10.5C321.092 10.66 321.005 10.74 320.845 10.74H314.745C314.718 10.74 314.692 10.7533 314.665 10.78C314.638 10.7933 314.632 10.8133 314.645 10.84C314.672 10.9867 314.738 11.18 314.845 11.42C315.005 11.7 315.245 11.9267 315.565 12.1C315.885 12.2733 316.278 12.36 316.745 12.36C317.585 12.36 318.245 12.0867 318.725 11.54C318.778 11.4733 318.838 11.44 318.905 11.44C318.972 11.44 319.025 11.4667 319.065 11.52L320.605 13.28C320.658 13.32 320.685 13.3733 320.685 13.44C320.685 13.4933 320.658 13.5467 320.605 13.6C320.138 14.1067 319.558 14.4933 318.865 14.76C318.185 15.0267 317.438 15.16 316.625 15.16C315.412 15.16 314.378 14.9 313.525 14.38C312.685 13.8467 312.078 13.1067 311.705 12.16C311.425 11.4933 311.285 10.66 311.285 9.66C311.285 8.96667 311.392 8.3 311.605 7.66C311.952 6.67333 312.518 5.9 313.305 5.34C314.105 4.76667 315.052 4.48 316.145 4.48C317.025 4.48 317.812 4.67333 318.505 5.06C319.198 5.43333 319.758 5.96 320.185 6.64C320.625 7.30667 320.912 8.06667 321.045 8.92ZM316.145 7.34C315.452 7.34 314.992 7.66667 314.765 8.32C314.712 8.46667 314.678 8.60667 314.665 8.74C314.638 8.80667 314.665 8.84 314.745 8.84H317.585C317.638 8.84 317.665 8.81333 317.665 8.76C317.665 8.65333 317.638 8.52 317.585 8.36C317.492 8.02667 317.318 7.77333 317.065 7.6C316.825 7.42667 316.518 7.34 316.145 7.34ZM323.79 15.12C323.284 15.12 322.864 14.96 322.53 14.64C322.21 14.3067 322.05 13.8867 322.05 13.38C322.05 12.86 322.21 12.44 322.53 12.12C322.864 11.8 323.284 11.64 323.79 11.64C324.297 11.64 324.71 11.8 325.03 12.12C325.35 12.44 325.51 12.86 325.51 13.38C325.51 13.8867 325.344 14.3067 325.01 14.64C324.69 14.96 324.284 15.12 323.79 15.12Z" fill="black"/>
</svg>
