<svg width="309" height="44" viewBox="0 0 309 44" fill="none" xmlns="http://www.w3.org/2000/svg">
<path d="M16.36 43.48C13.16 43.48 10.34 42.84 7.9 41.56C5.5 40.28 3.62 38.48 2.26 36.16C0.94 33.84 0.28 31.16 0.28 28.12V15.82C0.28 12.78 0.94 10.12 2.26 7.84C3.62 5.52 5.5 3.72 7.9 2.44C10.34 1.16 13.16 0.52 16.36 0.52C19.52 0.52 22.32 1.14 24.76 2.38C27.2 3.58 29.08 5.24 30.4 7.36C31.76 9.48 32.44 11.82 32.44 14.38V14.68C32.44 14.88 32.36 15.06 32.2 15.22C32.08 15.34 31.92 15.4 31.72 15.4H23.2C23 15.4 22.82 15.34 22.66 15.22C22.54 15.06 22.48 14.88 22.48 14.68C22.48 13.12 21.92 11.8 20.8 10.72C19.72 9.6 18.24 9.04 16.36 9.04C14.52 9.04 13.04 9.64 11.92 10.84C10.8 12.04 10.24 13.6 10.24 15.52V28.42C10.24 30.34 10.86 31.9 12.1 33.1C13.34 34.3 14.9 34.9 16.78 34.9C18.54 34.9 19.96 34.44 21.04 33.52C22.12 32.56 22.66 31.24 22.66 29.56V27.88C22.66 27.68 22.56 27.58 22.36 27.58H16.36C16.16 27.58 15.98 27.52 15.82 27.4C15.7 27.24 15.64 27.06 15.64 26.86V20.26C15.64 20.06 15.7 19.9 15.82 19.78C15.98 19.62 16.16 19.54 16.36 19.54H31.72C31.92 19.54 32.08 19.62 32.2 19.78C32.36 19.9 32.44 20.06 32.44 20.26V28.42C32.44 31.42 31.76 34.06 30.4 36.34C29.08 38.62 27.2 40.38 24.76 41.62C22.36 42.86 19.56 43.48 16.36 43.48ZM63.8092 43C63.3692 43 63.0892 42.8 62.9692 42.4L61.4092 37.06C61.3292 36.9 61.2292 36.82 61.1092 36.82H47.4292C47.3092 36.82 47.2092 36.9 47.1292 37.06L45.5692 42.4C45.4492 42.8 45.1692 43 44.7292 43H35.5492C35.3092 43 35.1292 42.94 35.0092 42.82C34.8892 42.66 34.8692 42.44 34.9492 42.16L47.7892 1.6C47.9092 1.2 48.1692 0.999997 48.5692 0.999997H59.9092C60.3092 0.999997 60.5692 1.2 60.6892 1.6L73.5892 42.16C73.6292 42.24 73.6492 42.34 73.6492 42.46C73.6492 42.82 73.4292 43 72.9892 43H63.8092ZM49.5292 28.78C49.4892 29.02 49.5692 29.14 49.7692 29.14H58.7092C58.9492 29.14 59.0292 29.02 58.9492 28.78L54.3892 13.36C54.3492 13.2 54.2892 13.14 54.2092 13.18C54.1292 13.18 54.0692 13.24 54.0292 13.36L49.5292 28.78ZM104.989 1.48C105.149 1.16 105.429 0.999997 105.829 0.999997H114.289C114.489 0.999997 114.649 1.08 114.769 1.24C114.929 1.36 115.009 1.52 115.009 1.72V42.28C115.009 42.48 114.929 42.66 114.769 42.82C114.649 42.94 114.489 43 114.289 43H105.769C105.569 43 105.389 42.94 105.229 42.82C105.109 42.66 105.049 42.48 105.049 42.28V18.16C105.049 18 105.009 17.92 104.929 17.92C104.849 17.92 104.769 17.98 104.689 18.1L99.5294 26.38C99.3694 26.7 99.0894 26.86 98.6894 26.86H94.4294C94.0294 26.86 93.7494 26.7 93.5894 26.38L88.3694 18.04C88.2894 17.92 88.2094 17.86 88.1294 17.86C88.0494 17.86 88.0094 17.94 88.0094 18.1V42.28C88.0094 42.48 87.9294 42.66 87.7694 42.82C87.6494 42.94 87.4894 43 87.2894 43H78.7694C78.5694 43 78.3894 42.94 78.2294 42.82C78.1094 42.66 78.0494 42.48 78.0494 42.28V1.72C78.0494 1.52 78.1094 1.36 78.2294 1.24C78.3894 1.08 78.5694 0.999997 78.7694 0.999997H87.2294C87.5894 0.999997 87.8694 1.16 88.0694 1.48L96.4094 14.56C96.5294 14.8 96.6494 14.8 96.7694 14.56L104.989 1.48ZM150.701 8.8C150.701 9 150.621 9.18 150.461 9.34C150.341 9.46 150.181 9.52 149.981 9.52H131.141C130.941 9.52 130.841 9.62 130.841 9.82V17.2C130.841 17.4 130.941 17.5 131.141 17.5H143.201C143.401 17.5 143.561 17.58 143.681 17.74C143.841 17.86 143.921 18.02 143.921 18.22V25.24C143.921 25.44 143.841 25.62 143.681 25.78C143.561 25.9 143.401 25.96 143.201 25.96H131.141C130.941 25.96 130.841 26.06 130.841 26.26V34.18C130.841 34.38 130.941 34.48 131.141 34.48H149.981C150.181 34.48 150.341 34.56 150.461 34.72C150.621 34.84 150.701 35 150.701 35.2V42.28C150.701 42.48 150.621 42.66 150.461 42.82C150.341 42.94 150.181 43 149.981 43H121.601C121.401 43 121.221 42.94 121.061 42.82C120.941 42.66 120.881 42.48 120.881 42.28V1.72C120.881 1.52 120.941 1.36 121.061 1.24C121.221 1.08 121.401 0.999997 121.601 0.999997H149.981C150.181 0.999997 150.341 1.08 150.461 1.24C150.621 1.36 150.701 1.52 150.701 1.72V8.8ZM183.182 43.66C179.942 43.66 177.082 43.02 174.602 41.74C172.162 40.42 170.262 38.58 168.902 36.22C167.542 33.86 166.862 31.12 166.862 28V16C166.862 12.96 167.542 10.28 168.902 7.96C170.262 5.6 172.162 3.78 174.602 2.5C177.082 1.18 179.942 0.52 183.182 0.52C186.422 0.52 189.282 1.18 191.762 2.5C194.242 3.78 196.162 5.6 197.522 7.96C198.882 10.28 199.562 12.96 199.562 16V28C199.562 31.12 198.882 33.86 197.522 36.22C196.162 38.58 194.242 40.42 191.762 41.74C189.282 43.02 186.422 43.66 183.182 43.66ZM183.182 35.14C185.102 35.14 186.642 34.52 187.802 33.28C189.002 32.04 189.602 30.38 189.602 28.3V15.88C189.602 13.84 189.002 12.2 187.802 10.96C186.642 9.68 185.102 9.04 183.182 9.04C181.302 9.04 179.762 9.68 178.562 10.96C177.402 12.2 176.822 13.84 176.822 15.88V28.3C176.822 30.38 177.402 32.04 178.562 33.28C179.762 34.52 181.302 35.14 183.182 35.14ZM215.252 43C214.852 43 214.592 42.8 214.472 42.4L202.352 1.84L202.292 1.6C202.292 1.2 202.512 0.999997 202.952 0.999997H212.132C212.572 0.999997 212.852 1.2 212.972 1.6L219.872 28.9C219.912 29.02 219.972 29.08 220.052 29.08C220.132 29.08 220.192 29.02 220.232 28.9L227.012 1.6C227.132 1.2 227.412 0.999997 227.852 0.999997H236.852C237.092 0.999997 237.272 1.08 237.392 1.24C237.512 1.4 237.532 1.6 237.452 1.84L225.152 42.4C225.032 42.8 224.772 43 224.372 43H215.252ZM271.463 8.8C271.463 9 271.383 9.18 271.223 9.34C271.103 9.46 270.943 9.52 270.743 9.52H251.903C251.703 9.52 251.603 9.62 251.603 9.82V17.2C251.603 17.4 251.703 17.5 251.903 17.5H263.963C264.163 17.5 264.323 17.58 264.443 17.74C264.603 17.86 264.683 18.02 264.683 18.22V25.24C264.683 25.44 264.603 25.62 264.443 25.78C264.323 25.9 264.163 25.96 263.963 25.96H251.903C251.703 25.96 251.603 26.06 251.603 26.26V34.18C251.603 34.38 251.703 34.48 251.903 34.48H270.743C270.943 34.48 271.103 34.56 271.223 34.72C271.383 34.84 271.463 35 271.463 35.2V42.28C271.463 42.48 271.383 42.66 271.223 42.82C271.103 42.94 270.943 43 270.743 43H242.363C242.163 43 241.983 42.94 241.823 42.82C241.703 42.66 241.643 42.48 241.643 42.28V1.72C241.643 1.52 241.703 1.36 241.823 1.24C241.983 1.08 242.163 0.999997 242.363 0.999997H270.743C270.943 0.999997 271.103 1.08 271.223 1.24C271.383 1.36 271.463 1.52 271.463 1.72V8.8ZM298.772 43C298.372 43 298.092 42.82 297.932 42.46L290.852 26.5C290.772 26.34 290.652 26.26 290.492 26.26H286.532C286.332 26.26 286.232 26.36 286.232 26.56V42.28C286.232 42.48 286.152 42.66 285.992 42.82C285.872 42.94 285.712 43 285.512 43H276.992C276.792 43 276.612 42.94 276.452 42.82C276.332 42.66 276.272 42.48 276.272 42.28V1.72C276.272 1.52 276.332 1.36 276.452 1.24C276.612 1.08 276.792 0.999997 276.992 0.999997H294.812C297.452 0.999997 299.772 1.54 301.772 2.62C303.772 3.7 305.312 5.24 306.392 7.24C307.512 9.2 308.072 11.46 308.072 14.02C308.072 16.7 307.412 19.02 306.092 20.98C304.772 22.94 302.932 24.36 300.572 25.24C300.372 25.32 300.312 25.46 300.392 25.66L308.312 42.16C308.392 42.32 308.432 42.44 308.432 42.52C308.432 42.84 308.212 43 307.772 43H298.772ZM286.532 9.52C286.332 9.52 286.232 9.62 286.232 9.82V18.34C286.232 18.54 286.332 18.64 286.532 18.64H293.192C294.672 18.64 295.872 18.24 296.792 17.44C297.712 16.6 298.172 15.5 298.172 14.14C298.172 12.74 297.712 11.62 296.792 10.78C295.872 9.94 294.672 9.52 293.192 9.52H286.532Z" fill="black"/>
</svg>
